<?xml version="1.0" encoding="UTF-8"?>
<svg width="170px" height="109px" viewBox="0 0 170 109" version="1.1" xmlns="http://www.w3.org/2000/svg" xmlns:xlink="http://www.w3.org/1999/xlink">
    <!-- Generator: Sketch 63.1 (92452) - https://sketch.com -->
    <title>Hurradev</title>
    <desc>Created with Sketch.</desc>
    <defs>
        <path d="M1.05511968,82.0291381 L1.64716044,27.1251638 C1.64716044,26.1983826 1.32496641,25.198533 0.800018684,24.3204639 L44.8920925,1.13686838e-13 C45.4229385,0.882440659 45.7532427,1.88666188 45.7532427,2.81906379 L46.0171911,57.7495897 C46.0171911,58.7687993 45.6249549,59.4907394 45.0048973,59.8211082 L44.9178975,59.8679469 L44.8943044,59.8798127 L0.111393443,84.0681818 C0.693112196,83.7222001 1.05511968,83.0121258 1.05511968,82.0291381 Z" id="path-1"></path>
        <linearGradient x1="36.6333456%" y1="48.7754779%" x2="65.9074764%" y2="52.0278035%" id="linearGradient-3">
            <stop stop-color="#93193E" offset="0%"></stop>
            <stop stop-color="#3B151E" offset="100%"></stop>
        </linearGradient>
        <path d="M46.9276053,47.3472428 L2.01176964,25.6265297 C1.57855767,25.4147331 1.16674799,25.3141453 0.792576832,25.3141453 C0.547557455,25.3141453 0.318036291,25.3578791 0.111393443,25.4409734 L45.214096,0.854428863 L45.214096,0.855053632 C45.4450932,0.746343856 45.7048727,0.689489893 45.9860546,0.689489893 C46.3587498,0.689489893 46.7690834,0.789452905 47.2015574,1 L89.7881835,22.5396579 C90.6575595,22.9651255 91.4413263,23.7579572 92,24.6863636 L75.3023218,34.7579934 L74.4846065,35.1578455 L56.735962,44.7700714 L55.9182467,45.1692987 L47.8576996,49.1090909 C47.2982879,48.1731872 47.8021474,47.7745847 46.9276053,47.3472428 Z" id="path-4"></path>
        <linearGradient x1="2.76205038%" y1="44.6659516%" x2="88.2675306%" y2="69.490633%" id="linearGradient-6">
            <stop stop-color="#B0647A" offset="0%"></stop>
            <stop stop-color="#801837" offset="100%"></stop>
        </linearGradient>
        <filter x="-15.6%" y="-10.4%" width="137.0%" height="124.7%" filterUnits="objectBoundingBox" id="filter-7">
            <feOffset dx="0" dy="0" in="SourceAlpha" result="shadowOffsetOuter1"></feOffset>
            <feGaussianBlur stdDeviation="0.5" in="shadowOffsetOuter1" result="shadowBlurOuter1"></feGaussianBlur>
            <feColorMatrix values="0 0 0 0 0   0 0 0 0 0   0 0 0 0 0  0 0 0 1 0" type="matrix" in="shadowBlurOuter1" result="shadowMatrixOuter1"></feColorMatrix>
            <feMerge>
                <feMergeNode in="shadowMatrixOuter1"></feMergeNode>
                <feMergeNode in="SourceGraphic"></feMergeNode>
            </feMerge>
        </filter>
        <path d="M9.87719821,5.43987345 C9.80275708,6.17427483 9.67365872,6.90330581 9.47682563,7.61421172 C9.37891207,7.96966467 9.26456781,8.32008288 9.13412817,8.66378809 C9.00368852,9.00782896 8.85748882,9.34482118 8.69217586,9.67207956 C8.52719821,9.99933794 8.34646051,10.3171981 8.15063338,10.6243175 C8.07350969,10.7438088 7.99370343,10.8616218 7.91188525,10.9770853 C7.8716468,11.0341457 7.8766766,11.1110095 7.92462742,11.1620282 C7.94374069,11.1825029 7.96285395,11.2029775 7.98163189,11.2237878 C8.0523845,11.3026654 8.12045455,11.3828857 8.18584203,11.4657912 C8.48226528,11.8427257 8.71933681,12.2656442 8.88632638,12.7174286 C8.89403875,12.7379032 8.88096125,12.7603918 8.85950075,12.7644195 C8.5942623,12.8154383 8.33237705,12.8849178 8.07418033,12.9721867 C7.34150522,13.2205674 6.67187034,13.6038793 6.08405365,14.1117171 C5.49623696,14.619555 5.01907601,15.2264095 4.66631893,15.9154982 C4.30115499,16.6290893 4.08554396,17.3994052 4.02652757,18.2052999 C4.01982116,18.2986105 4.01479136,18.3919211 4.01244411,18.4848961 C4.01177347,18.5120837 4.01110283,18.5389357 4.01076751,18.5661233 C4.01043219,18.5802206 4.01043219,18.5946535 4.01043219,18.6087508 C4.01043219,18.6121073 4.01009687,18.6147925 4.01043219,18.6178133 C4.01043219,18.6446653 4.01009687,18.670846 4.01043219,18.6976979 C4.01043219,18.7037396 4.01076751,18.7094457 4.01076751,18.7154874 C4.01110283,18.7477097 4.01177347,18.7802678 4.01244411,18.8128258 C4.01277943,18.8138327 4.01244411,18.8148397 4.01244411,18.8161823 L4.01244411,18.8161823 C4.01345007,18.8379995 3.99433681,18.8557889 3.97254098,18.8527681 C3.84511923,18.8356499 3.71736215,18.8128258 3.58960507,18.7842956 C2.90454545,18.631575 2.28889717,18.3321755 1.76915052,17.9263751 C1.7490313,17.9109352 1.72924739,17.8954953 1.70946349,17.8790485 C1.69672131,17.8686434 1.68397914,17.8582382 1.67157228,17.8478331 C1.65782414,17.8367567 1.64474665,17.8256802 1.63166915,17.8142681 C1.59880775,17.7870805 1.56661699,17.7585503 1.53476155,17.7303557 C1.51598361,17.7135733 1.4978763,17.6964551 1.47876304,17.679337 C1.46132638,17.6632258 1.4435544,17.6464433 1.42645306,17.6296608 C1.39023845,17.5954246 1.35502981,17.560517 1.31982116,17.5249382 C1.30976155,17.514533 1.29936662,17.5037922 1.289307,17.4933871 C1.27757079,17.4813037 1.26650522,17.4692203 1.254769,17.4571369 C1.24102086,17.442704 1.22760805,17.4282711 1.21453055,17.4138381 C1.21285395,17.4118242 1.21117735,17.4098103 1.20950075,17.4081321 C1.19675857,17.3943705 1.18368107,17.3799375 1.17160954,17.3661759 C1.16590909,17.3594629 1.16020864,17.3534212 1.1545082,17.3470439 C1.1233234,17.3118007 1.09280924,17.2762218 1.0626304,17.2399716 C1.06229508,17.2393003 1.06128912,17.238629 1.06061848,17.2376221 C1.04485842,17.2188257 1.02943368,17.199358 1.01367362,17.180226 C0.997913562,17.1607583 0.982153502,17.140955 0.967064083,17.120816 C0.953986587,17.1043692 0.941579732,17.0872511 0.928502235,17.0708042 C0.919113264,17.0590565 0.910394933,17.0466374 0.901341282,17.0338828 C0.89161699,17.0211281 0.881892697,17.0077021 0.872168405,16.9939405 C0.858420268,16.9751441 0.845342772,16.957019 0.832265276,16.937887 C0.806445604,16.9013012 0.780961252,16.8637084 0.756147541,16.8261156 C0.744076006,16.8069836 0.73133383,16.7875159 0.718926975,16.7683839 C0.710208644,16.753951 0.701154993,16.7398537 0.691766021,16.7250851 C0.683718331,16.7116591 0.67533532,16.6982331 0.66695231,16.6844715 C0.654210134,16.6639969 0.642138599,16.6431866 0.630067064,16.622712 C0.620007452,16.6052582 0.609947839,16.5881401 0.600223547,16.5710219 C0.590163934,16.5535681 0.580774963,16.53645 0.571385991,16.5193409 C0.571050671,16.5186606 0.571050671,16.5183249 0.571050671,16.5179893 C0.561326379,16.5005355 0.551602086,16.4830817 0.542548435,16.4656279 C0.528129657,16.438776 0.5140462,16.411924 0.500298063,16.3847364 C0.486549925,16.3575488 0.472801788,16.3300255 0.459724292,16.3028379 C0.44966468,16.2820276 0.439940387,16.261553 0.430216095,16.2404071 C0.420491803,16.2195968 0.410767511,16.1987865 0.401378539,16.1779762 C0.392324888,16.1571659 0.382935917,16.1363557 0.373546945,16.1148741 C0.364828614,16.0940638 0.355774963,16.0725822 0.347056632,16.0514363 C0.335320417,16.0232417 0.323919523,15.9947115 0.312853949,15.966517 C0.302123696,15.9379867 0.291058122,15.9091209 0.280663189,15.8805907 C0.269932936,15.8517248 0.259873323,15.8231946 0.24947839,15.7936574 C0.239754098,15.7647915 0.230029806,15.73559 0.220640835,15.7063885 C0.211251863,15.6775226 0.202533532,15.6489924 0.193479881,15.6194552 C0.193479881,15.6187839 0.19280924,15.6174413 0.19247392,15.6164344 C0.18476155,15.5899181 0.17671386,15.5634018 0.169336811,15.5365498 C0.168330849,15.5328576 0.167324888,15.5284942 0.166318927,15.5248021 C0.165648286,15.5227882 0.164977645,15.5207743 0.164642325,15.5184247 C0.157600596,15.4929153 0.150558867,15.4667347 0.143517139,15.440554 C0.129098361,15.3834936 0.115350224,15.3254262 0.102943368,15.2673588 C0.101266766,15.2603101 0.0995901639,15.2529259 0.0982488823,15.2455416 C0.0979135618,15.244199 0.0979135618,15.2428564 0.0975782414,15.2415138 L0.0965722802,15.2368147 C0.0928837556,15.2203678 0.0895305514,15.2035854 0.0861773472,15.1871385 L0.0845007452,15.1790829 C0.0831594635,15.1716986 0.0818181818,15.1643144 0.0801415797,15.1572657 C0.0757824143,15.1341059 0.0714232489,15.1099391 0.0677347243,15.0864436 C0.0616989568,15.0528787 0.0559985097,15.0196494 0.0509687034,14.9864201 C0.0492921013,14.974001 0.0472801788,14.9619176 0.0459388972,14.9498342 C0.0435916542,14.9323805 0.0405737705,14.9152623 0.038561848,14.8978086 C0.0368852459,14.8857252 0.0355439642,14.8733061 0.0342026826,14.8608871 C0.0338673621,14.8592088 0.0335320417,14.857195 0.0331967213,14.8555167 C0.0318554396,14.8444403 0.030514158,14.8330282 0.0291728763,14.8219517 C0.0271609538,14.8004702 0.0244783905,14.7789886 0.022466468,14.757507 C0.0204545455,14.7360254 0.018442623,14.7145439 0.0164307004,14.6927266 L0.0140834575,14.6605043 C0.0124068554,14.6447287 0.0117362146,14.6292889 0.0103949329,14.613849 C0.00905365127,14.599416 0.00838301043,14.5849831 0.0077123696,14.5702145 C0.00737704918,14.5695432 0.00737704918,14.5695432 0.00737704918,14.5688719 C0.00637108793,14.5527607 0.00536512668,14.5359783 0.00502980626,14.5195314 C0.00402384501,14.5040915 0.00368852459,14.4886517 0.00335320417,14.4735474 C0.00234724292,14.4607927 0.00234724292,14.4477024 0.0020119225,14.4349477 C0.00167660209,14.4158157 0.00100596125,14.3970193 0.00100596125,14.3778873 C0.000670640835,14.377216 0.000670640835,14.3765447 0.00100596125,14.3758734 C0.000670640835,14.3607692 0.00100596125,14.3453293 0.000670640835,14.330225 C0.000335320417,14.3077365 0.000670640835,14.2849123 0.00100596125,14.2624238 C0.00134128167,14.2412779 0.00134128167,14.220132 0.00234724292,14.198986 C0.00268256334,14.1818679 0.00335320417,14.1647498 0.00402384501,14.1476316 C0.00368852459,14.1446108 0.00435916542,14.1412543 0.00402384501,14.1385691 C0.00469448584,14.1261501 0.00502980626,14.1144023 0.00536512668,14.1026546 C0.00670640835,14.08218 0.0077123696,14.0617053 0.00838301043,14.0412307 C0.0097242921,14.0173996 0.0117362146,13.9932328 0.0134128167,13.969066 C0.0147540984,13.9465775 0.0167660209,13.9237533 0.0191132638,13.9009292 C0.0204545455,13.884818 0.0221311475,13.8687068 0.0238077496,13.8529313 C0.0285022355,13.806276 0.0338673621,13.7589494 0.0399031297,13.7119584 C0.0422503726,13.6938334 0.0445976155,13.6757083 0.0472801788,13.6572475 C0.0482861401,13.649192 0.0492921013,13.6411364 0.050633383,13.6327451 C0.0543219076,13.6099209 0.0576751118,13.5870968 0.0616989568,13.5642726 C0.0727645306,13.496807 0.085171386,13.4296771 0.0992548435,13.3625472 C0.10461997,13.3377091 0.109985097,13.3132067 0.115350224,13.2887043 C0.121050671,13.2642018 0.127086438,13.2396994 0.132451565,13.2155326 C0.136140089,13.2007641 0.139828614,13.1863311 0.143181818,13.1715625 C0.1445231,13.1671991 0.145864382,13.1621644 0.146870343,13.1574653 C0.150894188,13.142361 0.154582712,13.1275924 0.158606557,13.1124882 C0.167324888,13.0809371 0.175707899,13.0493861 0.18509687,13.017835 C0.188450075,13.0064229 0.191803279,12.9946752 0.195156483,12.9825918 C0.197503726,12.9745362 0.20052161,12.9664806 0.202868852,12.9580894 C0.205886736,12.9480199 0.20890462,12.9382861 0.211922504,12.9282166 C0.21695231,12.9121054 0.221982116,12.8966655 0.227011923,12.8812256 C0.232041729,12.8654501 0.237071535,12.8500102 0.242101341,12.8345703 C0.247466468,12.8191304 0.252496274,12.8036906 0.258196721,12.7882507 C0.262891207,12.774489 0.267585693,12.7607274 0.272615499,12.7469658 C0.278651267,12.7301833 0.285022355,12.7134008 0.291058122,12.6962827 C0.29709389,12.6808428 0.302459016,12.6660742 0.308159463,12.6506343 C0.314195231,12.6351944 0.320230999,12.6200902 0.326266766,12.6053216 C0.332302534,12.5902174 0.338002981,12.5751132 0.344374069,12.5603446 L0.363152012,12.5153675 C0.363822653,12.513018 0.364828614,12.5110041 0.365834575,12.5089902 C0.373882265,12.4895225 0.382265276,12.4697192 0.390983607,12.4505871 C0.395342772,12.4398464 0.400707899,12.4291056 0.405067064,12.4187004 C0.410432191,12.406617 0.415797317,12.3945337 0.421497765,12.3821146 C0.428204173,12.367346 0.435245902,12.3529131 0.44195231,12.3384802 C0.448658718,12.3237116 0.455700447,12.3092787 0.462406855,12.2948457 C0.469448584,12.2807484 0.476490313,12.2659799 0.483867362,12.2518826 C0.491244411,12.2377853 0.49828614,12.2233524 0.505663189,12.2089194 C0.520081967,12.1803892 0.534836066,12.1521946 0.550260805,12.1240001 C0.557637854,12.1099028 0.565350224,12.0958055 0.573062593,12.0820439 C0.580439642,12.0682822 0.588152012,12.0541849 0.596199702,12.0404233 C0.635432191,11.9709438 0.676676602,11.9031426 0.719262295,11.8360127 C0.727645306,11.8225867 0.736028316,11.8094964 0.744746647,11.7960704 C0.788673621,11.7282692 0.834612519,11.6618105 0.881892697,11.5970302 C0.899329359,11.573199 0.917101341,11.5490323 0.935543964,11.5252011 C1.03077496,11.4000038 1.13204173,11.2801769 1.23900894,11.1663917 C1.2497392,11.1553152 1.26046945,11.1435675 1.27153502,11.1321554 C1.2876304,11.1153729 1.3040611,11.0985905 1.32082712,11.081808 C1.33725782,11.0650255 1.3533532,11.0489143 1.37045455,11.0321318 C1.38152012,11.0210554 1.39258569,11.0103146 1.40398659,10.9999095 C1.41471684,10.988833 1.42578241,10.9780922 1.43718331,10.9680228 C1.4485842,10.9569463 1.4599851,10.9465412 1.47172131,10.9358004 C1.48312221,10.9250596 1.49485842,10.9146545 1.50625931,10.9042493 C1.55253353,10.8626288 1.59981371,10.8216795 1.64709389,10.7814016 C1.65581222,10.7746886 1.66385991,10.7676399 1.67257824,10.7605913 C1.68431446,10.7511931 1.69538003,10.7417949 1.70711624,10.7323967 C1.73226528,10.7122577 1.75774963,10.6921188 1.7835693,10.6723154 C1.7869225,10.6699659 1.78994039,10.6672807 1.79329359,10.6649311 C1.81777198,10.6457991 1.84258569,10.6273384 1.86773472,10.6088777 L1.87377049,10.6045142 C1.90160209,10.5837039 1.929769,10.563565 1.95793592,10.5440973 C1.98677347,10.5239583 2.01527571,10.5044906 2.04444858,10.4853586 C2.05886736,10.4752891 2.07362146,10.4662266 2.08804024,10.4564927 C2.10279434,10.4467589 2.11788376,10.4376964 2.13230253,10.4282982 L2.13766766,10.4249417 C2.16382265,10.4084948 2.18997765,10.392048 2.21680328,10.3756012 C2.2204918,10.3735873 2.22384501,10.3712377 2.22753353,10.3692238 C2.25067064,10.3554622 2.27347243,10.3420362 2.29694486,10.3282746 C2.30532787,10.3235755 2.31371088,10.3188764 2.32209389,10.3138416 C2.34757824,10.2994087 2.37339791,10.2849758 2.39921759,10.2712141 C2.53804024,10.1960286 2.68122206,10.1272205 2.82742176,10.0664679 C2.84351714,10.0597549 2.8592772,10.0530419 2.87604322,10.0466645 C2.89280924,10.0396159 2.90957526,10.0332386 2.92600596,10.0265256 C2.9578614,10.0137709 2.99005216,10.0020231 3.02224292,9.9902754 C3.03900894,9.98423371 3.05577496,9.97785637 3.07254098,9.97215033 C3.08897168,9.96677993 3.10540238,9.96107389 3.12216841,9.95536784 C3.13859911,9.9496618 3.15570045,9.94429141 3.17213115,9.93892101 C3.17280179,9.93858536 3.17313711,9.93824971 3.17380775,9.93824971 C3.17615499,9.93757841 3.17783159,9.93657147 3.18017884,9.93590017 C3.60570045,9.78485784 4.02082712,9.70564452 4.40510432,9.70262368 C4.50938897,9.70161673 4.61132638,9.70665147 4.71058122,9.71705661 C4.7907228,9.72544785 4.86918778,9.73753124 4.94497019,9.75397807 C5.31650522,9.83151313 5.6397541,9.998331 5.88722057,10.2604734 C6.04850969,10.4309834 6.16788376,10.6313662 6.24701937,10.8532306 C6.30368852,11.0116572 6.33990313,11.1808246 6.35666915,11.3590546 C6.36002235,11.3929552 6.40394933,11.403696 6.42205663,11.3751658 C6.42675112,11.3677815 6.4314456,11.3603972 6.43580477,11.3526772 C6.47939642,11.2835334 6.52399404,11.2153965 6.56624441,11.1459171 L6.68964232,10.9351291 C6.84992548,10.6518408 6.99578987,10.3628465 7.12455291,10.0674748 C7.25163934,9.7710962 7.36296572,9.46934719 7.45886736,9.16390603 C7.84012668,7.9401275 7.95916542,6.65492509 7.87902385,5.38818341 C7.83945604,4.75447692 7.75059613,4.12412693 7.6188152,3.50619597 C7.55376304,3.19773397 7.47630402,2.89195716 7.38912072,2.59289334 C7.34552906,2.44352926 7.29925484,2.29550778 7.25029806,2.15151409 C7.22581967,2.07934942 7.20067064,2.008863 7.17518629,1.93971918 L7.13695976,1.83969559 L7.1178465,1.79304029 L7.10879285,1.77223001 C7.10745156,1.76887352 7.10611028,1.76719527 7.10510432,1.76451007 L7.1030924,1.76081793 C7.1030924,1.76148923 7.1030924,1.76283182 7.1030924,1.76350312 C6.87675112,1.06266671 7.260693,0.311147201 7.96084203,0.0842480556 C8.489307,-0.086597603 9.04694486,0.0906253984 9.38528316,0.489041502 C9.3859538,0.489377152 9.3859538,0.489377152 9.38561848,0.489712801 L9.38628912,0.490048451 C9.49627422,0.619273556 9.58278689,0.771658485 9.63811475,0.942839793 L9.64314456,0.960964873 L9.64616244,0.97271261 L9.65186289,0.995201135 L9.66125186,1.03615039 L9.67801788,1.1126785 C9.68874814,1.16302595 9.69847243,1.21169514 9.70819672,1.26002869 C9.72630402,1.35669578 9.74340537,1.45168462 9.75916542,1.54600217 C9.79035022,1.73463726 9.81650522,1.92125845 9.83897168,2.10787964 C9.86143815,2.29416518 9.88088674,2.48011507 9.89597615,2.66539366 C9.91173621,2.85100791 9.92380775,3.03662215 9.93219076,3.22190074 C9.95801043,3.77236612 9.95499255,4.32249586 9.92146051,4.87061169 C9.91140089,5.06226763 9.89597615,5.25123837 9.87719821,5.43987345 Z" id="path-8"></path>
        <filter x="0.0%" y="-0.0%" width="100.0%" height="100.0%" filterUnits="objectBoundingBox" id="filter-9">
            <feOffset dx="0" dy="0" in="SourceAlpha" result="shadowOffsetOuter1"></feOffset>
            <feColorMatrix values="0 0 0 0 1   0 0 0 0 1   0 0 0 0 1  0 0 0 1 0" type="matrix" in="shadowOffsetOuter1"></feColorMatrix>
        </filter>
        <path d="M15.2892697,19.0729542 C15.0535395,22.0028398 12.4615127,24.1969814 9.53550671,23.9459155 C8.72470194,23.8761003 7.97123696,23.6270483 7.3116617,23.2410513 C7.28617735,23.225947 7.260693,23.2111784 7.23554396,23.1957386 C7.21944858,23.1860047 7.20301788,23.1759352 7.1869225,23.1655301 C7.16982116,23.155125 7.15271982,23.1443842 7.1359538,23.1336434 C7.09403875,23.1071271 7.05279434,23.0796038 7.01188525,23.0520805 C6.98774218,23.0356337 6.96393443,23.0191869 6.94012668,23.0020687 C6.91732489,22.9862932 6.8945231,22.9698464 6.87172131,22.9530639 C6.82511177,22.9194989 6.77883756,22.8845914 6.7335693,22.8493481 C6.72015648,22.838943 6.70674367,22.8285379 6.69333085,22.8177971 C6.67824143,22.8060493 6.66315201,22.793966 6.64806259,22.7815469 C6.63029061,22.767114 6.61251863,22.7526811 6.59474665,22.7379125 C6.5923994,22.7358986 6.59005216,22.7342203 6.58804024,22.7322064 C6.57127422,22.7181091 6.55417288,22.7040119 6.53774218,22.6895789 C6.53036513,22.6832016 6.52298808,22.6768242 6.51527571,22.6704469 C6.4740313,22.634868 6.43345753,22.5982822 6.3935544,22.5616964 C6.39288376,22.5606895 6.39187779,22.5600182 6.39087183,22.5590112 C6.36974665,22.5395435 6.34895678,22.5200759 6.32850224,22.5002725 C6.30737705,22.4801336 6.28591654,22.4596589 6.265462,22.4391843 C6.24836066,22.4220662 6.23125931,22.404948 6.21382265,22.3874943 C6.2014158,22.3750752 6.18900894,22.3623205 6.17693741,22.3495659 C6.16385991,22.3361399 6.15044709,22.3220426 6.1373696,22.308281 C6.11892697,22.2891489 6.10081967,22.2693456 6.08304769,22.2498779 C6.04783905,22.2112782 6.01296572,22.1723429 5.97876304,22.1330718 C5.9616617,22.1129329 5.94422504,22.0927939 5.92678838,22.0723193 C5.91438152,22.057215 5.90163934,22.0421108 5.88923249,22.0270066 C5.87749627,22.0129093 5.86609538,21.9984763 5.85435917,21.9840434 C5.8369225,21.9625618 5.81948584,21.940409 5.8023845,21.9185917 C5.78830104,21.9004667 5.77421759,21.8820059 5.76013413,21.8635452 C5.74638599,21.8454201 5.73263785,21.8269594 5.71888972,21.8088343 C5.7185544,21.808163 5.71821908,21.8078274 5.71821908,21.8074917 C5.70447094,21.7886953 5.6907228,21.7705703 5.67730999,21.7517739 C5.65685544,21.722908 5.63606557,21.6940421 5.61594635,21.6648406 C5.59582712,21.6359748 5.57604322,21.6064376 5.55659463,21.5769004 C5.49791356,21.4879533 5.44191505,21.3979992 5.38859911,21.3056955 C5.37082712,21.2748158 5.35339046,21.243936 5.3359538,21.2130562 C5.31885246,21.1821765 5.30208644,21.1506254 5.28532042,21.1190743 C5.26888972,21.0875233 5.25245902,21.0563079 5.23669896,21.0244211 C5.2209389,20.9928701 5.20517884,20.9606477 5.1897541,20.9284253 C5.17466468,20.8968743 5.15991058,20.8649876 5.14515648,20.8327652 C5.14482116,20.8320939 5.14415052,20.8307513 5.1438152,20.8297444 C5.1307377,20.8005428 5.11766021,20.7710057 5.10491803,20.7414685 C5.10324143,20.7374407 5.10122951,20.7330773 5.09955291,20.7287138 C5.08647541,20.6978341 5.07339791,20.6666186 5.06065574,20.6350676 C5.03483607,20.5712941 5.01035768,20.5071851 4.98722057,20.4424047 C4.98487332,20.435356 4.98219076,20.4286431 4.97984352,20.4219301 C4.97146051,20.3977633 4.96274218,20.3739322 4.95502981,20.3497654 C4.95134128,20.3393603 4.94798808,20.3292908 4.94497019,20.3192213 C4.93591654,20.2930406 4.92753353,20.2661886 4.91915052,20.2396723 C4.90707899,20.2020796 4.89567809,20.1648225 4.88494784,20.126894 C4.88092399,20.1131324 4.87723547,20.0997064 4.87321162,20.0859448 C4.84605067,19.989949 4.8219076,19.8929463 4.80044709,19.7952722 C4.79776453,19.7831888 4.79508197,19.7707698 4.7923994,19.7586864 C4.78871088,19.740897 4.78502235,19.7231075 4.78133383,19.7053181 C4.77764531,19.6885356 4.77462742,19.6717532 4.77127422,19.654635 C4.76758569,19.6358386 4.76423249,19.6170423 4.76087928,19.5979102 C4.75752608,19.5804565 4.7545082,19.5630027 4.75149031,19.5452132 C4.74880775,19.5304447 4.74646051,19.5156761 4.74411326,19.5009075 C4.74076006,19.4790903 4.73707154,19.4576087 4.73405365,19.4357915 C4.73371833,19.4351202 4.73371833,19.4344489 4.73371833,19.4337776 C4.73137109,19.4163238 4.72868852,19.39887 4.72634128,19.3817519 C4.72265276,19.3559069 4.71929955,19.3297262 4.71594635,19.3038812 C4.71292846,19.2797144 4.70991058,19.255212 4.70756334,19.2307095 C4.70488077,19.2072141 4.70253353,19.1837186 4.70052161,19.1605588 C4.69918033,19.1467971 4.69783905,19.1326999 4.69649776,19.1189382 C4.69448584,19.0951071 4.69247392,19.0719473 4.69079732,19.0481162 C4.68845007,19.0202572 4.68677347,18.9923983 4.68509687,18.9645394 C4.68375559,18.9410439 4.68241431,18.9168772 4.68140835,18.893046 C4.68107303,18.8903608 4.68107303,18.8880113 4.68107303,18.8853261 C4.68040238,18.8668654 4.67939642,18.848069 4.6790611,18.8296082 C4.67594251,18.7440176 4.67537258,18.6584269 4.67637854,18.572165 C4.67704918,18.545313 4.6773845,18.5187967 4.67839046,18.4919447 C4.6807377,18.4130671 4.68476155,18.3338538 4.690462,18.2543048 C4.69482116,18.1959018 4.70018629,18.13817 4.70622206,18.0804383 C4.70789866,18.0629845 4.70991058,18.0455307 4.7119225,18.0284126 C4.71259314,18.0227066 4.71326379,18.0173362 4.71393443,18.0112945 C4.71594635,17.993505 4.71829359,17.9757156 4.72064083,17.9579262 C4.73237705,17.8652869 4.74679583,17.7733189 4.76356185,17.6820222 C4.76691505,17.6632258 4.77026826,17.6447651 4.77395678,17.6259687 C4.77730999,17.607508 4.78133383,17.5887116 4.78502235,17.5702509 C4.78837556,17.553804 4.79172876,17.5370215 4.79541729,17.5205747 C4.79977645,17.5001001 4.80413562,17.4796255 4.80916542,17.4591508 C4.81352459,17.4406901 4.81754844,17.422565 4.8219076,17.4041043 C4.84437407,17.3091155 4.8695231,17.2154692 4.89701937,17.1228299 C4.90137854,17.1080613 4.9057377,17.0932927 4.91043219,17.0785242 C4.91613264,17.0607347 4.92149776,17.0429453 4.92719821,17.0251559 C4.93289866,17.0073664 4.93859911,16.989577 4.94463487,16.9717876 C4.95033532,16.9543338 4.95637109,16.9365444 4.96240686,16.9190906 C4.9681073,16.9013012 4.97447839,16.8838474 4.98084948,16.8663936 C4.99292101,16.8311504 5.00566319,16.7965785 5.01907601,16.7616709 C5.02578241,16.7442171 5.03248882,16.7267634 5.03885991,16.7099809 C5.04556632,16.6928627 5.05227273,16.6757446 5.05931446,16.6586265 C5.09385246,16.5727002 5.13040238,16.4881165 5.16896423,16.4048754 C5.1766766,16.3884285 5.18438897,16.3716461 5.19243666,16.3548636 C5.23267511,16.2702799 5.27492548,16.1870388 5.3195231,16.1051403 C5.33628912,16.0745961 5.35271982,16.0443877 5.37015648,16.0145149 C5.46035768,15.8557526 5.55860656,15.7026964 5.66389717,15.5550105 C5.6742921,15.5402419 5.68502235,15.5254734 5.69575261,15.5107048 C5.72794337,15.4667347 5.76046945,15.4234359 5.79366617,15.3808084 C5.80473174,15.3663754 5.81579732,15.3522781 5.82719821,15.3381809 C5.83826379,15.3240836 5.84932936,15.3099863 5.86073025,15.2962247 C5.87213115,15.2821274 5.88353204,15.2680301 5.89526826,15.2539328 C5.90666915,15.2401712 5.91840537,15.2260739 5.93014158,15.2123123 C5.99586438,15.1344415 6.06426975,15.0579134 6.13435171,14.9840705 C6.63029061,14.5037559 7.16311475,14.1197727 7.69560358,13.845547 C7.69627422,13.8452113 7.69694486,13.8448757 7.6976155,13.84454 C7.72410581,13.8317853 7.75059613,13.8193663 7.77742176,13.8069473 C7.80458271,13.7945282 7.83174367,13.7821092 7.85957526,13.7700258 C7.87902385,13.7616346 7.89813711,13.7532433 7.91792101,13.7448521 C7.92798063,13.7404887 7.93871088,13.7357896 7.94910581,13.7317618 C7.97459016,13.7206853 8.00074516,13.7102802 8.02656483,13.699875 C8.05171386,13.6898056 8.07652757,13.6800717 8.1016766,13.6706735 C8.1016766,13.6706735 8.10201192,13.6706735 8.10201192,13.6706735 C8.12213115,13.6619466 8.14292101,13.654898 8.16371088,13.6475137 C8.20428465,13.6327451 8.24519374,13.6179765 8.28677347,13.6042149 C8.31359911,13.5951524 8.34076006,13.5864255 8.36792101,13.5776986 C8.38938152,13.5706499 8.41084203,13.563937 8.43263785,13.557224 C8.43330849,13.5568883 8.43364382,13.5568883 8.43464978,13.5565527 C8.45175112,13.5515179 8.46851714,13.5461475 8.48561848,13.5414484 C8.51043219,13.5340641 8.53558122,13.5266798 8.56073025,13.5196312 C8.58386736,13.5129182 8.60700447,13.5068765 8.6304769,13.5008348 C8.68882265,13.4853949 8.74716841,13.470962 8.8061848,13.4572004 C8.80685544,13.4568647 8.80752608,13.4572004 8.80819672,13.4568647 C8.83804024,13.4498161 8.86788376,13.4437744 8.89806259,13.437397 C8.92153502,13.4323623 8.94534277,13.4276632 8.96915052,13.4229641 C8.97887481,13.4209502 8.98859911,13.419272 8.9983234,13.4172581 C9.02514903,13.4122233 9.05197466,13.4071886 9.0788003,13.4024895 C9.07947094,13.4021538 9.0804769,13.4024895 9.08114754,13.4021538 C9.19649776,13.3823505 9.31285395,13.3659037 9.4302161,13.3538203 C9.97846498,13.3380448 10.4747392,13.4793532 10.8663934,13.7965421 C11.0783159,13.9677234 11.2463115,14.1795184 11.3710507,14.4228643 C11.552459,14.7736182 11.6450075,15.1908307 11.6527198,15.6479855 C11.6537258,15.7013538 11.7285022,15.7124302 11.7442623,15.6614114 L11.7492921,15.6453003 L11.8445231,15.3002525 L11.8918033,15.1280642 L11.9330477,14.9541977 C11.9598733,14.8383986 11.9893815,14.7232708 12.0138599,14.607136 C12.0722057,14.3345885 12.1214978,14.061034 12.1627422,13.787144 C12.1801788,13.6730231 12.1959389,13.5592379 12.210693,13.4454526 C12.2207526,13.366575 12.2301416,13.2876973 12.2391952,13.2091553 C12.2428838,13.1725695 12.2465723,13.1359837 12.2499255,13.0993979 C12.2911699,12.6684238 12.3089419,12.2374496 12.305924,11.8084894 C12.3029061,11.6923546 12.3029061,11.5758842 12.2978763,11.4600851 L12.2790984,11.1126877 C12.27038,10.9972243 12.2589791,10.8820965 12.2489195,10.7669686 C12.246237,10.7381028 12.244225,10.7092369 12.2408718,10.6807067 L12.2301416,10.5947804 L12.2090164,10.4229278 C12.1486587,9.96577298 12.0611401,9.51365294 11.9474665,9.06992414 C11.7197839,8.18246653 11.3847988,7.32823824 10.9609538,6.52335044 C10.6574888,5.94737569 10.3100969,5.39523205 9.92447839,4.87262559 C9.7719076,4.66552977 9.61330104,4.46246175 9.44865872,4.26476412 C9.15994784,3.91669546 8.85346498,3.58406668 8.53457526,3.27023429 C8.37496274,3.11382156 8.2116617,2.96210793 8.04668405,2.81777859 C7.96419523,2.74628522 7.88103577,2.67546315 7.79888227,2.60900453 L7.73718331,2.55966403 C7.71672876,2.5432172 7.69660954,2.52744167 7.67682563,2.51200179 L7.61814456,2.46769603 L7.59165425,2.44822836 C7.58695976,2.44453621 7.58360656,2.44285796 7.58025335,2.44050842 L7.57522355,2.43681627 C7.57488823,2.43681627 7.57488823,2.43681627 7.57488823,2.43681627 C7.57488823,2.43715192 7.57522355,2.43748757 7.57522355,2.43748757 C7.00383756,1.97429109 6.91564829,1.13550268 7.37771982,0.563555718 C7.6630775,0.210116665 8.09161699,0.0409492541 8.51277943,0.0721646691 L8.51311475,0.0721646691 C8.77432936,0.0912966977 9.03219076,0.18762814 9.25149031,0.364851141 L9.27060358,0.381633622 L9.28301043,0.39271006 L9.3071535,0.414527285 L9.35007452,0.45480524 L9.38830104,0.491726699 C9.38897168,0.492062349 9.38897168,0.492062349 9.38863636,0.492397998 L9.389307,0.492733648 L9.42988077,0.531669004 C9.45570045,0.557178376 9.48152012,0.582352097 9.50599851,0.60719017 L9.58010432,0.682040036 C9.6783532,0.781727974 9.77123696,0.882087212 9.86345007,0.982782099 C10.0461997,1.18383622 10.2209016,1.38824684 10.3899031,1.59634961 C10.7265648,2.01255514 11.0397541,2.44252231 11.3298063,2.88625112 C11.9105812,3.77337307 12.3998137,4.71721981 12.7830849,5.70168016 C13.1660209,6.68580486 13.438301,7.71255706 13.5824888,8.75273524 C13.6545827,9.27265651 13.6948212,9.79593427 13.7042101,10.3175338 L13.7062221,10.5132175 L13.707228,10.6108916 C13.7068927,10.6434496 13.7058867,10.6760076 13.7052161,10.7085656 C13.7021982,10.8387977 13.699851,10.9686941 13.6948212,11.0985905 L13.6716841,11.4876084 C13.6626304,11.6168335 13.6482116,11.7457229 13.6364754,11.8746124 C13.5818182,12.3894989 13.5,12.899015 13.3893443,13.4001399 C13.3685544,13.4907653 13.3470939,13.5813907 13.3249627,13.6720161 C13.2964605,13.7878152 13.266617,13.9032787 13.2357675,14.0180709 C13.2304024,14.0382099 13.2250373,14.0580132 13.2193368,14.0781522 C13.1740686,14.2436274 13.2287258,14.4208504 13.3611773,14.5296009 C13.3812966,14.5460477 13.4010805,14.5628302 13.4208644,14.5796127 C13.5144188,14.658826 13.6049553,14.7410602 13.6928092,14.8259795 C14.789307,15.8930097 15.4217213,17.4242433 15.2892697,19.0729542 Z" id="path-10"></path>
        <filter x="-0.0%" y="0.0%" width="100.0%" height="100.0%" filterUnits="objectBoundingBox" id="filter-11">
            <feOffset dx="0" dy="0" in="SourceAlpha" result="shadowOffsetOuter1"></feOffset>
            <feColorMatrix values="0 0 0 0 1   0 0 0 0 1   0 0 0 0 1  0 0 0 1 0" type="matrix" in="shadowOffsetOuter1"></feColorMatrix>
        </filter>
        <path d="M4.72734724,1.20296825 C5.05126677,1.11032896 5.32086438,1.02708785 6.09612519,0.97271261 C6.34325633,0.95525883 6.50957526,1.07575704 6.58804024,1.27311902 C6.74564083,1.67119948 6.71345007,2.16594702 6.69534277,2.62679396 C6.60614754,4.86926909 4.7759687,6.61699668 2.60745156,6.53073473 C1.96631893,6.50522536 1.36743666,6.32196067 0.84400149,6.01886906 C0.777943368,5.980605 0.742734724,5.90575513 0.753800298,5.83023397 C1.08241431,3.58641623 2.67216841,1.79069074 4.72734724,1.20296825 Z" id="path-12"></path>
        <filter x="-0.0%" y="-0.0%" width="100.0%" height="100.0%" filterUnits="objectBoundingBox" id="filter-13">
            <feOffset dx="0" dy="0" in="SourceAlpha" result="shadowOffsetOuter1"></feOffset>
            <feColorMatrix values="0 0 0 0 1   0 0 0 0 1   0 0 0 0 1  0 0 0 1 0" type="matrix" in="shadowOffsetOuter1"></feColorMatrix>
        </filter>
        <path d="M5.71419523,0.432988015 C5.78025335,0.467224276 5.84530551,0.503474436 5.90901639,0.541067194 C5.92544709,0.550801033 5.94187779,0.560534872 5.95830849,0.570604361 C5.96132638,0.572282609 5.96400894,0.573960857 5.96702683,0.575974755 C5.9650149,0.575974755 5.96266766,0.575974755 5.96065574,0.575639105 C5.91605812,0.574632156 5.87179583,0.574296506 5.82753353,0.574632156 C5.6397541,0.575303455 5.45398659,0.586044243 5.27090164,0.606183221 C5.01639344,0.634042139 4.76657973,0.679690488 4.52313711,0.742456968 C4.39906855,0.774343682 4.2766766,0.810593842 4.15596125,0.851207446 C4.01277943,0.899205342 3.8726155,0.953580581 3.73479881,1.01332621 C1.92540984,1.79673244 0.776266766,3.60789781 0.571050671,5.73021038 C0.567697466,5.76511794 0.520081967,5.77317353 0.505663189,5.74095117 C0.260543964,5.19518488 -0.0164307004,4.54905935 0.00838301043,3.92407975 C0.0727645306,2.30658422 1.04016393,0.94586064 2.38748137,0.341355667 C2.3911699,0.339677419 2.39519374,0.337999171 2.39888227,0.336320923 C2.40122951,0.335313974 2.40324143,0.334307025 2.40558867,0.333300077 C2.47030551,0.304769858 2.535693,0.277917889 2.60208644,0.252744167 C3.07052906,0.0755211654 3.57921013,-0.0124190361 4.10801043,0.00872689022 C4.52112519,0.0251737218 4.91646796,0.10707223 5.28599106,0.243681627 C5.4328614,0.298728165 5.57604322,0.361830295 5.71419523,0.432988015 Z" id="path-14"></path>
        <filter x="-0.0%" y="-0.0%" width="100.0%" height="100.0%" filterUnits="objectBoundingBox" id="filter-15">
            <feOffset dx="0" dy="0" in="SourceAlpha" result="shadowOffsetOuter1"></feOffset>
            <feColorMatrix values="0 0 0 0 1   0 0 0 0 1   0 0 0 0 1  0 0 0 1 0" type="matrix" in="shadowOffsetOuter1"></feColorMatrix>
        </filter>
    </defs>
    <g id="Echosystem" stroke="none" stroke-width="1" fill="none" fill-rule="evenodd">
        <g id="Artboard" transform="translate(-217.000000, -145.000000)">
            <g id="Hurradev" transform="translate(217.000000, 145.000000)">
                <g id="Hurra-Device-Iso-2">
                    <g id="Hurra-Device">
                        <g id="Group-2">
                            <g id="Group">
                                <polyline id="Fill-7" fill="#D1E9F2" points="79.14412 34.1486364 79.1433021 34.1486364 80.049528 33.7559091 80.049528 33.7565227 79.14412 34.1486364"></polyline>
                                <polyline id="Fill-12" fill="#D1E9F2" points="56.9270063 44.9704818 56.9262295 44.9704818 57.7868852 44.6567909 56.9270063 44.9704818"></polyline>
                                <g id="Group-223" transform="translate(48.073770, 24.686364)">
                                    <mask id="mask-2" fill="white">
                                        <use xlink:href="#path-1"></use>
                                    </mask>
                                    <g id="Clip-222"></g>
                                    <path d="M1.64770121,82.0569024 L1.64770121,27.1251638 C1.64770121,26.1983826 1.32539372,25.198533 0.80026116,24.3204639 L44.9098361,3.55271368e-14 C45.440869,0.882440659 45.7712895,1.88666188 45.7712895,2.81906379 L45.7712895,57.9747276 C45.7712895,58.9939372 45.3789152,59.7158773 44.7586392,60.0462461 L44.6716088,60.0930848 L44.6480073,60.1049506 L0.111393443,84.0681818 C0.693317028,83.7222001 1.64770121,83.03989 1.64770121,82.0569024 Z" id="Fill-221" fill="url(#linearGradient-3)" mask="url(#mask-2)"></path>
                                </g>
                                <g id="Group-226" transform="translate(0.983607, 0.000000)">
                                    <mask id="mask-5" fill="white">
                                        <use xlink:href="#path-4"></use>
                                    </mask>
                                    <g id="Clip-225"></g>
                                    <path d="M45.634813,46.9473908 L2.01176964,25.6265297 C1.57855767,25.4147331 1.16674799,25.3141453 0.792576832,25.3141453 C0.547557455,25.3141453 0.318036291,25.3578791 0.111393443,25.4409734 L45.214096,0.854428863 L45.214096,0.855053632 C45.4450932,0.746343856 45.7048727,0.689489893 45.9860546,0.689489893 C46.3587498,0.689489893 46.7690834,0.789452905 47.2015574,1 L89.7881835,22.5396579 C90.6575595,22.9651255 92,22.5396579 92,24.6863636 L75.3023218,34.7579934 L74.4846065,35.1578455 L56.735962,44.7700714 L55.9182467,45.1692987 L47.8576996,49.1090909 C47.2982879,48.1731872 46.509355,47.3747326 45.634813,46.9473908 Z" id="Fill-224" fill="url(#linearGradient-6)" mask="url(#mask-5)"></path>
                                </g>
                                <path d="M3.07342406,87.1189898 C1.37646863,86.2898206 0,84.065373 0,82.1502235 L0,27.4550543 C0,25.5405297 1.37646863,24.6601233 3.07342406,25.4892924 L46.7223964,46.8127478 C48.4186133,47.6419169 49.795082,49.8663646 49.795082,51.781514 L49.795082,106.476058 C49.795082,108.391833 48.4186133,109.271614 46.7223964,108.442445 L3.07342406,87.1189898 Z" id="Fill-227" fill="#CD8097"></path>
                                <path d="M5.7606012,87.0552165 C4.27653148,86.3317982 3.07377049,84.3904177 3.07377049,82.7196955 L3.07377049,31.8284623 C3.07377049,30.1577401 4.27653148,29.38942 5.7606012,30.113462 L43.9115299,48.7177861 C45.3955997,49.4412045 46.5983607,51.3819613 46.5983607,53.0526834 L46.5983607,103.943917 C46.5983607,105.615262 45.3955997,106.382959 43.9115299,105.659541 L5.7606012,87.0552165 Z" id="Fill-236" fill="#521727"></path>
                                <path d="M7.00850186,86.4366185 C5.52457557,85.7131879 4.32133221,83.7711508 4.32133221,82.1010239 L4.32133221,31.2083023 C4.32133221,30.6389125 4.46388959,30.1774136 4.70690191,29.8409091 C3.74667086,29.8344077 3.07377049,30.5790424 3.07377049,31.8282075 L3.07377049,82.7203054 C3.07377049,84.391056 4.27701385,86.3324694 5.76167878,87.0559001 L43.9279082,105.66054 C44.9058666,106.13763 45.758995,105.963009 46.2295082,105.312545 C45.9059842,105.310674 45.5492214,105.223364 45.1747313,105.041259 L7.00850186,86.4366185 Z" id="Fill-237" fill="#821938"></path>
                                <path d="M43.9125974,82.2947092 L29.738351,75.3727273 L7.13114754,86.4124395 L46.5983607,105.686364 L46.5983607,86.634682 C46.5983607,84.96162 45.3960775,83.0188704 43.9125974,82.2947092" id="Fill-239" fill="#521727"></path>
                                <path d="M43.9125974,65.4812154 L29.738351,58.5590909 L7.13114754,69.5990305 L46.5983607,88.8727273 L46.5983607,69.8212776 C46.5983607,68.1481811 45.3960775,66.2053915 43.9125974,65.4812154" id="Fill-240" fill="#521727"></path>
                                <path d="M43.9125974,48.6960875 L29.738351,41.7454545 L7.13114754,52.8304888 L46.5983607,72.1818182 L46.5983607,53.0536311 C46.5983607,51.3737955 45.3960775,49.4231805 43.9125974,48.6960875" id="Fill-241" fill="#521727"></path>
                                <path d="M43.9125974,48.6421063 L12.532196,33.2772727 L7.13114754,35.9217416 L46.5983607,55.2454545 L46.5983607,52.9934311 C46.5983607,51.3159929 45.3960775,49.3681616 43.9125974,48.6421063" id="Fill-242" fill="#521727"></path>
                                <polyline id="Fill-243" fill="#874257" points="46.5983607 55.2047642 7.13114754 35.9772727 7.13114754 46.5731313 46.5983607 65.8 46.5983607 55.2047642"></polyline>
                                <polyline id="Fill-244" fill="#874257" points="46.5983607 72.1407263 7.13114754 52.9136364 7.13114754 63.5092737 46.5983607 82.7363636 46.5983607 72.1407263"></polyline>
                                <polyline id="Fill-245" fill="#874257" points="46.5983607 88.9107592 7.13114754 69.6045455 7.13114754 80.2444116 46.5983607 99.55 46.5983607 88.9107592"></polyline>
                                <path d="M43.1150597,62.0875872 L13.4423174,47.6473641 C12.6054487,47.2393816 11.9262295,46.1458393 11.9262295,45.2038156 L11.9262295,42.3746397 C11.9262295,41.433237 12.6054487,41.0004153 13.4423174,41.4077769 L43.1150597,55.8486209 C43.9519284,56.2559825 44.6311475,57.3501458 44.6311475,58.2909275 L44.6311475,61.1207244 C44.6311475,62.0627481 43.9519284,62.4949488 43.1150597,62.0875872" id="Fill-248" fill="#6B172F"></path>
                                <path d="M43.2526621,62.2409091 C43.1975005,62.2209144 43.1423389,62.1971706 43.0857063,62.1696778 L13.4609798,47.6397539 C12.6254653,47.229237 11.9473453,46.1289018 11.9473453,45.1810264 C11.9473453,46.1289018 12.6254653,47.229237 13.4609798,47.6397539 L43.0857063,62.1696778 C43.1423389,62.1971706 43.1975005,62.2209144 43.2526621,62.2409091 M11.9473453,42.3377126 C11.9473453,41.6622342 12.3007081,41.2575476 12.8067069,41.2545455 C12.3007081,41.2575476 11.9473453,41.6622342 11.9473453,42.3377126" id="Fill-249" fill="#3F5F90"></path>
                                <path d="M43.7655593,62.2409091 C43.6312567,62.2409091 43.486623,62.2148267 43.335348,62.159557 C43.2800035,62.1396847 43.224659,62.1160864 43.1678386,62.088762 L13.444883,47.6478287 C12.6065981,47.2398261 11.9262295,46.14623 11.9262295,45.20416 L11.9262295,42.3748449 C11.9262295,41.6762103 12.3003584,41.2576505 12.8360933,41.2545455 C12.8383071,41.2545455 12.8405209,41.2545455 12.8427347,41.2545455 C12.8434726,41.2545455 12.8442105,41.2545455 12.8449484,41.2545455 C13.0286922,41.2551665 13.2316221,41.3042261 13.444883,41.4079346 L13.4832552,41.4265648 C13.4507864,41.5495245 13.4279106,41.6824204 13.4279106,41.8327044 L13.4279106,44.6626405 C13.4279106,45.6040895 14.1082792,46.6976856 14.947302,47.1056882 L44.6311475,61.5279913 C44.5108655,61.9800855 44.1891294,62.2409091 43.7655593,62.2409091" id="Fill-250" fill="#6B172F"></path>
                                <path d="M33.768866,54.3316369 L15.9032652,45.5845423 C15.6076797,45.4401431 15.3688525,45.0532031 15.3688525,44.7187719 C15.3688525,44.3855909 15.6076797,44.2324402 15.9032652,44.3774645 L33.768866,53.1245591 C34.0637144,53.2689583 34.3032787,53.6558983 34.3032787,53.9897044 C34.3032787,54.3235105 34.0637144,54.4766612 33.768866,54.3316369" id="Fill-251" fill="#FFFFFE"></path>
                                <path d="M43.1150597,78.7784963 L13.4423174,64.3382804 C12.6054487,63.9296771 11.9262295,62.8367563 11.9262295,61.8947331 L11.9262295,59.0649376 C11.9262295,58.1241564 12.6054487,57.6913349 13.4423174,58.0986963 L43.1150597,72.5395332 C43.9519284,72.9468946 44.6311475,74.0410573 44.6311475,74.9818386 L44.6311475,77.811634 C44.6311475,78.7536572 43.9519284,79.1858577 43.1150597,78.7784963" id="Fill-252" fill="#6B172F"></path>
                                <path d="M43.3013125,78.9318182 C43.2622105,78.9155453 43.2223707,78.8980207 43.1825309,78.8786184 L13.4657177,64.3244076 C12.627606,63.9125786 11.947378,62.81103 11.947378,61.8615702 C11.947378,62.81103 12.627606,63.9125786 13.4657177,64.3244076 L43.1825309,78.8786184 C43.2223707,78.8980207 43.2622105,78.9155453 43.3013125,78.9318182 M11.8825799,59.0165289 C11.8899573,58.5839838 12.0308656,58.2581114 12.2580894,58.0681818 C12.0308656,58.2581114 11.8899573,58.5839838 11.8825799,59.0165289" id="Fill-253" fill="#3F5F90"></path>
                                <path d="M43.7655593,78.9318182 C43.6201878,78.9318182 43.4622714,78.9007678 43.2962379,78.8361829 C43.2940241,78.8349408 43.2925482,78.8343198 43.2903345,78.8336988 C43.2888586,78.8330778 43.2881207,78.8324568 43.2866448,78.8324568 C43.2475347,78.8163106 43.2076866,78.7989223 43.1678386,78.7796711 L13.444883,64.3387378 C12.6065981,63.9301141 11.9262295,62.8371391 11.9262295,61.8950691 L11.9262295,59.065133 C11.9262295,59.0539548 11.9262295,59.0421557 11.9262295,59.0309775 C11.9336088,58.6180068 12.0745528,58.3068815 12.3018343,58.125547 C12.3025722,58.124926 12.3025722,58.124926 12.3033101,58.124926 C12.3040481,58.123684 12.3055239,58.123063 12.3062618,58.122442 C12.4531093,58.0069344 12.6353772,57.9454545 12.8419967,57.9454545 C13.0272164,57.9454545 13.2308842,57.9951352 13.444883,58.0994647 L13.4832552,58.1174739 C13.4507864,58.2404336 13.4279106,58.3733295 13.4279106,58.5236135 L13.4279106,61.3535496 C13.4279106,62.2956196 14.1082792,63.3885947 14.947302,63.7965973 L44.6311475,78.2189003 C44.5108655,78.6709946 44.1891294,78.9318182 43.7655593,78.9318182" id="Fill-254" fill="#6B172F"></path>
                                <path d="M33.768866,71.0225563 L15.9032652,62.2754436 C15.6076797,62.131044 15.3688525,61.7441032 15.3688525,61.4102964 C15.3688525,61.0764896 15.6076797,60.9233386 15.9032652,61.0683632 L33.768866,69.815476 C34.0637144,69.9598756 34.3032787,70.3468164 34.3032787,70.6799981 C34.3032787,71.01443 34.0637144,71.167581 33.768866,71.0225563" id="Fill-255" fill="#FFFFFE"></path>
                                <path d="M43.1150597,95.7137903 L13.4423174,81.1892466 C12.6054487,80.7788817 11.9262295,79.6789539 11.9262295,78.7314295 L11.9262295,75.8857332 C11.9262295,74.9388334 12.6054487,74.5028598 13.4423174,74.9138493 L43.1150597,89.4383929 C43.9519284,89.8481332 44.6311475,90.9486856 44.6311475,91.8955854 L44.6311475,94.7412817 C44.6311475,95.6881815 43.9519284,96.1241552 43.1150597,95.7137903" id="Fill-256" fill="#6B172F"></path>
                                <path d="M11.9461585,75.7409091 C11.9461585,75.0508743 12.2796254,74.6375882 12.7572234,74.6363636 C12.2796254,74.6375882 11.9461585,75.0508743 11.9461585,75.7409091" id="Fill-257" fill="#3F5F90"></path>
                                <path d="M43.7655593,95.8681818 C43.5825535,95.8681818 43.3803615,95.8188352 43.1678386,95.715145 L13.444883,81.1897618 C12.6065981,80.7793732 11.9262295,79.6793818 11.9262295,78.7318026 L11.9262295,75.8859418 C11.9262295,75.1819723 12.3018343,74.7603402 12.8397829,74.7590909 C12.8405209,74.7590909 12.8412588,74.7590909 12.8419967,74.7590909 C12.8427347,74.7590909 12.8434726,74.7590909 12.8442105,74.7590909 C13.020575,74.7597155 13.2146498,74.8053143 13.4175797,74.9008842 C13.4271727,74.9052567 13.4360278,74.9096292 13.444883,74.9140017 L13.4832552,74.9327409 C13.4507864,75.0570443 13.4279106,75.189468 13.4279106,75.3406309 L13.4279106,78.1871163 C13.4279106,79.1346955 14.1082792,80.2340623 14.947302,80.6450755 L44.6311475,95.1510949 C44.5108655,95.6058329 44.1891294,95.8681818 43.7655593,95.8681818" id="Fill-258" fill="#6B172F"></path>
                                <path d="M33.768866,87.8365506 L15.9032652,79.0889599 C15.6076797,78.9451879 15.3688525,78.5576285 15.3688525,78.2238273 C15.3688525,77.8906513 15.6076797,77.7375028 15.9032652,77.8812748 L33.768866,86.6294906 C34.0637144,86.7732626 34.3032787,87.160822 34.3032787,87.4939981 C34.3032787,87.8277992 34.0637144,87.9809477 33.768866,87.8365506" id="Fill-259" fill="#D4EAF2"></path>
                                <path d="M10.1365471,48.1272727 L7.09513725,46.6407559 L10.1365471,48.1266615 L10.1365471,48.1272727 M10.1365471,37.5865169 L7.09513725,36.1 L10.1365471,37.5865169 L10.1365471,37.5859056" id="Fill-268" fill="#521727"></path>
                                <polyline id="Fill-269" fill="#263764" points="10.204918 37.45 7.13114754 35.9772727 10.204918 37.4493944"></polyline>
                                <polyline id="Fill-270" fill="#621D32" points="10.204918 48.1266542 7.13114754 46.6230905 7.13114754 36.1 10.204918 37.6041822 10.204918 48.1272727"></polyline>
                                <polyline id="Fill-271" fill="#263764" points="10.204918 64.9409091 7.13114754 63.4681818 10.204918 64.9403035 10.204918 64.9409091"></polyline>
                                <polyline id="Fill-272" fill="#621D32" points="10.204918 64.9402906 7.13114754 63.4367269 7.13114754 52.9136364 10.204918 54.4178186 10.204918 64.9409091"></polyline>
                                <polyline id="Fill-273" fill="#621D32" points="10.204918 81.7545455 7.13114754 80.2202968 7.13114754 69.4818182 10.204918 71.016698 10.204918 81.7545455"></polyline>
                                <polyline id="Fill-274" fill="#263764" points="10.204918 87.8909091 7.13114754 86.4181818 10.204918 87.8909091"></polyline>
                                <path d="M37.3770492,55.3629418 C37.3770492,55.6964825 37.1023028,55.8319834 36.7626556,55.6645999 C36.4222874,55.4984427 36.147541,55.0931662 36.147541,54.7596255 C36.147541,54.4266979 36.4222874,54.2911969 36.7626556,54.4573542 C37.1023028,54.6247377 37.3770492,55.0300142 37.3770492,55.3629418" id="Fill-279" fill="#D4EAF2"></path>
                                <path d="M39.9590164,56.7129418 C39.9590164,57.0464825 39.6835489,57.1819834 39.3439017,57.0145999 C39.0042546,56.8484427 38.7295082,56.4431662 38.7295082,56.1096255 C38.7295082,55.7766979 39.0042546,55.6411969 39.3439017,55.8073542 C39.6835489,55.9747377 39.9590164,56.3800142 39.9590164,56.7129418" id="Fill-280" fill="#DA3685"></path>
                                <path d="M42.6639344,57.9402186 C42.6639344,58.2737557 42.3884669,58.4092551 42.0488198,58.2418734 C41.7098938,58.075718 41.4344262,57.6698329 41.4344262,57.3362959 C41.4344262,57.0039851 41.7098938,56.8684857 42.0488198,57.0346411 C42.3884669,57.2020227 42.6639344,57.6072947 42.6639344,57.9402186" id="Fill-281" fill="#D4EAF2"></path>
                                <path d="M37.3770492,72.1767382 C37.3770492,72.5096658 37.1023028,72.6451667 36.7626556,72.4790095 C36.4222874,72.311626 36.147541,71.9063495 36.147541,71.5734219 C36.147541,71.2398812 36.4222874,71.1043802 36.7626556,71.2717637 C37.1023028,71.437921 37.3770492,71.8431975 37.3770492,72.1767382" id="Fill-282" fill="#DA3685"></path>
                                <path d="M39.9590164,73.4929784 C39.9590164,73.8562311 39.6835489,74.0040743 39.3439017,73.8221134 C39.0042546,73.6401526 38.7295082,73.1979609 38.7295082,72.8347082 C38.7295082,72.4707865 39.0042546,72.3229433 39.3439017,72.5055731 C39.6835489,72.686865 39.9590164,73.1290567 39.9590164,73.4929784" id="Fill-283" fill="#D4EAF2"></path>
                                <path d="M42.6639344,74.7542342 C42.6639344,75.0871582 42.3884669,75.2226576 42.0488198,75.0558891 C41.7098938,74.8891205 41.4344262,74.4838484 41.4344262,74.1503113 C41.4344262,73.8173873 41.7098938,73.6818878 42.0488198,73.8486564 C42.3884669,74.0154249 42.6639344,74.4206971 42.6639344,74.7542342" id="Fill-284" fill="#FFFFFE"></path>
                                <path d="M37.3770492,89.1133961 C37.3770492,89.4470117 37.1023028,89.5813165 36.7626556,89.415122 C36.4222874,89.2483142 36.147541,88.8429467 36.147541,88.5093311 C36.147541,88.1757155 36.4222874,88.0414107 36.7626556,88.2076053 C37.1023028,88.3744131 37.3770492,88.7797805 37.3770492,89.1133961" id="Fill-285" fill="#FFFFFE"></path>
                                <path d="M39.9590164,90.3406689 C39.9590164,90.6742845 39.6835489,90.8085893 39.3439017,90.6423947 C39.0042546,90.4755869 38.7295082,90.0702195 38.7295082,89.7366039 C38.7295082,89.4029883 39.0042546,89.2686835 39.3439017,89.434878 C39.6835489,89.6016858 39.9590164,90.0070533 39.9590164,90.3406689" id="Fill-286" fill="#DA3685"></path>
                                <path d="M42.6639344,91.6906689 C42.6639344,92.0242845 42.3884669,92.1585893 42.0488198,91.9923947 C41.7098938,91.8255869 41.4344262,91.4202195 41.4344262,91.0866039 C41.4344262,90.7529883 41.7098938,90.6186835 42.0488198,90.784878 C42.3884669,90.9510725 42.6639344,91.3570533 42.6639344,91.6906689" id="Fill-287" fill="#FFFFFE"></path>
                            </g>
                            <g id="Logo/Icon/White-2" transform="translate(65.007916, 50.564474)">
                                <g id="Logo/Icon/White" transform="translate(9.836066, 13.500000) rotate(5.000000) translate(-9.836066, -13.500000) translate(1.639344, 0.818182)"></g>
                            </g>
                            <g id="Group" filter="url(#filter-7)" transform="translate(68.254651, 51.512690)" fill-rule="nonzero">
                                <g id="Path">
                                    <g>
                                        <use fill="black" fill-opacity="1" filter="url(#filter-9)" xlink:href="#path-8"></use>
                                        <use fill="#FFFFFF" xlink:href="#path-8"></use>
                                    </g>
                                    <g>
                                        <use fill="black" fill-opacity="1" filter="url(#filter-11)" xlink:href="#path-10"></use>
                                        <use fill="#FFFFFF" xlink:href="#path-10"></use>
                                    </g>
                                </g>
                                <g transform="translate(0.000000, 1.611118)" id="Path">
                                    <g>
                                        <use fill="black" fill-opacity="1" filter="url(#filter-13)" xlink:href="#path-12"></use>
                                        <use fill="#FFFFFF" xlink:href="#path-12"></use>
                                    </g>
                                    <g>
                                        <use fill="black" fill-opacity="1" filter="url(#filter-15)" xlink:href="#path-14"></use>
                                        <use fill="#FFFFFF" xlink:href="#path-14"></use>
                                    </g>
                                </g>
                            </g>
                        </g>
                    </g>
                </g>
                <g id="icons8-db-file" transform="translate(104.000000, 56.000000)">
                    <path d="M14.88,31 L13.96,31 L13.96,26.8333333 L13.5,26.8333333 L13.5,26 L14.88,26 L14.88,31 Z M8.9,31 C8.164,31 7.52,30.4166667 7.52,29.75 L7.52,27.25 C7.52,26.5833333 8.164,26 8.9,26 C9.636,26 10.28,26.5833333 10.28,27.25 L10.28,29.75 C10.28,30.4166667 9.636,31 8.9,31 Z M8.9,26.8333333 C8.624,26.8333333 8.44,27 8.44,27.25 L8.44,29.75 C8.44,30 8.624,30.1666667 8.9,30.1666667 C9.176,30.1666667 9.36,30 9.36,29.75 L9.36,27.25 C9.36,27 9.176,26.8333333 8.9,26.8333333 Z M3.38,31 C2.644,31 2,30.4166667 2,29.75 L2,27.25 C2,26.5833333 2.644,26 3.38,26 C4.116,26 4.76,26.5833333 4.76,27.25 L4.76,29.75 C4.76,30.4166667 4.116,31 3.38,31 Z M3.38,26.8333333 C3.104,26.8333333 2.92,27 2.92,27.25 L2.92,29.75 C2.92,30 3.104,30.1666667 3.38,30.1666667 C3.656,30.1666667 3.84,30 3.84,29.75 L3.84,27.25 C3.84,27 3.656,26.8333333 3.38,26.8333333 Z M19.48,31 L18.56,31 L18.56,26.8333333 L18.1,26.8333333 L18.1,26 L19.48,26 L19.48,31 Z M23.62,31 C22.884,31 22.24,30.4166667 22.24,29.75 L22.24,27.25 C22.24,26.5833333 22.884,26 23.62,26 C24.356,26 25,26.5833333 25,27.25 L25,29.75 C25,30.4166667 24.356,31 23.62,31 Z M23.62,26.8333333 C23.344,26.8333333 23.16,27 23.16,27.25 L23.16,29.75 C23.16,30 23.344,30.1666667 23.62,30.1666667 C23.896,30.1666667 24.08,30 24.08,29.75 L24.08,27.25 C24.08,27 23.896,26.8333333 23.62,26.8333333 Z" id="Shape" fill="#FFFFFF" fill-rule="nonzero"></path>
                    <polygon id="Path" fill="#A2B584" fill-rule="nonzero" points="29 38 0 38 0 0 19.9375 0 29 9.04761905"></polygon>
                    <polygon id="Path" fill="#EBEFE3" fill-rule="nonzero" points="28 10 19 10 19 1"></polygon>
                    <path d="M19.5,23.3333333 L10.5,23.3333333 C9.67125,23.3333333 9,22.6372222 9,21.7777778 L9,20.2222222 C9,19.3627778 9.67125,18.6666667 10.5,18.6666667 L19.5,18.6666667 C20.32875,18.6666667 21,19.3627778 21,20.2222222 L21,21.7777778 C21,22.6372222 20.32875,23.3333333 19.5,23.3333333 Z M19.5,18.6666667 L10.5,18.6666667 C9.67125,18.6666667 9,17.9705556 9,17.1111111 L9,15.5555556 C9,14.6961111 9.67125,14 10.5,14 L19.5,14 C20.32875,14 21,14.6961111 21,15.5555556 L21,17.1111111 C21,17.9705556 20.32875,18.6666667 19.5,18.6666667 Z M19.5,28 L10.5,28 C9.67125,28 9,27.3038889 9,26.4444444 L9,24.8888889 C9,24.0294444 9.67125,23.3333333 10.5,23.3333333 L19.5,23.3333333 C20.32875,23.3333333 21,24.0294444 21,24.8888889 L21,26.4444444 C21,27.3038889 20.32875,28 19.5,28 Z" id="Shape" stroke="#FFFFFF" stroke-width="2"></path>
                </g>
                <g id="icons8-db-file" transform="translate(141.000000, 8.000000)">
                    <path d="M14.88,31 L13.96,31 L13.96,26.8333333 L13.5,26.8333333 L13.5,26 L14.88,26 L14.88,31 Z M8.9,31 C8.164,31 7.52,30.4166667 7.52,29.75 L7.52,27.25 C7.52,26.5833333 8.164,26 8.9,26 C9.636,26 10.28,26.5833333 10.28,27.25 L10.28,29.75 C10.28,30.4166667 9.636,31 8.9,31 Z M8.9,26.8333333 C8.624,26.8333333 8.44,27 8.44,27.25 L8.44,29.75 C8.44,30 8.624,30.1666667 8.9,30.1666667 C9.176,30.1666667 9.36,30 9.36,29.75 L9.36,27.25 C9.36,27 9.176,26.8333333 8.9,26.8333333 Z M3.38,31 C2.644,31 2,30.4166667 2,29.75 L2,27.25 C2,26.5833333 2.644,26 3.38,26 C4.116,26 4.76,26.5833333 4.76,27.25 L4.76,29.75 C4.76,30.4166667 4.116,31 3.38,31 Z M3.38,26.8333333 C3.104,26.8333333 2.92,27 2.92,27.25 L2.92,29.75 C2.92,30 3.104,30.1666667 3.38,30.1666667 C3.656,30.1666667 3.84,30 3.84,29.75 L3.84,27.25 C3.84,27 3.656,26.8333333 3.38,26.8333333 Z M19.48,31 L18.56,31 L18.56,26.8333333 L18.1,26.8333333 L18.1,26 L19.48,26 L19.48,31 Z M23.62,31 C22.884,31 22.24,30.4166667 22.24,29.75 L22.24,27.25 C22.24,26.5833333 22.884,26 23.62,26 C24.356,26 25,26.5833333 25,27.25 L25,29.75 C25,30.4166667 24.356,31 23.62,31 Z M23.62,26.8333333 C23.344,26.8333333 23.16,27 23.16,27.25 L23.16,29.75 C23.16,30 23.344,30.1666667 23.62,30.1666667 C23.896,30.1666667 24.08,30 24.08,29.75 L24.08,27.25 C24.08,27 23.896,26.8333333 23.62,26.8333333 Z" id="Shape" fill="#FFFFFF" fill-rule="nonzero"></path>
                    <polygon id="Path" fill="#A2B584" fill-rule="nonzero" points="29 38 0 38 0 0 19.9375 0 29 9.04761905"></polygon>
                    <polygon id="Path" fill="#EBEFE3" fill-rule="nonzero" points="28 10 19 10 19 1"></polygon>
                    <path d="M19.5,23.3333333 L10.5,23.3333333 C9.67125,23.3333333 9,22.6372222 9,21.7777778 L9,20.2222222 C9,19.3627778 9.67125,18.6666667 10.5,18.6666667 L19.5,18.6666667 C20.32875,18.6666667 21,19.3627778 21,20.2222222 L21,21.7777778 C21,22.6372222 20.32875,23.3333333 19.5,23.3333333 Z M19.5,18.6666667 L10.5,18.6666667 C9.67125,18.6666667 9,17.9705556 9,17.1111111 L9,15.5555556 C9,14.6961111 9.67125,14 10.5,14 L19.5,14 C20.32875,14 21,14.6961111 21,15.5555556 L21,17.1111111 C21,17.9705556 20.32875,18.6666667 19.5,18.6666667 Z M19.5,28 L10.5,28 C9.67125,28 9,27.3038889 9,26.4444444 L9,24.8888889 C9,24.0294444 9.67125,23.3333333 10.5,23.3333333 L19.5,23.3333333 C20.32875,23.3333333 21,24.0294444 21,24.8888889 L21,26.4444444 C21,27.3038889 20.32875,28 19.5,28 Z" id="Shape" stroke="#FFFFFF" stroke-width="2"></path>
                </g>
                <g id="icons8-binary-file" transform="translate(104.000000, 8.000000)" fill-rule="nonzero">
                    <path d="M14.88,31 L13.96,31 L13.96,26.8333333 L13.5,26.8333333 L13.5,26 L14.88,26 L14.88,31 Z M8.9,31 C8.164,31 7.52,30.4166667 7.52,29.75 L7.52,27.25 C7.52,26.5833333 8.164,26 8.9,26 C9.636,26 10.28,26.5833333 10.28,27.25 L10.28,29.75 C10.28,30.4166667 9.636,31 8.9,31 Z M8.9,26.8333333 C8.624,26.8333333 8.44,27 8.44,27.25 L8.44,29.75 C8.44,30 8.624,30.1666667 8.9,30.1666667 C9.176,30.1666667 9.36,30 9.36,29.75 L9.36,27.25 C9.36,27 9.176,26.8333333 8.9,26.8333333 Z M3.38,31 C2.644,31 2,30.4166667 2,29.75 L2,27.25 C2,26.5833333 2.644,26 3.38,26 C4.116,26 4.76,26.5833333 4.76,27.25 L4.76,29.75 C4.76,30.4166667 4.116,31 3.38,31 Z M3.38,26.8333333 C3.104,26.8333333 2.92,27 2.92,27.25 L2.92,29.75 C2.92,30 3.104,30.1666667 3.38,30.1666667 C3.656,30.1666667 3.84,30 3.84,29.75 L3.84,27.25 C3.84,27 3.656,26.8333333 3.38,26.8333333 Z M19.48,31 L18.56,31 L18.56,26.8333333 L18.1,26.8333333 L18.1,26 L19.48,26 L19.48,31 Z M23.62,31 C22.884,31 22.24,30.4166667 22.24,29.75 L22.24,27.25 C22.24,26.5833333 22.884,26 23.62,26 C24.356,26 25,26.5833333 25,27.25 L25,29.75 C25,30.4166667 24.356,31 23.62,31 Z M23.62,26.8333333 C23.344,26.8333333 23.16,27 23.16,27.25 L23.16,29.75 C23.16,30 23.344,30.1666667 23.62,30.1666667 C23.896,30.1666667 24.08,30 24.08,29.75 L24.08,27.25 C24.08,27 23.896,26.8333333 23.62,26.8333333 Z" id="Shape" fill="#FFFFFF"></path>
                    <polygon id="Path" fill="#A2B584" points="29 38 0 38 0 0 19.9375 0 29 9.04761905"></polygon>
                    <polygon id="Path" fill="#EBEFE3" points="28 10 19 10 19 1"></polygon>
                    <path d="M8.72727273,23.9492386 L7.36363636,23.9492386 L7.36363636,17.5532995 L6,17.5532995 L6,16.6395939 L8.72727273,16.1827411 L8.72727273,23.9492386 Z M21.9090909,34 L20.5454545,34 L20.5454545,27.6040609 L19.1818182,27.6040609 L19.1818182,26.6903553 L21.9090909,26.2335025 L21.9090909,34 Z M14.1818182,19.0152284 C14.1818182,18.3756345 14.0909091,17.9187817 13.9090909,17.6446701 C13.7272727,17.3705584 13.3636364,17.1878173 13,17.1878173 C12.6363636,17.1878173 12.2727273,17.3705584 12.0909091,17.6446701 C11.9090909,17.9187817 11.8181818,18.3756345 11.8181818,19.0152284 L11.8181818,21.1167513 C11.8181818,21.7563452 11.9090909,22.213198 12.0909091,22.4873096 C12.2727273,22.7614213 12.6363636,22.9441624 13,22.9441624 C13.3636364,22.9441624 13.7272727,22.7614213 13.9090909,22.4873096 C14.0909091,22.213198 14.1818182,21.7563452 14.1818182,21.1167513 L14.1818182,19.0152284 Z M15.4545455,20.9340102 C15.4545455,21.9390863 15.2727273,22.6700508 14.8181818,23.2182741 C14.3636364,23.7664975 13.8181818,23.9492386 13,23.9492386 C12.2727273,23.9492386 11.6363636,23.6751269 11.1818182,23.2182741 C10.7272727,22.6700508 10.5454545,21.9390863 10.5454545,20.9340102 L10.5454545,19.1979695 C10.5454545,18.1928934 10.7272727,17.4619289 11.1818182,16.9137056 C11.6363636,16.3654822 12.1818182,16.0913706 13,16.0913706 C13.7272727,16.0913706 14.3636364,16.3654822 14.8181818,16.9137056 C15.2727273,17.4619289 15.4545455,18.1928934 15.4545455,19.1979695 L15.4545455,20.9340102 Z M20.7272727,18.8324873 C20.7272727,18.1928934 20.6363636,17.7360406 20.3636364,17.3705584 C20.0909091,17.0050761 19.8181818,16.9137056 19.4545455,16.9137056 C19.0909091,16.9137056 18.7272727,17.0964467 18.5454545,17.3705584 C18.3636364,17.6446701 18.2727273,18.1928934 18.2727273,18.8324873 L18.2727273,21.0253807 C18.2727273,21.6649746 18.3636364,22.1218274 18.6363636,22.4873096 C18.8181818,22.7614213 19.1818182,22.9441624 19.5454545,22.9441624 C19.9090909,22.9441624 20.2727273,22.7614213 20.4545455,22.4873096 C20.6363636,22.213198 20.7272727,21.6649746 20.7272727,21.0253807 L20.7272727,18.8324873 Z M22,20.8426396 C22,21.8477157 21.7272727,22.6700508 21.2727273,23.1269036 C20.8181818,23.5837563 20.1818182,23.9492386 19.4545455,23.9492386 C18.6363636,23.9492386 18.0909091,23.6751269 17.5454545,23.1269036 C17,22.5786802 16.9090909,21.8477157 16.9090909,20.8426396 L16.9090909,19.106599 C16.9090909,18.1015228 17.1818182,17.2791878 17.6363636,16.822335 C18.0909091,16.3654822 18.7272727,16 19.4545455,16 C20.2727273,16 20.8181818,16.2741117 21.2727273,16.822335 C21.7272727,17.3705584 22,18.1015228 22,19.106599 L22,20.8426396 L22,20.8426396 Z M9.81818182,28.8832487 C9.81818182,28.2436548 9.72727273,27.786802 9.45454545,27.4213198 C9.27272727,27.1472081 8.90909091,26.964467 8.54545455,26.964467 C8.18181818,26.964467 7.81818182,27.1472081 7.63636364,27.4213198 C7.45454545,27.6954315 7.36363636,28.2436548 7.36363636,28.8832487 L7.36363636,31.0761421 C7.36363636,31.715736 7.45454545,32.1725888 7.72727273,32.5380711 C7.90909091,32.8121827 8.27272727,32.9949239 8.63636364,32.9949239 C9,32.9949239 9.36363636,32.8121827 9.54545455,32.5380711 C9.72727273,32.2639594 9.81818182,31.715736 9.81818182,31.0761421 L9.81818182,28.8832487 Z M11.0909091,30.893401 C11.0909091,31.8984772 10.8181818,32.7208122 10.3636364,33.177665 C9.90909091,33.6345178 9.27272727,34 8.54545455,34 C7.72727273,34 7.18181818,33.7258883 6.63636364,33.177665 C6.09090909,32.6294416 6,31.8984772 6,30.893401 L6,29.1573604 C6,28.1522843 6.27272727,27.3299492 6.72727273,26.8730964 C7.18181818,26.4162437 7.81818182,26.0507614 8.54545455,26.0507614 C9.36363636,26.0507614 9.90909091,26.3248731 10.3636364,26.8730964 C10.8181818,27.4213198 11.0909091,28.1522843 11.0909091,29.1573604 L11.0909091,30.893401 Z M16.5454545,28.8832487 C16.5454545,28.2436548 16.4545455,27.786802 16.1818182,27.4213198 C16,27.1472081 15.6363636,26.964467 15.2727273,26.964467 C14.9090909,26.964467 14.5454545,27.1472081 14.3636364,27.4213198 C14.1818182,27.6954315 14.0909091,28.2436548 14.0909091,28.8832487 L14.0909091,31.0761421 C14.0909091,31.715736 14.1818182,32.1725888 14.4545455,32.5380711 C14.6363636,32.8121827 15,32.9949239 15.3636364,32.9949239 C15.7272727,32.9949239 16.0909091,32.8121827 16.2727273,32.5380711 C16.4545455,32.2639594 16.5454545,31.715736 16.5454545,31.0761421 L16.5454545,28.8832487 Z M17.8181818,30.893401 C17.8181818,31.8984772 17.5454545,32.7208122 17.0909091,33.177665 C16.6363636,33.6345178 16,34 15.2727273,34 C14.4545455,34 13.9090909,33.7258883 13.3636364,33.177665 C12.8181818,32.6294416 12.6363636,31.8984772 12.6363636,30.893401 L12.6363636,29.1573604 C12.6363636,28.1522843 12.9090909,27.3299492 13.3636364,26.8730964 C13.8181818,26.4162437 14.4545455,26.0507614 15.1818182,26.0507614 C16,26.0507614 16.5454545,26.3248731 17,26.8730964 C17.4545455,27.4213198 17.7272727,28.1522843 17.7272727,29.1573604 L17.7272727,30.893401 L17.8181818,30.893401 Z" id="Shape" fill="#EBEFE3"></path>
                </g>
                <g id="icons8-binary-file" transform="translate(141.000000, 56.000000)" fill-rule="nonzero">
                    <path d="M14.88,31 L13.96,31 L13.96,26.8333333 L13.5,26.8333333 L13.5,26 L14.88,26 L14.88,31 Z M8.9,31 C8.164,31 7.52,30.4166667 7.52,29.75 L7.52,27.25 C7.52,26.5833333 8.164,26 8.9,26 C9.636,26 10.28,26.5833333 10.28,27.25 L10.28,29.75 C10.28,30.4166667 9.636,31 8.9,31 Z M8.9,26.8333333 C8.624,26.8333333 8.44,27 8.44,27.25 L8.44,29.75 C8.44,30 8.624,30.1666667 8.9,30.1666667 C9.176,30.1666667 9.36,30 9.36,29.75 L9.36,27.25 C9.36,27 9.176,26.8333333 8.9,26.8333333 Z M3.38,31 C2.644,31 2,30.4166667 2,29.75 L2,27.25 C2,26.5833333 2.644,26 3.38,26 C4.116,26 4.76,26.5833333 4.76,27.25 L4.76,29.75 C4.76,30.4166667 4.116,31 3.38,31 Z M3.38,26.8333333 C3.104,26.8333333 2.92,27 2.92,27.25 L2.92,29.75 C2.92,30 3.104,30.1666667 3.38,30.1666667 C3.656,30.1666667 3.84,30 3.84,29.75 L3.84,27.25 C3.84,27 3.656,26.8333333 3.38,26.8333333 Z M19.48,31 L18.56,31 L18.56,26.8333333 L18.1,26.8333333 L18.1,26 L19.48,26 L19.48,31 Z M23.62,31 C22.884,31 22.24,30.4166667 22.24,29.75 L22.24,27.25 C22.24,26.5833333 22.884,26 23.62,26 C24.356,26 25,26.5833333 25,27.25 L25,29.75 C25,30.4166667 24.356,31 23.62,31 Z M23.62,26.8333333 C23.344,26.8333333 23.16,27 23.16,27.25 L23.16,29.75 C23.16,30 23.344,30.1666667 23.62,30.1666667 C23.896,30.1666667 24.08,30 24.08,29.75 L24.08,27.25 C24.08,27 23.896,26.8333333 23.62,26.8333333 Z" id="Shape" fill="#FFFFFF"></path>
                    <polygon id="Path" fill="#A2B584" points="29 38 0 38 0 0 19.9375 0 29 9.04761905"></polygon>
                    <polygon id="Path" fill="#EBEFE3" points="28 10 19 10 19 1"></polygon>
                    <path d="M8.72727273,23.9492386 L7.36363636,23.9492386 L7.36363636,17.5532995 L6,17.5532995 L6,16.6395939 L8.72727273,16.1827411 L8.72727273,23.9492386 Z M21.9090909,34 L20.5454545,34 L20.5454545,27.6040609 L19.1818182,27.6040609 L19.1818182,26.6903553 L21.9090909,26.2335025 L21.9090909,34 Z M14.1818182,19.0152284 C14.1818182,18.3756345 14.0909091,17.9187817 13.9090909,17.6446701 C13.7272727,17.3705584 13.3636364,17.1878173 13,17.1878173 C12.6363636,17.1878173 12.2727273,17.3705584 12.0909091,17.6446701 C11.9090909,17.9187817 11.8181818,18.3756345 11.8181818,19.0152284 L11.8181818,21.1167513 C11.8181818,21.7563452 11.9090909,22.213198 12.0909091,22.4873096 C12.2727273,22.7614213 12.6363636,22.9441624 13,22.9441624 C13.3636364,22.9441624 13.7272727,22.7614213 13.9090909,22.4873096 C14.0909091,22.213198 14.1818182,21.7563452 14.1818182,21.1167513 L14.1818182,19.0152284 Z M15.4545455,20.9340102 C15.4545455,21.9390863 15.2727273,22.6700508 14.8181818,23.2182741 C14.3636364,23.7664975 13.8181818,23.9492386 13,23.9492386 C12.2727273,23.9492386 11.6363636,23.6751269 11.1818182,23.2182741 C10.7272727,22.6700508 10.5454545,21.9390863 10.5454545,20.9340102 L10.5454545,19.1979695 C10.5454545,18.1928934 10.7272727,17.4619289 11.1818182,16.9137056 C11.6363636,16.3654822 12.1818182,16.0913706 13,16.0913706 C13.7272727,16.0913706 14.3636364,16.3654822 14.8181818,16.9137056 C15.2727273,17.4619289 15.4545455,18.1928934 15.4545455,19.1979695 L15.4545455,20.9340102 Z M20.7272727,18.8324873 C20.7272727,18.1928934 20.6363636,17.7360406 20.3636364,17.3705584 C20.0909091,17.0050761 19.8181818,16.9137056 19.4545455,16.9137056 C19.0909091,16.9137056 18.7272727,17.0964467 18.5454545,17.3705584 C18.3636364,17.6446701 18.2727273,18.1928934 18.2727273,18.8324873 L18.2727273,21.0253807 C18.2727273,21.6649746 18.3636364,22.1218274 18.6363636,22.4873096 C18.8181818,22.7614213 19.1818182,22.9441624 19.5454545,22.9441624 C19.9090909,22.9441624 20.2727273,22.7614213 20.4545455,22.4873096 C20.6363636,22.213198 20.7272727,21.6649746 20.7272727,21.0253807 L20.7272727,18.8324873 Z M22,20.8426396 C22,21.8477157 21.7272727,22.6700508 21.2727273,23.1269036 C20.8181818,23.5837563 20.1818182,23.9492386 19.4545455,23.9492386 C18.6363636,23.9492386 18.0909091,23.6751269 17.5454545,23.1269036 C17,22.5786802 16.9090909,21.8477157 16.9090909,20.8426396 L16.9090909,19.106599 C16.9090909,18.1015228 17.1818182,17.2791878 17.6363636,16.822335 C18.0909091,16.3654822 18.7272727,16 19.4545455,16 C20.2727273,16 20.8181818,16.2741117 21.2727273,16.822335 C21.7272727,17.3705584 22,18.1015228 22,19.106599 L22,20.8426396 L22,20.8426396 Z M9.81818182,28.8832487 C9.81818182,28.2436548 9.72727273,27.786802 9.45454545,27.4213198 C9.27272727,27.1472081 8.90909091,26.964467 8.54545455,26.964467 C8.18181818,26.964467 7.81818182,27.1472081 7.63636364,27.4213198 C7.45454545,27.6954315 7.36363636,28.2436548 7.36363636,28.8832487 L7.36363636,31.0761421 C7.36363636,31.715736 7.45454545,32.1725888 7.72727273,32.5380711 C7.90909091,32.8121827 8.27272727,32.9949239 8.63636364,32.9949239 C9,32.9949239 9.36363636,32.8121827 9.54545455,32.5380711 C9.72727273,32.2639594 9.81818182,31.715736 9.81818182,31.0761421 L9.81818182,28.8832487 Z M11.0909091,30.893401 C11.0909091,31.8984772 10.8181818,32.7208122 10.3636364,33.177665 C9.90909091,33.6345178 9.27272727,34 8.54545455,34 C7.72727273,34 7.18181818,33.7258883 6.63636364,33.177665 C6.09090909,32.6294416 6,31.8984772 6,30.893401 L6,29.1573604 C6,28.1522843 6.27272727,27.3299492 6.72727273,26.8730964 C7.18181818,26.4162437 7.81818182,26.0507614 8.54545455,26.0507614 C9.36363636,26.0507614 9.90909091,26.3248731 10.3636364,26.8730964 C10.8181818,27.4213198 11.0909091,28.1522843 11.0909091,29.1573604 L11.0909091,30.893401 Z M16.5454545,28.8832487 C16.5454545,28.2436548 16.4545455,27.786802 16.1818182,27.4213198 C16,27.1472081 15.6363636,26.964467 15.2727273,26.964467 C14.9090909,26.964467 14.5454545,27.1472081 14.3636364,27.4213198 C14.1818182,27.6954315 14.0909091,28.2436548 14.0909091,28.8832487 L14.0909091,31.0761421 C14.0909091,31.715736 14.1818182,32.1725888 14.4545455,32.5380711 C14.6363636,32.8121827 15,32.9949239 15.3636364,32.9949239 C15.7272727,32.9949239 16.0909091,32.8121827 16.2727273,32.5380711 C16.4545455,32.2639594 16.5454545,31.715736 16.5454545,31.0761421 L16.5454545,28.8832487 Z M17.8181818,30.893401 C17.8181818,31.8984772 17.5454545,32.7208122 17.0909091,33.177665 C16.6363636,33.6345178 16,34 15.2727273,34 C14.4545455,34 13.9090909,33.7258883 13.3636364,33.177665 C12.8181818,32.6294416 12.6363636,31.8984772 12.6363636,30.893401 L12.6363636,29.1573604 C12.6363636,28.1522843 12.9090909,27.3299492 13.3636364,26.8730964 C13.8181818,26.4162437 14.4545455,26.0507614 15.1818182,26.0507614 C16,26.0507614 16.5454545,26.3248731 17,26.8730964 C17.4545455,27.4213198 17.7272727,28.1522843 17.7272727,29.1573604 L17.7272727,30.893401 L17.8181818,30.893401 Z" id="Shape" fill="#EBEFE3"></path>
                </g>
            </g>
        </g>
    </g>
</svg>