<?xml version="1.0" encoding="UTF-8"?>
<svg width="290px" height="69px" viewBox="0 0 290 69" version="1.1" xmlns="http://www.w3.org/2000/svg" xmlns:xlink="http://www.w3.org/1999/xlink">
    <!-- Generator: Sketch 63.1 (92452) - https://sketch.com -->
    <title>Logo/Full/Color</title>
    <desc>Created with Sketch.</desc>
    <defs>
        <linearGradient x1="71.2460506%" y1="-3.44534818%" x2="35.554186%" y2="105.886204%" id="linearGradient-1">
            <stop stop-color="#93193E" offset="0%"></stop>
            <stop stop-color="#3B151E" offset="99.51%"></stop>
        </linearGradient>
        <linearGradient x1="41.1528888%" y1="48.7754779%" x2="60.6242382%" y2="52.0438183%" id="linearGradient-2">
            <stop stop-color="#93193E" offset="0%"></stop>
            <stop stop-color="#3B151E" offset="99.51%"></stop>
        </linearGradient>
        <linearGradient x1="59.9949569%" y1="89.9785616%" x2="41.0367965%" y2="15.2661489%" id="linearGradient-3">
            <stop stop-color="#B3CD89" offset="0%"></stop>
            <stop stop-color="#6B8745" offset="100%"></stop>
        </linearGradient>
        <linearGradient x1="60.5153225%" y1="85.1894446%" x2="41.3086011%" y2="6.88766317%" id="linearGradient-4">
            <stop stop-color="#B3CD89" offset="0%"></stop>
            <stop stop-color="#6B8745" offset="100%"></stop>
        </linearGradient>
        <linearGradient x1="32.4004193%" y1="-14.5567333%" x2="52.01384%" y2="36.66275%" id="linearGradient-5">
            <stop stop-color="#B3CD89" offset="0%"></stop>
            <stop stop-color="#6B8745" offset="100%"></stop>
        </linearGradient>
        <linearGradient x1="0%" y1="49.9995167%" x2="99.9983334%" y2="49.9995167%" id="linearGradient-6">
            <stop stop-color="#B3CD89" offset="0%"></stop>
            <stop stop-color="#6B8745" offset="100%"></stop>
        </linearGradient>
        <linearGradient x1="-25.7616655%" y1="-7.38432693%" x2="33.4779287%" y2="47.4928085%" id="linearGradient-7">
            <stop stop-color="#B3CD89" offset="0%"></stop>
            <stop stop-color="#6B8745" offset="100%"></stop>
        </linearGradient>
        <linearGradient x1="100%" y1="50.0009108%" x2="0%" y2="50.0009108%" id="linearGradient-8">
            <stop stop-color="#B3CD89" offset="0%"></stop>
            <stop stop-color="#6B8745" offset="100%"></stop>
        </linearGradient>
        <linearGradient x1="100%" y1="50.001776%" x2="0%" y2="50.001776%" id="linearGradient-9">
            <stop stop-color="#B3CD89" offset="0%"></stop>
            <stop stop-color="#6B8745" offset="100%"></stop>
        </linearGradient>
        <linearGradient x1="107.003073%" y1="103.164617%" x2="50.1698399%" y2="50.1584667%" id="linearGradient-10">
            <stop stop-color="#B3CD89" offset="0%"></stop>
            <stop stop-color="#6B8745" offset="100%"></stop>
        </linearGradient>
        <linearGradient x1="94.1424872%" y1="115.630306%" x2="50.0684666%" y2="64.3918935%" id="linearGradient-11">
            <stop stop-color="#B3CD89" offset="0%"></stop>
            <stop stop-color="#6B8745" offset="100%"></stop>
        </linearGradient>
        <linearGradient x1="-11.2143791%" y1="15.4086707%" x2="42.1847667%" y2="47.5935607%" id="linearGradient-12">
            <stop stop-color="#B3CD89" offset="0%"></stop>
            <stop stop-color="#6B8745" offset="100%"></stop>
        </linearGradient>
        <linearGradient x1="125.762108%" y1="107.384767%" x2="66.5215262%" y2="52.50675%" id="linearGradient-13">
            <stop stop-color="#B3CD89" offset="0%"></stop>
            <stop stop-color="#6B8745" offset="100%"></stop>
        </linearGradient>
        <linearGradient x1="5.59628408e-05%" y1="50.002%" x2="100%" y2="50.002%" id="linearGradient-14">
            <stop stop-color="#B3CD89" offset="0%"></stop>
            <stop stop-color="#6B8745" offset="100%"></stop>
        </linearGradient>
        <linearGradient x1="0%" y1="50.0008652%" x2="100%" y2="50.0008652%" id="linearGradient-15">
            <stop stop-color="#B3CD89" offset="0%"></stop>
            <stop stop-color="#6B8745" offset="100%"></stop>
        </linearGradient>
        <linearGradient x1="0%" y1="50.0017305%" x2="100%" y2="50.0017305%" id="linearGradient-16">
            <stop stop-color="#B3CD89" offset="0%"></stop>
            <stop stop-color="#6B8745" offset="100%"></stop>
        </linearGradient>
        <linearGradient x1="35.251059%" y1="-29.9491833%" x2="50.1359589%" y2="50.7379%" id="linearGradient-17">
            <stop stop-color="#B3CD89" offset="0%"></stop>
            <stop stop-color="#6B8745" offset="100%"></stop>
        </linearGradient>
        <linearGradient x1="100%" y1="50.0017305%" x2="0%" y2="50.0017305%" id="linearGradient-18">
            <stop stop-color="#B3CD89" offset="0%"></stop>
            <stop stop-color="#6B8745" offset="100%"></stop>
        </linearGradient>
        <linearGradient x1="5.59879067e-05%" y1="50.0019%" x2="100%" y2="50.0019%" id="linearGradient-19">
            <stop stop-color="#B3CD89" offset="0%"></stop>
            <stop stop-color="#6B8745" offset="100%"></stop>
        </linearGradient>
        <linearGradient x1="0%" y1="50.0006667%" x2="100%" y2="50.0006667%" id="linearGradient-20">
            <stop stop-color="#B3CD89" offset="0%"></stop>
            <stop stop-color="#6B8745" offset="100%"></stop>
        </linearGradient>
        <linearGradient x1="109.620064%" y1="101.292591%" x2="66.3234995%" y2="61.8661141%" id="linearGradient-21">
            <stop stop-color="#B3CD89" offset="0%"></stop>
            <stop stop-color="#6B8745" offset="100%"></stop>
        </linearGradient>
        <linearGradient x1="83.6880682%" y1="-55.3828%" x2="47.9524458%" y2="58.58035%" id="linearGradient-22">
            <stop stop-color="#B3CD89" offset="0%"></stop>
            <stop stop-color="#6B8745" offset="100%"></stop>
        </linearGradient>
        <linearGradient x1="41.1528888%" y1="48.7754779%" x2="60.5288286%" y2="52.0278035%" id="linearGradient-23">
            <stop stop-color="#93193E" offset="0%"></stop>
            <stop stop-color="#3B151E" offset="100%"></stop>
        </linearGradient>
        <filter x="-9.5%" y="-4.2%" width="118.9%" height="108.4%" filterUnits="objectBoundingBox" id="filter-24">
            <feGaussianBlur stdDeviation="0.9" in="SourceGraphic"></feGaussianBlur>
        </filter>
    </defs>
    <g id="Hurra-Landing-Page" stroke="none" stroke-width="1" fill="none" fill-rule="evenodd">
        <g id="Landing-Page-V1" transform="translate(-37.000000, -30.000000)">
            <g id="Logo/Full/Color" transform="translate(37.000000, 32.000000)">
                <g id="logo" transform="translate(0.090000, 0.000000)">
                    <g id="Group" fill-rule="nonzero">
                        <g id="Path">
                            <g>
                                <path d="M26.5104,14.6993721 C26.3106,16.6838372 25.9641,18.6537907 25.4358,20.5747674 C25.173,21.5352558 24.8661,22.4821395 24.516,23.4108837 C24.1659,24.3405349 23.7735,25.2511395 23.3298,26.1354419 C22.887,27.0197442 22.4019,27.8786512 21.8763,28.7085349 C21.6693,29.0314186 21.4551,29.3497674 21.2355,29.6617674 C21.1275,29.8159535 21.141,30.0236512 21.2697,30.1615116 C21.321,30.2168372 21.3723,30.2721628 21.4227,30.3283953 C21.6126,30.5415349 21.7953,30.7583023 21.9708,30.9823256 C22.7664,32.0008605 23.4027,33.1436512 23.8509,34.3644419 C23.8716,34.4197674 23.8365,34.4805349 23.7789,34.4914186 C23.067,34.6292791 22.3641,34.8170233 21.6711,35.0528372 C19.7046,35.724 17.9073,36.7597674 16.3296,38.1320233 C14.7519,39.5042791 13.4712,41.144093 12.5244,43.0061163 C11.5443,44.9343488 10.9656,47.0158605 10.8072,49.1935116 C10.7892,49.4456512 10.7757,49.6977907 10.7694,49.9490233 C10.7676,50.0224884 10.7658,50.0950465 10.7649,50.1685116 C10.764,50.2066047 10.764,50.2456047 10.764,50.2836977 C10.764,50.2927674 10.7631,50.3000233 10.764,50.308186 C10.764,50.3807442 10.7631,50.4514884 10.764,50.5240465 C10.764,50.5403721 10.7649,50.5557907 10.7649,50.5721163 C10.7658,50.659186 10.7676,50.7471628 10.7694,50.8351395 C10.7703,50.8378605 10.7694,50.8405814 10.7694,50.8442093 L10.7694,50.8442093 C10.7721,50.9031628 10.7208,50.9512326 10.6623,50.9430698 C10.3203,50.896814 9.9774,50.8351395 9.6345,50.7580465 C7.7958,50.3453721 6.1434,49.5363488 4.7484,48.439814 C4.6944,48.398093 4.6413,48.3563721 4.5882,48.3119302 C4.554,48.283814 4.5198,48.2556977 4.4865,48.2275814 C4.4496,48.1976512 4.4145,48.1677209 4.3794,48.1368837 C4.2912,48.0634186 4.2048,47.9863256 4.1193,47.9101395 C4.0689,47.8647907 4.0203,47.8185349 3.969,47.7722791 C3.9222,47.7287442 3.8745,47.6833953 3.8286,47.6380465 C3.7314,47.5455349 3.6369,47.4512093 3.5424,47.3550698 C3.5154,47.3269535 3.4875,47.2979302 3.4605,47.269814 C3.429,47.2371628 3.3993,47.2045116 3.3678,47.1718605 C3.3309,47.1328605 3.2949,47.0938605 3.2598,47.0548605 C3.2553,47.0494186 3.2508,47.0439767 3.2463,47.0394419 C3.2121,47.0022558 3.177,46.9632558 3.1446,46.9260698 C3.1293,46.9079302 3.114,46.8916047 3.0987,46.8743721 C3.015,46.7791395 2.9331,46.683 2.8521,46.5850465 C2.8512,46.5832326 2.8485,46.5814186 2.8467,46.5786977 C2.8044,46.527907 2.763,46.4753023 2.7207,46.4236047 C2.6784,46.371 2.6361,46.3174884 2.5956,46.2630698 C2.5605,46.2186279 2.5272,46.1723721 2.4921,46.1279302 C2.4669,46.096186 2.4435,46.0626279 2.4192,46.0281628 C2.3931,45.9936977 2.367,45.9574186 2.3409,45.9202326 C2.304,45.8694419 2.2689,45.8204651 2.2338,45.7687674 C2.1645,45.669907 2.0961,45.5683256 2.0295,45.4667442 C1.9971,45.4150465 1.9629,45.3624419 1.9296,45.3107442 C1.9062,45.2717442 1.8819,45.2336512 1.8567,45.1937442 C1.8351,45.1574651 1.8126,45.121186 1.7901,45.084 C1.7559,45.0286744 1.7235,44.9724419 1.6911,44.9171163 C1.6641,44.8699535 1.6371,44.8236977 1.611,44.7774419 C1.584,44.7302791 1.5588,44.6840233 1.5336,44.6377674 C1.5327,44.6359535 1.5327,44.6350465 1.5327,44.6341395 C1.5066,44.5869767 1.4805,44.539814 1.4562,44.4926512 C1.4175,44.420093 1.3797,44.3475349 1.3428,44.2740698 C1.3059,44.2006047 1.269,44.1262326 1.2339,44.0527674 C1.2069,43.9965349 1.1808,43.9412093 1.1547,43.8840698 C1.1286,43.8278372 1.1025,43.7716047 1.0773,43.7153721 C1.053,43.6591395 1.0278,43.602907 1.0026,43.5448605 C0.9792,43.4886279 0.9549,43.4305814 0.9315,43.3734419 C0.9,43.2972558 0.8694,43.2201628 0.8397,43.1439767 C0.8109,43.0668837 0.7812,42.9888837 0.7533,42.9117907 C0.7245,42.8337907 0.6975,42.7566977 0.6696,42.6768837 C0.6435,42.5988837 0.6174,42.5199767 0.5922,42.4410698 C0.567,42.3630698 0.5436,42.2859767 0.5193,42.2061628 C0.5193,42.2043488 0.5175,42.2007209 0.5166,42.198 C0.4959,42.1263488 0.4743,42.0546977 0.4545,41.9821395 C0.4518,41.9721628 0.4491,41.9603721 0.4464,41.9503953 C0.4446,41.9449535 0.4428,41.9395116 0.4419,41.9331628 C0.423,41.8642326 0.4041,41.7934884 0.3852,41.7227442 C0.3465,41.5685581 0.3096,41.4116512 0.2763,41.2547442 C0.2718,41.2356977 0.2673,41.2157442 0.2637,41.1957907 C0.2628,41.1921628 0.2628,41.1885349 0.2619,41.184907 L0.2592,41.1722093 C0.2493,41.1277674 0.2403,41.0824186 0.2313,41.0379767 L0.2268,41.0162093 C0.2232,40.9962558 0.2196,40.9763023 0.2151,40.9572558 C0.2034,40.8946744 0.1917,40.8293721 0.1818,40.7658837 C0.1656,40.675186 0.1503,40.5853953 0.1368,40.4956047 C0.1323,40.4620465 0.1269,40.4293953 0.1233,40.3967442 C0.117,40.3495814 0.1089,40.3033256 0.1035,40.2561628 C0.099,40.2235116 0.0954,40.1899535 0.0918,40.1563953 C0.0909,40.1518605 0.09,40.1464186 0.0891,40.1418837 C0.0855,40.1119535 0.0819,40.0811163 0.0783,40.051186 C0.0729,39.9931395 0.0657,39.935093 0.0603,39.8770465 C0.0549,39.819 0.0495,39.7609535 0.0441,39.702 L0.0378,39.6149302 C0.0333,39.5723023 0.0315,39.5305814 0.0279,39.4888605 C0.0243,39.4498605 0.0225,39.4108605 0.0207,39.3709535 C0.0198,39.3691395 0.0198,39.3691395 0.0198,39.3673256 C0.0171,39.3237907 0.0144,39.2784419 0.0135,39.234 C0.0108,39.1922791 0.0099,39.1505581 0.009,39.1097442 C0.0063,39.0752791 0.0063,39.039907 0.0054,39.0054419 C0.0045,38.9537442 0.0027,38.9029535 0.0027,38.8512558 C0.0018,38.8494419 0.0018,38.8476279 0.0027,38.845814 C0.0018,38.805 0.0027,38.7632791 0.0018,38.7224651 C0.0009,38.6616977 0.0018,38.6000233 0.0027,38.5392558 C0.0036,38.4821163 0.0036,38.4249767 0.0063,38.3678372 C0.0072,38.3215814 0.009,38.2753256 0.0108,38.2290698 C0.0099,38.220907 0.0117,38.2118372 0.0108,38.2045814 C0.0126,38.1710233 0.0135,38.1392791 0.0144,38.1075349 C0.018,38.0522093 0.0207,37.9968837 0.0225,37.9415581 C0.0261,37.8771628 0.0315,37.8118605 0.036,37.7465581 C0.0396,37.6857907 0.045,37.6241163 0.0513,37.5624419 C0.0549,37.518907 0.0594,37.4753721 0.0639,37.4327442 C0.0765,37.3066744 0.0909,37.1787907 0.1071,37.051814 C0.1134,37.0028372 0.1197,36.9538605 0.1269,36.9039767 C0.1296,36.8822093 0.1323,36.8604419 0.1359,36.8377674 C0.1458,36.776093 0.1548,36.7144186 0.1656,36.6527442 C0.1953,36.4704419 0.2286,36.2890465 0.2664,36.1076512 C0.2808,36.0405349 0.2952,35.9743256 0.3096,35.9081163 C0.3249,35.841907 0.3411,35.7756977 0.3555,35.7103953 C0.3654,35.6704884 0.3753,35.6314884 0.3843,35.5915814 C0.3879,35.5797907 0.3915,35.566186 0.3942,35.5534884 C0.405,35.5126744 0.4149,35.4727674 0.4257,35.4319535 C0.4491,35.3466977 0.4716,35.2614419 0.4968,35.176186 C0.5058,35.1453488 0.5148,35.1136047 0.5238,35.0809535 C0.5301,35.059186 0.5382,35.0374186 0.5445,35.0147442 C0.5526,34.9875349 0.5607,34.9612326 0.5688,34.9340233 C0.5823,34.8904884 0.5958,34.8487674 0.6093,34.8070465 C0.6228,34.7644186 0.6363,34.7226977 0.6498,34.6809767 C0.6642,34.6392558 0.6777,34.5975349 0.693,34.555814 C0.7056,34.5186279 0.7182,34.4814419 0.7317,34.4442558 C0.7479,34.398907 0.765,34.3535581 0.7812,34.3073023 C0.7974,34.2655814 0.8118,34.2256744 0.8271,34.1839535 C0.8433,34.1422326 0.8595,34.1014186 0.8757,34.0615116 C0.8919,34.0206977 0.9072,33.9798837 0.9243,33.9399767 L0.9747,33.8184419 C0.9765,33.812093 0.9792,33.8066512 0.9819,33.8012093 C1.0035,33.7486047 1.026,33.695093 1.0494,33.6433953 C1.0611,33.6143721 1.0755,33.5853488 1.0872,33.5572326 C1.1016,33.5245814 1.116,33.4919302 1.1313,33.4583721 C1.1493,33.4184651 1.1682,33.3794651 1.1862,33.3404651 C1.2042,33.3005581 1.2231,33.2615581 1.2411,33.2225581 C1.26,33.1844651 1.2789,33.1445581 1.2987,33.1064651 C1.3185,33.0683721 1.3374,33.0293721 1.3572,32.9903721 C1.3959,32.9132791 1.4355,32.837093 1.4769,32.760907 C1.4967,32.722814 1.5174,32.6847209 1.5381,32.6475349 C1.5579,32.6103488 1.5786,32.5722558 1.6002,32.5350698 C1.7055,32.3473256 1.8162,32.1641163 1.9305,31.9827209 C1.953,31.9464419 1.9755,31.9110698 1.9989,31.8747907 C2.1168,31.6915814 2.2401,31.512 2.367,31.3369535 C2.4138,31.2725581 2.4615,31.2072558 2.511,31.1428605 C2.7666,30.8045581 3.0384,30.4807674 3.3255,30.1733023 C3.3543,30.1433721 3.3831,30.1116279 3.4128,30.0807907 C3.456,30.0354419 3.5001,29.990093 3.5451,29.9447442 C3.5892,29.8993953 3.6324,29.8558605 3.6783,29.8105116 C3.708,29.7805814 3.7377,29.7515581 3.7683,29.7234419 C3.7971,29.6935116 3.8268,29.6644884 3.8574,29.6372791 C3.888,29.6073488 3.9186,29.5792326 3.9501,29.5502093 C3.9807,29.521186 4.0122,29.4930698 4.0428,29.4649535 C4.167,29.3524884 4.2939,29.2418372 4.4208,29.133 C4.4442,29.1148605 4.4658,29.095814 4.4892,29.0767674 C4.5207,29.0513721 4.5504,29.0259767 4.5819,29.0005814 C4.6494,28.9461628 4.7178,28.8917442 4.7871,28.8382326 C4.7961,28.8318837 4.8042,28.8246279 4.8132,28.8182791 C4.8789,28.7665814 4.9455,28.7166977 5.013,28.666814 L5.0292,28.6550233 C5.1039,28.5987907 5.1795,28.5443721 5.2551,28.4917674 C5.3325,28.4373488 5.409,28.3847442 5.4873,28.3330465 C5.526,28.3058372 5.5656,28.2813488 5.6043,28.2550465 C5.6439,28.2287442 5.6844,28.2042558 5.7231,28.1788605 L5.7375,28.1697907 C5.8077,28.1253488 5.8779,28.080907 5.9499,28.0364651 C5.9598,28.0310233 5.9688,28.0246744 5.9787,28.0192326 C6.0408,27.9820465 6.102,27.9457674 6.165,27.9085814 C6.1875,27.8958837 6.21,27.883186 6.2325,27.8695814 C6.3009,27.8305814 6.3702,27.7915814 6.4395,27.7543953 C6.8121,27.5512326 7.1964,27.3653023 7.5888,27.2011395 C7.632,27.183 7.6743,27.1648605 7.7193,27.1476279 C7.7643,27.1285814 7.8093,27.1113488 7.8534,27.0932093 C7.9389,27.0587442 8.0253,27.027 8.1117,26.9952558 C8.1567,26.9789302 8.2017,26.9616977 8.2467,26.9462791 C8.2908,26.9317674 8.3349,26.9163488 8.3799,26.9009302 C8.424,26.8855116 8.4699,26.871 8.514,26.8564884 C8.5158,26.8555814 8.5167,26.8546744 8.5185,26.8546744 C8.5248,26.8528605 8.5293,26.8501395 8.5356,26.8483256 C9.6777,26.440186 10.7919,26.2261395 11.8233,26.2179767 C12.1032,26.2152558 12.3768,26.2288605 12.6432,26.2569767 C12.8583,26.2796512 13.0689,26.3123023 13.2723,26.3567442 C14.2695,26.5662558 15.1371,27.0170233 15.8013,27.7253721 C16.2342,28.1861163 16.5546,28.7275814 16.767,29.327093 C16.9191,29.755186 17.0163,30.2123023 17.0613,30.693907 C17.0703,30.7855116 17.1882,30.8145349 17.2368,30.7374419 C17.2494,30.7174884 17.262,30.6975349 17.2737,30.6766744 C17.3907,30.4898372 17.5104,30.3057209 17.6238,30.1179767 L17.955,29.5483953 C18.3852,28.782907 18.7767,28.002 19.1223,27.2038605 C19.4634,26.403 19.7622,25.5876279 20.0196,24.7622791 C21.0429,21.4554419 21.3624,17.9826279 21.1473,14.5596977 C21.0411,12.8473256 20.8026,11.1440233 20.4489,9.47427907 C20.2743,8.64076744 20.0664,7.81451163 19.8324,7.00639535 C19.7154,6.6027907 19.5912,6.20281395 19.4598,5.81372093 C19.3941,5.61872093 19.3266,5.42825581 19.2582,5.2414186 L19.1556,4.97113953 L19.1043,4.84506977 L19.08,4.78883721 C19.0764,4.77976744 19.0728,4.77523256 19.0701,4.76797674 L19.0647,4.758 C19.0647,4.75981395 19.0647,4.76344186 19.0647,4.76525581 C18.4572,2.87148837 19.4877,0.840767442 21.3669,0.227651163 C22.7853,-0.234 24.282,0.244883721 25.1901,1.32146512 C25.1919,1.32237209 25.1919,1.32237209 25.191,1.32327907 L25.1928,1.32418605 C25.488,1.67337209 25.7202,2.08513953 25.8687,2.54769767 L25.8822,2.59667442 L25.8903,2.6284186 L25.9056,2.68918605 L25.9308,2.79983721 L25.9758,3.00662791 C26.0046,3.14267442 26.0307,3.27418605 26.0568,3.4047907 C26.1054,3.666 26.1513,3.92267442 26.1936,4.17753488 C26.2773,4.68725581 26.3475,5.19153488 26.4078,5.69581395 C26.4681,6.19918605 26.5203,6.70165116 26.5608,7.20230233 C26.6031,7.70386047 26.6355,8.2054186 26.658,8.70606977 C26.7273,10.1935116 26.7192,11.6800465 26.6292,13.1611395 C26.6022,13.6790233 26.5608,14.1896512 26.5104,14.6993721 Z" fill="url(#linearGradient-1)"></path>
                                <path d="M41.0364,51.5380465 C40.4037,59.4550465 33.4467,65.3839535 25.5933,64.7055349 C23.4171,64.5168837 21.3948,63.843907 19.6245,62.8008837 C19.5561,62.7600698 19.4877,62.7201628 19.4202,62.6784419 C19.377,62.6521395 19.3329,62.6249302 19.2897,62.596814 C19.2438,62.5686977 19.1979,62.5396744 19.1529,62.5106512 C19.0404,62.439 18.9297,62.3646279 18.8199,62.2902558 C18.7551,62.245814 18.6912,62.2013721 18.6273,62.1551163 C18.5661,62.1124884 18.5049,62.0680465 18.4437,62.0226977 C18.3186,61.932 18.1944,61.8376744 18.0729,61.7424419 C18.0369,61.7143256 18.0009,61.6862093 17.9649,61.657186 C17.9244,61.6254419 17.8839,61.5927907 17.8434,61.5592326 C17.7957,61.5202326 17.748,61.4812326 17.7003,61.4413256 C17.694,61.4358837 17.6877,61.4313488 17.6823,61.425907 C17.6373,61.387814 17.5914,61.3497209 17.5473,61.3107209 C17.5275,61.2934884 17.5077,61.2762558 17.487,61.2590233 C17.3763,61.1628837 17.2674,61.0640233 17.1603,60.9651628 C17.1585,60.9624419 17.1558,60.9606279 17.1531,60.957907 C17.0964,60.9053023 17.0406,60.8526977 16.9857,60.799186 C16.929,60.7447674 16.8714,60.6894419 16.8165,60.6341163 C16.7706,60.5878605 16.7247,60.5416047 16.6779,60.4944419 C16.6446,60.4608837 16.6113,60.4264186 16.5789,60.3919535 C16.5438,60.3556744 16.5078,60.3175814 16.4727,60.2803953 C16.4232,60.2286977 16.3746,60.175186 16.3269,60.1225814 C16.2324,60.0182791 16.1388,59.9130698 16.047,59.8069535 C16.0011,59.7525349 15.9543,59.6981163 15.9075,59.6427907 C15.8742,59.6019767 15.84,59.5611628 15.8067,59.5203488 C15.7752,59.4822558 15.7446,59.4432558 15.7131,59.4042558 C15.6663,59.3462093 15.6195,59.2863488 15.5736,59.2273953 C15.5358,59.1784186 15.498,59.1285349 15.4602,59.0786512 C15.4233,59.0296744 15.3864,58.9797907 15.3495,58.930814 C15.3486,58.929 15.3477,58.928093 15.3477,58.927186 C15.3108,58.8763953 15.2739,58.8274186 15.2379,58.7766279 C15.183,58.6986279 15.1272,58.6206279 15.0732,58.5417209 C15.0192,58.4637209 14.9661,58.383907 14.9139,58.304093 C14.7564,58.0637442 14.6061,57.8206744 14.463,57.5712558 C14.4153,57.487814 14.3685,57.4043721 14.3217,57.3209302 C14.2758,57.2374884 14.2308,57.1522326 14.1858,57.0669767 C14.1417,56.9817209 14.0976,56.8973721 14.0553,56.8112093 C14.013,56.7259535 13.9707,56.6388837 13.9293,56.551814 C13.8888,56.4665581 13.8492,56.3803953 13.8096,56.2933256 C13.8087,56.2915116 13.8069,56.2878837 13.806,56.2851628 C13.7709,56.2062558 13.7358,56.1264419 13.7016,56.0466279 C13.6971,56.0357442 13.6917,56.0239535 13.6872,56.0121628 C13.6521,55.9287209 13.617,55.8443721 13.5828,55.7591163 C13.5135,55.5867907 13.4478,55.4135581 13.3857,55.2385116 C13.3794,55.2194651 13.3722,55.2013256 13.3659,55.183186 C13.3434,55.1178837 13.32,55.0534884 13.2993,54.988186 C13.2894,54.9600698 13.2804,54.9328605 13.2723,54.9056512 C13.248,54.834907 13.2255,54.7623488 13.203,54.6906977 C13.1706,54.5891163 13.14,54.4884419 13.1112,54.3859535 C13.1004,54.3487674 13.0905,54.3124884 13.0797,54.2753023 C13.0068,54.015907 12.942,53.7537907 12.8844,53.4898605 C12.8772,53.4572093 12.87,53.4236512 12.8628,53.391 C12.8529,53.3429302 12.843,53.2948605 12.8331,53.2467907 C12.8232,53.2014419 12.8151,53.156093 12.8061,53.1098372 C12.7962,53.0590465 12.7872,53.0082558 12.7782,52.9565581 C12.7692,52.9093953 12.7611,52.8622326 12.753,52.8141628 C12.7458,52.7742558 12.7395,52.7343488 12.7332,52.6944419 C12.7242,52.6354884 12.7143,52.5774419 12.7062,52.5184884 C12.7053,52.5166744 12.7053,52.5148605 12.7053,52.5130465 C12.699,52.4658837 12.6918,52.4187209 12.6855,52.3724651 C12.6756,52.3026279 12.6666,52.2318837 12.6576,52.1620465 C12.6495,52.0967442 12.6414,52.0305349 12.6351,51.9643256 C12.6279,51.9008372 12.6216,51.8373488 12.6162,51.7747674 C12.6126,51.7375814 12.609,51.6994884 12.6054,51.6623023 C12.6,51.597907 12.5946,51.5353256 12.5901,51.4709302 C12.5838,51.3956512 12.5793,51.3203721 12.5748,51.245093 C12.5712,51.1816047 12.5676,51.1163023 12.5649,51.051907 C12.564,51.0446512 12.564,51.0383023 12.564,51.0310465 C12.5622,50.9811628 12.5595,50.9303721 12.5586,50.8804884 C12.5502297,50.6492093 12.5487,50.4179302 12.5514,50.1848372 C12.5532,50.1122791 12.5541,50.0406279 12.5568,49.9680698 C12.5631,49.7549302 12.5739,49.5408837 12.5892,49.3259302 C12.6009,49.1681163 12.6153,49.0121163 12.6315,48.8561163 C12.636,48.8089535 12.6414,48.7617907 12.6468,48.7155349 C12.6486,48.7001163 12.6504,48.6856047 12.6522,48.6692791 C12.6576,48.6212093 12.6639,48.5731395 12.6702,48.5250698 C12.7017,48.2747442 12.7404,48.0262326 12.7854,47.7795349 C12.7944,47.7287442 12.8034,47.6788605 12.8133,47.6280698 C12.8223,47.578186 12.8331,47.5273953 12.843,47.4775116 C12.852,47.4330698 12.861,47.3877209 12.8709,47.3432791 C12.8826,47.2879535 12.8943,47.2326279 12.9078,47.1773023 C12.9195,47.1274186 12.9303,47.0784419 12.942,47.0285581 C13.0023,46.7718837 13.0698,46.5188372 13.1436,46.2685116 C13.1553,46.2286047 13.167,46.1886977 13.1796,46.1487907 C13.1949,46.1007209 13.2093,46.0526512 13.2246,46.0045814 C13.2399,45.9565116 13.2552,45.9084419 13.2714,45.8603721 C13.2867,45.8132093 13.3029,45.7651395 13.3191,45.7179767 C13.3344,45.669907 13.3515,45.6227442 13.3686,45.5755814 C13.401,45.4803488 13.4352,45.3869302 13.4712,45.2926047 C13.4892,45.2454419 13.5072,45.1982791 13.5243,45.1529302 C13.5423,45.1066744 13.5603,45.0604186 13.5792,45.0141628 C13.6719,44.7819767 13.77,44.5534186 13.8735,44.3284884 C13.8942,44.2840465 13.9149,44.2386977 13.9365,44.1933488 C14.0445,43.9647907 14.1579,43.7398605 14.2776,43.5185581 C14.3226,43.4360233 14.3667,43.3543953 14.4135,43.2736744 C14.6556,42.8446744 14.9193,42.431093 15.2019,42.0320233 C15.2298,41.9921163 15.2586,41.9522093 15.2874,41.9123023 C15.3738,41.7934884 15.4611,41.6764884 15.5502,41.5613023 C15.5799,41.5223023 15.6096,41.4842093 15.6402,41.4461163 C15.6699,41.4080233 15.6996,41.3699302 15.7302,41.3327442 C15.7608,41.2946512 15.7914,41.2565581 15.8229,41.2184651 C15.8535,41.1812791 15.885,41.143186 15.9165,41.106 C16.0929,40.8955814 16.2765,40.6887907 16.4646,40.4892558 C17.7957,39.1913721 19.2258,38.1537907 20.655,37.4127907 C20.6568,37.4118837 20.6586,37.4109767 20.6604,37.4100698 C20.7315,37.3756047 20.8026,37.3420465 20.8746,37.3084884 C20.9475,37.2749302 21.0204,37.2413721 21.0951,37.2087209 C21.1473,37.1860465 21.1986,37.1633721 21.2517,37.1406977 C21.2787,37.128907 21.3075,37.1162093 21.3354,37.1053256 C21.4038,37.0753953 21.474,37.0472791 21.5433,37.0191628 C21.6108,36.9919535 21.6774,36.9656512 21.7449,36.9402558 C21.7449,36.9402558 21.7458,36.9402558 21.7458,36.9402558 C21.7998,36.9166744 21.8556,36.8976279 21.9114,36.8776744 C22.0203,36.8377674 22.1301,36.7978605 22.2417,36.7606744 C22.3137,36.736186 22.3866,36.7126047 22.4595,36.6890233 C22.5171,36.6699767 22.5747,36.6518372 22.6332,36.6336977 C22.635,36.6327907 22.6359,36.6327907 22.6386,36.6318837 C22.6845,36.6182791 22.7295,36.6037674 22.7754,36.5910698 C22.842,36.5711163 22.9095,36.5511628 22.977,36.5321163 C23.0391,36.5139767 23.1012,36.4976512 23.1642,36.4813256 C23.3208,36.4396047 23.4774,36.4006047 23.6358,36.3634186 C23.6376,36.3625116 23.6394,36.3634186 23.6412,36.3625116 C23.7213,36.3434651 23.8014,36.3271395 23.8824,36.309907 C23.9454,36.2963023 24.0093,36.2836047 24.0732,36.270907 C24.0993,36.2654651 24.1254,36.2609302 24.1515,36.2554884 C24.2235,36.2418837 24.2955,36.2282791 24.3675,36.2155814 C24.3693,36.2146744 24.372,36.2155814 24.3738,36.2146744 C24.6834,36.1611628 24.9957,36.1167209 25.3107,36.0840698 C26.7822,36.0414419 28.1142,36.4232791 29.1654,37.2803721 C29.7342,37.7429302 30.1851,38.3152326 30.5199,38.9727907 C31.0068,39.9205814 31.2552,41.0479535 31.2759,42.2832558 C31.2786,42.4274651 31.4793,42.4573953 31.5216,42.3195349 L31.5351,42.276 L31.7907,41.3436279 L31.9176,40.8783488 L32.0283,40.4085349 C32.1003,40.0956279 32.1795,39.7845349 32.2452,39.4707209 C32.4018,38.7342558 32.5341,37.9950698 32.6448,37.2549767 C32.6916,36.9466047 32.7339,36.6391395 32.7735,36.3316744 C32.8005,36.1185349 32.8257,35.9053953 32.85,35.6931628 C32.8599,35.5943023 32.8698,35.4954419 32.8788,35.3965814 C32.9895,34.2320233 33.0372,33.0674651 33.0291,31.9083488 C33.021,31.5945349 33.021,31.279814 33.0075,30.966907 L32.9571,30.028186 C32.9337,29.716186 32.9031,29.405093 32.8761,29.094 C32.8689,29.016 32.8635,28.938 32.8545,28.860907 L32.8257,28.6287209 L32.769,28.1643488 C32.607,26.9290465 32.3721,25.7073488 32.067,24.5083256 C31.4559,22.1102791 30.5568,19.8020233 29.4192,17.627093 C28.6047,16.0707209 27.6723,14.5787442 26.6373,13.1665814 C26.2278,12.6069767 25.8021,12.0582558 25.3602,11.5240465 C24.5853,10.5835116 23.7627,9.68469767 22.9068,8.83667442 C22.4784,8.41402326 22.0401,8.00406977 21.5973,7.61406977 C21.3759,7.42088372 21.1527,7.22951163 20.9322,7.04993023 L20.7666,6.91660465 C20.7117,6.87216279 20.6577,6.82953488 20.6046,6.78781395 L20.4471,6.66809302 L20.376,6.61548837 C20.3634,6.60551163 20.3544,6.60097674 20.3454,6.59462791 L20.3319,6.58465116 C20.331,6.58465116 20.331,6.58465116 20.331,6.58465116 C20.331,6.58555814 20.3319,6.58646512 20.3319,6.58646512 C18.7983,5.33483721 18.5616,3.06830233 19.8018,1.52281395 C20.5677,0.567767442 21.7179,0.110651163 22.8483,0.195 L22.8492,0.195 C23.5503,0.246697674 24.2424,0.507 24.831,0.985883721 L24.8823,1.03123256 L24.9156,1.06116279 L24.9804,1.12011628 L25.0956,1.22895349 L25.1982,1.32872093 C25.2,1.32962791 25.2,1.32962791 25.1991,1.33053488 L25.2009,1.33144186 L25.3098,1.43665116 C25.3791,1.5055814 25.4484,1.57360465 25.5141,1.64072093 L25.713,1.84297674 C25.9767,2.11234884 26.226,2.38353488 26.4735,2.65562791 C26.964,3.19890698 27.4329,3.75125581 27.8865,4.3135814 C28.7901,5.43823256 29.6307,6.60006977 30.4092,7.79909302 C31.968,10.1962326 33.2811,12.7466512 34.3098,15.406814 C35.3376,18.0660698 36.0684,20.8405116 36.4554,23.6512326 C36.6489,25.0561395 36.7569,26.4701163 36.7821,27.8795581 L36.7875,28.4083256 L36.7902,28.6722558 C36.7893,28.7602326 36.7866,28.8482093 36.7848,28.936186 C36.7767,29.288093 36.7704,29.639093 36.7569,29.990093 L36.6948,31.0412791 C36.6705,31.3904651 36.6318,31.7387442 36.6003,32.0870233 C36.4536,33.4783256 36.234,34.8551163 35.937,36.2092326 C35.8812,36.4541163 35.8236,36.699 35.7642,36.9438837 C35.6877,37.2567907 35.6076,37.5687907 35.5248,37.8789767 C35.5104,37.9333953 35.496,37.986907 35.4807,38.0413256 C35.3592,38.4884651 35.5059,38.9673488 35.8614,39.2612093 C35.9154,39.3056512 35.9685,39.351 36.0216,39.3963488 C36.2727,39.6103953 36.5157,39.8326047 36.7515,40.0620698 C39.6945,42.9453488 41.3919,47.0829767 41.0364,51.5380465 Z" fill="url(#linearGradient-2)"></path>
                            </g>
                            <g transform="translate(0.000000, 4.353488)">
                                <path d="M12.6882,3.25060465 C13.5576,3.00027907 14.2812,2.77534884 16.362,2.6284186 C17.0253,2.58125581 17.4717,2.90686047 17.6823,3.44016279 C18.1053,4.51583721 18.0189,5.85272093 17.9703,7.098 C17.7309,13.1575116 12.8187,17.8801395 6.9984,17.6470465 C5.2776,17.5781163 3.6702,17.082907 2.2653,16.263907 C2.088,16.1605116 1.9935,15.9582558 2.0232,15.754186 C2.9052,9.69104651 7.1721,4.83872093 12.6882,3.25060465 Z" fill="url(#linearGradient-3)"></path>
                                <path d="M15.3369,1.17 C15.5142,1.26251163 15.6888,1.36046512 15.8598,1.46204651 C15.9039,1.48834884 15.948,1.51465116 15.9921,1.54186047 C16.0002,1.54639535 16.0074,1.55093023 16.0155,1.55637209 C16.0101,1.55637209 16.0038,1.55637209 15.9984,1.55546512 C15.8787,1.55274419 15.7599,1.55183721 15.6411,1.55274419 C15.1371,1.55455814 14.6385,1.5835814 14.1471,1.638 C13.464,1.71327907 12.7935,1.83662791 12.1401,2.00623256 C11.8071,2.09239535 11.4786,2.19034884 11.1546,2.30009302 C10.7703,2.4297907 10.3941,2.57672093 10.0242,2.73816279 C5.1678,4.85504651 2.0835,9.74909302 1.5327,15.483907 C1.5237,15.5782326 1.3959,15.6 1.3572,15.5129302 C0.6993,14.038186 -0.0441,12.2922558 0.0225,10.6034651 C0.1953,6.23274419 2.7918,2.55586047 6.408,0.922395349 C6.4179,0.917860465 6.4287,0.913325581 6.4386,0.908790698 C6.4449,0.906069767 6.4503,0.903348837 6.4566,0.900627907 C6.6303,0.823534884 6.8058,0.750976744 6.984,0.682953488 C8.2413,0.204069767 9.6066,-0.0335581395 11.0259,0.0235813953 C12.1347,0.0680232558 13.1958,0.289325581 14.1876,0.658465116 C14.5818,0.807209302 14.9661,0.97772093 15.3369,1.17 Z" fill="url(#linearGradient-4)"></path>
                            </g>
                        </g>
                        <path d="M160.29,9.13053488 L146.79,9.13053488 C145.7874,9.13053488 144.9333,9.79988372 144.6444,10.7168372 C144.5769,10.9317907 144.54,11.1603488 144.54,11.3979767 L144.54,36.3398372 C144.54,39.6085814 142.8885,41.7608372 141.9039,42.7530698 C140.9193,43.7453023 138.7836,45.4096047 135.54,45.4096047 C132.2964,45.4096047 130.1607,43.7453023 129.1761,42.7530698 C128.1915,41.7608372 126.54,39.6085814 126.54,36.3398372 L126.54,11.3979767 C126.54,11.1603488 126.5031,10.9317907 126.4356,10.7168372 C126.1467,9.79988372 125.2926,9.13053488 124.29,9.13053488 L110.79,9.13053488 C109.5525,9.13053488 108.54,10.1508837 108.54,11.3979767 L108.54,36.3398372 C108.54,48.1477674 116.0028,58.1988837 126.4356,61.9628372 C129.2796,62.9895349 132.345,63.5491395 135.54,63.5491395 C138.735,63.5491395 141.8004,62.9895349 144.6444,61.9628372 C144.9333,62.8797907 145.7874,63.5491395 146.79,63.5491395 L160.29,63.5491395 C161.5275,63.5491395 162.54,62.5287907 162.54,61.2816977 L162.54,11.3979767 C162.54,10.1508837 161.5275,9.13053488 160.29,9.13053488 Z" id="Path" fill="url(#linearGradient-5)"></path>
                        <path d="M77.04,9.13053488 C73.8846,9.13053488 70.8552,9.67653488 68.04,10.6787442 C57.5532,14.4145814 50.04,24.492907 50.04,36.3398372 L50.04,61.2816977 C50.04,61.5193256 50.0769,61.7478837 50.1444,61.9628372 C50.4333,62.8797907 51.2874,63.5491395 52.29,63.5491395 L65.79,63.5491395 C66.7926,63.5491395 67.6467,62.8797907 67.9356,61.9628372 C67.9356,61.9628372 67.9356,61.9628372 67.9356,61.9628372 C67.9356,61.9619302 67.9356,61.9610233 67.9365,61.9610233 C67.9518,61.9120465 67.9653,61.8630698 67.977,61.813186 C67.9797,61.8032093 67.9815,61.7932326 67.9842,61.7832558 C67.995,61.7342791 68.0058,61.6843953 68.013,61.6336047 C68.013,61.6326977 68.013,61.6317907 68.0139,61.6308837 C68.022,61.580093 68.0274,61.5283953 68.0319,61.4766977 C68.0328,61.464907 68.0337,61.4522093 68.0346,61.4404186 C68.0382,61.3887209 68.0409,61.3361163 68.0409,61.2826047 L68.0409,36.3407442 C68.0409,33.072 69.6924,30.9197442 70.677,29.9275116 C71.6616,28.9352791 73.7973,27.2709767 77.0409,27.2709767 C80.2845,27.2709767 82.4202,28.9352791 83.4048,29.9275116 C84.3894,30.9197442 86.0409,33.072 86.0409,36.3407442 L86.0409,61.2826047 C86.0409,61.5202326 86.0778,61.7487907 86.1453,61.9637442 C86.4342,62.8806977 87.2883,63.5500465 88.2909,63.5500465 L101.7909,63.5500465 C103.0284,63.5500465 104.0409,62.5296977 104.0409,61.2826047 L104.0409,36.3407442 C104.04,21.3121395 91.9521,9.13053488 77.04,9.13053488 Z" id="Path" fill="url(#linearGradient-6)"></path>
                        <path d="M77.04,9.13053488 C73.8846,9.13053488 70.8552,9.67653488 68.04,10.6787442 C57.5532,14.4145814 50.04,24.492907 50.04,36.3398372 L50.04,61.2816977 C50.04,61.5193256 50.0769,61.7478837 50.1444,61.9628372 C50.4333,62.8797907 51.2874,63.5491395 52.29,63.5491395 L65.79,63.5491395 C66.7926,63.5491395 67.6467,62.8797907 67.9356,61.9628372 C67.9356,61.9628372 67.9356,61.9628372 67.9356,61.9628372 C67.9356,61.9619302 67.9356,61.9610233 67.9365,61.9610233 C67.9518,61.9120465 67.9653,61.8630698 67.977,61.813186 C67.9797,61.8032093 67.9815,61.7932326 67.9842,61.7832558 C67.995,61.7342791 68.0058,61.6843953 68.013,61.6336047 C68.013,61.6326977 68.013,61.6317907 68.0139,61.6308837 C68.022,61.580093 68.0274,61.5283953 68.0319,61.4766977 C68.0328,61.464907 68.0337,61.4522093 68.0346,61.4404186 C68.0382,61.3887209 68.0409,61.3361163 68.0409,61.2826047 L68.0409,36.3407442 C68.0409,33.072 69.6924,30.9197442 70.677,29.9275116 C71.6616,28.9352791 73.7973,27.2709767 77.0409,27.2709767 C80.2845,27.2709767 82.4202,28.9352791 83.4048,29.9275116 C84.3894,30.9197442 86.0409,33.072 86.0409,36.3407442 L86.0409,61.2826047 C86.0409,61.5202326 86.0778,61.7487907 86.1453,61.9637442 C86.4342,62.8806977 87.2883,63.5500465 88.2909,63.5500465 L101.7909,63.5500465 C103.0284,63.5500465 104.0409,62.5296977 104.0409,61.2826047 L104.0409,36.3407442 C104.04,21.3121395 91.9521,9.13053488 77.04,9.13053488 Z" id="Path" fill="url(#linearGradient-7)"></path>
                        <path d="M53.3025,56.5173488 C52.2324,56.9735581 51.1443,57.368093 50.04,57.6991395 L50.04,61.2816977 C50.04,62.5287907 51.0525,63.5491395 52.29,63.5491395 L65.79,63.5491395 C67.0275,63.5491395 68.04,62.5287907 68.04,61.2816977 L68.04,43.6328372 C66.7242,45.8367907 65.1429,47.8729535 63.3141,49.7168372 C60.4224,52.6300465 57.0546,54.9183488 53.3025,56.5173488 Z" id="Path" fill="url(#linearGradient-8)"></path>
                        <path d="M89.3025,56.5082791 C88.2324,56.9644884 87.1443,57.3590233 86.04,57.6900698 L86.04,61.2726279 C86.04,62.5197209 87.0525,63.5400698 88.29,63.5400698 L101.79,63.5400698 C103.0275,63.5400698 104.04,62.5197209 104.04,61.2726279 L104.04,43.6237674 C102.7242,45.8277209 101.1429,47.8638837 99.3141,49.7077674 C96.4224,52.6209767 93.0546,54.9092791 89.3025,56.5082791 Z" id="Path" fill="url(#linearGradient-9)"></path>
                        <path d="M289.44,36.3398372 L289.44,61.2816977 C289.44,62.5287907 288.4275,63.5491395 287.19,63.5491395 L273.69,63.5491395 C272.6874,63.5491395 271.8333,62.8797907 271.5444,61.9628372 C271.4769,61.7478837 271.44,61.5193256 271.44,61.2816977 L271.44,36.3398372 C271.44,33.071093 269.7885,30.9188372 268.8039,29.9266047 C267.8193,28.9343721 265.6836,27.2700698 262.44,27.2700698 C259.1964,27.2700698 257.0607,28.9343721 256.0761,29.9266047 C255.0915,30.9188372 253.44,33.071093 253.44,36.3398372 C253.44,39.6085814 255.0915,41.7608372 256.0761,42.7530698 C257.0193,43.7035814 259.0173,45.2699302 262.0332,45.4005349 C262.1664,45.4068837 262.3023,45.4096047 262.44,45.4096047 L264.69,45.4096047 C265.8888,45.4096047 266.8761,46.3673721 266.9373,47.5609535 C266.9391,47.5963256 266.94,47.6316977 266.94,47.6679767 L266.94,61.2726279 C266.94,61.3134419 266.9391,61.3542558 266.9373,61.3941628 C266.9337,61.4721628 266.9256,61.5492558 266.9139,61.6245349 C266.7942,62.4090698 266.2722,63.064814 265.5693,63.3677442 C265.2984,63.4847442 265.0014,63.5491395 264.69,63.5491395 L262.44,63.5491395 C262.2069,63.5491395 261.9747,63.5464186 261.7434,63.5400698 C260.3871,63.5056047 259.056,63.3704651 257.7564,63.141 C256.2354,62.8725349 254.7576,62.476186 253.3356,61.9628372 C252.4896,61.657186 251.6625,61.3107209 250.8579,60.9252558 C248.0544,59.5820233 245.5182,57.7662558 243.3483,55.5795349 C240.5556,52.765186 238.3722,49.3386279 237.0141,45.514814 C235.9953,42.6487674 235.44,39.5596047 235.44,36.3398372 C235.44,21.3121395 247.5279,9.13053488 262.44,9.13053488 C277.3521,9.13053488 289.44,21.3121395 289.44,36.3398372 Z" id="Path" fill="url(#linearGradient-10)"></path>
                        <path d="M77.04,9.13053488 C73.8846,9.13053488 70.8552,9.67653488 68.04,10.6787442 C57.5532,14.4145814 50.04,24.492907 50.04,36.3398372 L50.04,61.2816977 C50.04,61.5193256 50.0769,61.7478837 50.1444,61.9628372 C50.4333,62.8797907 51.2874,63.5491395 52.29,63.5491395 L65.79,63.5491395 C66.7926,63.5491395 67.6467,62.8797907 67.9356,61.9628372 C67.9356,61.9628372 67.9356,61.9628372 67.9356,61.9628372 C67.9356,61.9619302 67.9356,61.9610233 67.9365,61.9610233 C67.9518,61.9120465 67.9653,61.8630698 67.977,61.813186 C67.9797,61.8032093 67.9815,61.7932326 67.9842,61.7832558 C67.995,61.7342791 68.0058,61.6843953 68.013,61.6336047 C68.013,61.6326977 68.013,61.6317907 68.0139,61.6308837 C68.022,61.580093 68.0274,61.5283953 68.0319,61.4766977 C68.0328,61.464907 68.0337,61.4522093 68.0346,61.4404186 C68.0382,61.3887209 68.0409,61.3361163 68.0409,61.2826047 L68.0409,36.3407442 C68.0409,33.072 69.6924,30.9197442 70.677,29.9275116 C71.6616,28.9352791 73.7973,27.2709767 77.0409,27.2709767 C80.2845,27.2709767 82.4202,28.9352791 83.4048,29.9275116 C84.3894,30.9197442 86.0409,33.072 86.0409,36.3407442 L86.0409,61.2826047 C86.0409,61.5202326 86.0778,61.7487907 86.1453,61.9637442 C86.4342,62.8806977 87.2883,63.5500465 88.2909,63.5500465 L101.7909,63.5500465 C103.0284,63.5500465 104.0409,62.5296977 104.0409,61.2826047 L104.0409,36.3407442 C104.04,21.3121395 91.9521,9.13053488 77.04,9.13053488 Z" id="Path" fill="url(#linearGradient-11)"></path>
                        <path d="M64.7775,7.09255814 C65.8476,6.63634884 66.9357,6.24181395 68.04,5.91076744 L68.04,2.3282093 C68.04,1.08111628 67.0275,0.0607674419 65.79,0.0607674419 L52.29,0.0607674419 C51.0525,0.0607674419 50.04,1.08111628 50.04,2.3282093 L50.04,19.9770698 C51.3558,17.7731163 52.9371,15.7369535 54.7659,13.8930698 C57.6576,10.9798605 61.0254,8.69155814 64.7775,7.09255814 Z" id="Path" fill="url(#linearGradient-12)"></path>
                        <path d="M135.54,63.5790698 C138.6954,63.5790698 141.7248,63.0330698 144.54,62.0308605 C155.0268,58.2950233 162.54,48.2166977 162.54,36.3697674 L162.54,11.427907 C162.54,11.1902791 162.5031,10.9617209 162.4356,10.7467674 C162.1467,9.82981395 161.2926,9.16046512 160.29,9.16046512 L146.79,9.16046512 C145.7874,9.16046512 144.9333,9.82981395 144.6444,10.7467674 C144.6444,10.7467674 144.6444,10.7467674 144.6444,10.7467674 C144.6444,10.7476744 144.6444,10.7485814 144.6435,10.7485814 C144.6282,10.7975581 144.6147,10.8465349 144.603,10.8964186 C144.6003,10.9063953 144.5985,10.9163721 144.5958,10.9263488 C144.585,10.9753256 144.5742,11.0252093 144.567,11.076 C144.567,11.076907 144.567,11.077814 144.5661,11.0787209 C144.558,11.1295116 144.5526,11.1812093 144.5481,11.232907 C144.5472,11.2446977 144.5463,11.2573953 144.5454,11.269186 C144.5418,11.3208837 144.5391,11.3734884 144.5391,11.427 L144.5391,36.3688605 C144.5391,39.6376047 142.8876,41.7898605 141.903,42.782093 C140.9184,43.7743256 138.7836,45.4395349 135.54,45.4395349 C132.2964,45.4395349 130.1607,43.7752326 129.1761,42.783 C128.1915,41.7907674 126.54,39.6385116 126.54,36.3697674 L126.54,11.427907 C126.54,11.1902791 126.5031,10.9617209 126.4356,10.7467674 C126.1467,9.82981395 125.2926,9.16046512 124.29,9.16046512 L110.79,9.16046512 C109.5525,9.16046512 108.54,10.180814 108.54,11.427907 L108.54,36.3697674 C108.54,51.3974651 120.6279,63.5790698 135.54,63.5790698 Z" id="Path" fill="url(#linearGradient-13)"></path>
                        <path d="M53.3025,56.5173488 C52.2324,56.9735581 51.1443,57.368093 50.04,57.6991395 L50.04,61.2816977 C50.04,62.5287907 51.0525,63.5491395 52.29,63.5491395 L65.79,63.5491395 C67.0275,63.5491395 68.04,62.5287907 68.04,61.2816977 L68.04,43.6328372 C66.7242,45.8367907 65.1429,47.8729535 63.3141,49.7168372 C60.4224,52.6300465 57.0546,54.9183488 53.3025,56.5173488 Z" id="Path" fill="url(#linearGradient-8)"></path>
                        <path d="M89.3025,56.5082791 C88.2324,56.9644884 87.1443,57.3590233 86.04,57.6900698 L86.04,61.2726279 C86.04,62.5197209 87.0525,63.5400698 88.29,63.5400698 L101.79,63.5400698 C103.0275,63.5400698 104.04,62.5197209 104.04,61.2726279 L104.04,43.6237674 C102.7242,45.8277209 101.1429,47.8638837 99.3141,49.7077674 C96.4224,52.6209767 93.0546,54.9092791 89.3025,56.5082791 Z" id="Path" fill="url(#linearGradient-9)"></path>
                        <path d="M274.7025,56.5082791 C273.6324,56.9644884 272.5443,57.3590233 271.44,57.6900698 L271.44,61.2726279 C271.44,62.5197209 272.4525,63.5400698 273.69,63.5400698 L287.19,63.5400698 C288.4275,63.5400698 289.44,62.5197209 289.44,61.2726279 L289.44,43.6237674 C288.1242,45.8277209 286.5429,47.8638837 284.7141,49.7077674 C281.8224,52.6209767 278.4546,54.9092791 274.7025,56.5082791 Z" id="Path" fill="url(#linearGradient-9)"></path>
                        <path d="M266.94,47.6679767 L266.94,61.2726279 C266.94,61.3134419 266.9391,61.3542558 266.9373,61.3941628 C266.8734,62.5850233 265.887,63.5400698 264.69,63.5400698 L261.7434,63.5400698 C260.3871,63.5056047 259.056,63.3704651 257.7564,63.141 C256.2354,62.8725349 254.7576,62.476186 253.3356,61.9628372 C252.4896,61.657186 251.6625,61.3107209 250.8579,60.9252558 C251.6742,60.253186 252.4599,59.5366744 253.2141,58.7775349 C256.1049,55.8634186 258.3756,52.4695116 259.9623,48.6883256 C260.415,47.6099302 260.8065,46.5133953 261.135,45.4005349 L264.69,45.4005349 C265.8915,45.4005349 266.8815,46.3628372 266.9373,47.5609535 C266.9391,47.5963256 266.94,47.6316977 266.94,47.6679767 Z" id="Path" fill="url(#linearGradient-14)"></path>
                        <path d="M123.2775,16.1623256 C124.3476,15.7061163 125.4357,15.3115814 126.54,14.9805349 L126.54,11.3979767 C126.54,10.1508837 125.5275,9.13053488 124.29,9.13053488 L110.79,9.13053488 C109.5525,9.13053488 108.54,10.1508837 108.54,11.3979767 L108.54,29.0468372 C109.8558,26.8428837 111.4371,24.8067209 113.2659,22.9628372 C116.1576,20.0496279 119.5254,17.7613256 123.2775,16.1623256 Z" id="Path" fill="url(#linearGradient-15)"></path>
                        <path d="M159.2775,16.1532558 C160.3476,15.6970465 161.4357,15.3025116 162.54,14.9714651 L162.54,11.388907 C162.54,10.141814 161.5275,9.12146512 160.29,9.12146512 L146.79,9.12146512 C145.5525,9.12146512 144.54,10.141814 144.54,11.388907 L144.54,29.0377674 C145.8558,26.833814 147.4371,24.7976512 149.2659,22.9537674 C152.1576,20.0405581 155.5254,17.7522558 159.2775,16.1532558 Z" id="Path" fill="url(#linearGradient-16)"></path>
                        <g transform="translate(167.040000, 9.069767)" id="Path">
                            <path d="M31.5,2.3282093 L31.5,15.9328605 C31.5,17.1799535 30.4875,18.2003023 29.25,18.2003023 L27,18.2003023 C23.7564,18.2003023 21.6207,19.8646047 20.6361,20.8568372 C19.6515,21.8490698 18,24.0013256 18,27.2700698 L18,52.2119302 C18,52.4495581 17.9631,52.6781163 17.8956,52.8930698 C17.6067,53.8100233 16.7526,54.4793721 15.75,54.4793721 L2.25,54.4793721 C1.0125,54.4793721 0,53.4590233 0,52.2119302 L0,27.2700698 C0,24.0503023 0.5553,20.9611395 1.5741,18.095093 C3.9888,11.2982093 9.0108,5.75295349 15.4251,2.68102326 C16.2279,2.29646512 17.0514,1.95181395 17.8956,1.64706977 C20.7396,0.620372093 23.805,0.0607674419 27,0.0607674419 L29.25,0.0607674419 C29.4822,0.0607674419 29.7063,0.0970465116 29.9169,0.163255814 C29.952,0.174139535 29.9871,0.185930233 30.0213,0.198627907 C30.0951,0.225837209 30.1671,0.257581395 30.2364,0.292046512 C30.2607,0.303837209 30.285,0.316534884 30.3084,0.329232558 C30.4965,0.430813953 30.6684,0.558697674 30.8196,0.70744186 C30.8322,0.720139535 30.8457,0.732837209 30.8583,0.74644186 C30.897,0.786348837 30.9339,0.827162791 30.969,0.869790698 C30.9861,0.889744186 31.0032,0.910604651 31.0194,0.932372093 C31.0698,0.996767442 31.1166,1.06388372 31.1598,1.13372093 C31.1688,1.14823256 31.1778,1.16274419 31.1859,1.17725581 C31.1976,1.19630233 31.2084,1.21534884 31.2183,1.23439535 C31.2264,1.248 31.2336,1.26160465 31.2408,1.27611628 C31.2669,1.32418605 31.2903,1.37406977 31.3119,1.42395349 C31.3227,1.44934884 31.3335,1.47474419 31.3434,1.50104651 C31.3542,1.52644186 31.3632,1.55183721 31.3722,1.57813953 C31.3911,1.63074419 31.4082,1.68516279 31.4226,1.7395814 C31.4271,1.75772093 31.4316,1.77586047 31.4361,1.79490698 C31.4406,1.81123256 31.4451,1.82846512 31.4478,1.84569767 C31.4514,1.86202326 31.455,1.87834884 31.4577,1.89467442 C31.4658,1.93095349 31.4721,1.96813953 31.4766,2.00532558 C31.4811,2.03434884 31.4847,2.06427907 31.4874,2.09330233 C31.4883,2.09693023 31.4883,2.10055814 31.4892,2.10418605 C31.4919,2.13230233 31.4937,2.1604186 31.4955,2.18853488 C31.4964,2.20304651 31.4973,2.21846512 31.4982,2.23297674 C31.4991,2.26472093 31.5,2.29646512 31.5,2.3282093 Z" fill="url(#linearGradient-17)"></path>
                            <path d="M3.2625,47.4475814 C2.1924,47.9037907 1.1043,48.2983256 0,48.6293721 L0,52.2119302 C0,53.4590233 1.0125,54.4793721 2.25,54.4793721 L15.75,54.4793721 C16.9875,54.4793721 18,53.4590233 18,52.2119302 L18,34.5630698 C16.6842,36.7670233 15.1029,38.803186 13.2741,40.6470698 C10.3824,43.5602791 7.0146,45.8485814 3.2625,47.4475814 Z" fill="url(#linearGradient-18)"></path>
                            <path d="M31.5,2.3282093 L31.5,15.9328605 C31.5,17.1799535 30.4875,18.2003023 29.25,18.2003023 L25.695,18.2003023 C25.3665,17.0874419 24.975,15.990907 24.5223,14.9125116 C22.9356,11.1313256 20.6649,7.7374186 17.7741,4.82330233 C17.0226,4.06688372 16.2387,3.35218605 15.4251,2.68102326 C16.2279,2.29646512 17.0514,1.95181395 17.8956,1.64706977 C20.7396,0.620372093 23.805,0.0607674419 27,0.0607674419 L29.25,0.0607674419 C29.4822,0.0607674419 29.7063,0.0970465116 29.9169,0.163255814 C29.952,0.174139535 29.9871,0.185930233 30.0213,0.198627907 C30.0951,0.225837209 30.1671,0.257581395 30.2364,0.292046512 C30.2607,0.303837209 30.285,0.316534884 30.3084,0.329232558 C30.4965,0.430813953 30.6684,0.558697674 30.8196,0.70744186 C30.8331,0.720139535 30.8457,0.732837209 30.8583,0.74644186 C30.897,0.786348837 30.9339,0.827162791 30.969,0.869790698 C30.9861,0.889744186 31.0032,0.910604651 31.0194,0.932372093 C31.0698,0.996767442 31.1166,1.06388372 31.1598,1.13372093 C31.1688,1.14823256 31.1778,1.16274419 31.1859,1.17725581 C31.1976,1.19630233 31.2084,1.21534884 31.2183,1.23439535 C31.2264,1.248 31.2336,1.26160465 31.2408,1.27611628 C31.2669,1.32418605 31.2903,1.37316279 31.3119,1.42395349 C31.3227,1.44934884 31.3335,1.47474419 31.3434,1.50104651 C31.3542,1.52644186 31.3632,1.55183721 31.3722,1.57813953 C31.3911,1.63074419 31.4082,1.68516279 31.4226,1.7395814 C31.4271,1.75772093 31.4316,1.77586047 31.4361,1.79490698 C31.4406,1.81123256 31.4451,1.82846512 31.4478,1.84569767 C31.4514,1.86202326 31.455,1.87834884 31.4577,1.89467442 C31.4658,1.93095349 31.4721,1.96813953 31.4766,2.00532558 C31.4811,2.03434884 31.4847,2.06427907 31.4874,2.09330233 C31.4883,2.09693023 31.4883,2.10055814 31.4892,2.10418605 C31.4919,2.13230233 31.4937,2.1604186 31.4955,2.18853488 C31.4964,2.20304651 31.4973,2.21846512 31.4982,2.23297674 C31.4991,2.26472093 31.5,2.29646512 31.5,2.3282093 Z" fill="url(#linearGradient-19)"></path>
                        </g>
                        <g transform="translate(201.240000, 9.069767)" id="Path">
                            <path d="M31.5,2.31913953 L31.5,15.9237907 C31.5,17.1708837 30.4875,18.1912326 29.25,18.1912326 L27,18.1912326 C23.7564,18.1912326 21.6207,19.8555349 20.6361,20.8477674 C19.6515,21.84 18,23.9922558 18,27.261 L18,52.2028605 C18,52.4404884 17.9631,52.6690465 17.8956,52.884 C17.6067,53.8009535 16.7526,54.4703023 15.75,54.4703023 L2.25,54.4703023 C1.0125,54.4703023 0,53.4499535 0,52.2028605 L0,27.261 C0,24.0412326 0.5553,20.9520698 1.5741,18.0860233 C3.9888,11.2891395 9.0108,5.74388372 15.4251,2.67195349 C16.2279,2.28739535 17.0514,1.94274419 17.8956,1.638 C20.7396,0.611302326 23.805,0.0516976744 27,0.0516976744 L29.25,0.0516976744 C29.4822,0.0516976744 29.7063,0.0879767442 29.9169,0.154186047 C29.952,0.165069767 29.9871,0.176860465 30.0213,0.18955814 C30.0951,0.216767442 30.1671,0.248511628 30.2364,0.282976744 C30.2607,0.294767442 30.285,0.307465116 30.3084,0.320162791 C30.4965,0.421744186 30.6684,0.549627907 30.8196,0.698372093 C30.8322,0.711069767 30.8457,0.723767442 30.8583,0.737372093 C30.897,0.77727907 30.9339,0.818093023 30.969,0.86072093 C30.9861,0.880674419 31.0032,0.901534884 31.0194,0.923302326 C31.0698,0.987697674 31.1166,1.05481395 31.1598,1.12465116 C31.1688,1.13916279 31.1778,1.15367442 31.1859,1.16818605 C31.1976,1.18723256 31.2084,1.20627907 31.2183,1.22532558 C31.2264,1.23893023 31.2336,1.25253488 31.2408,1.26704651 C31.2669,1.31511628 31.2903,1.365 31.3119,1.41488372 C31.3227,1.44027907 31.3335,1.46567442 31.3434,1.49197674 C31.3542,1.51737209 31.3632,1.54276744 31.3722,1.56906977 C31.3911,1.62167442 31.4082,1.67609302 31.4226,1.73051163 C31.4271,1.74865116 31.4316,1.7667907 31.4361,1.78583721 C31.4406,1.80216279 31.4451,1.81939535 31.4478,1.83662791 C31.4514,1.85295349 31.455,1.86927907 31.4577,1.88560465 C31.4658,1.92188372 31.4721,1.95906977 31.4766,1.99625581 C31.4811,2.02527907 31.4847,2.0552093 31.4874,2.08423256 C31.4883,2.08786047 31.4883,2.09148837 31.4892,2.09511628 C31.4919,2.12323256 31.4937,2.15134884 31.4955,2.17946512 C31.4964,2.19397674 31.4973,2.20939535 31.4982,2.22390698 C31.4991,2.25565116 31.5,2.28739535 31.5,2.31913953 Z" fill="url(#linearGradient-20)"></path>
                            <path d="M3.2625,47.4385116 C2.1924,47.8947209 1.1043,48.2892558 0,48.6203023 L0,52.2028605 C0,53.4499535 1.0125,54.4703023 2.25,54.4703023 L15.75,54.4703023 C16.9875,54.4703023 18,53.4499535 18,52.2028605 L18,34.554 C16.6842,36.7579535 15.1029,38.7941163 13.2741,40.638 C10.3824,43.5512093 7.0146,45.8395116 3.2625,47.4385116 Z" fill="url(#linearGradient-21)"></path>
                            <path d="M31.5,2.31913953 L31.5,15.9237907 C31.5,17.1708837 30.4875,18.1912326 29.25,18.1912326 L25.695,18.1912326 C25.3665,17.0783721 24.975,15.9818372 24.5223,14.9034419 C22.9356,11.1222558 20.6649,7.72834884 17.7741,4.81423256 C17.0226,4.05781395 16.2387,3.34311628 15.4251,2.67195349 C16.2279,2.28739535 17.0514,1.94274419 17.8956,1.638 C20.7396,0.611302326 23.805,0.0516976744 27,0.0516976744 L29.25,0.0516976744 C29.4822,0.0516976744 29.7063,0.0879767442 29.9169,0.154186047 C29.952,0.165069767 29.9871,0.176860465 30.0213,0.18955814 C30.0951,0.216767442 30.1671,0.248511628 30.2364,0.282976744 C30.2607,0.294767442 30.285,0.307465116 30.3084,0.320162791 C30.4965,0.421744186 30.6684,0.549627907 30.8196,0.698372093 C30.8331,0.711069767 30.8457,0.723767442 30.8583,0.737372093 C30.897,0.77727907 30.9339,0.818093023 30.969,0.86072093 C30.9861,0.880674419 31.0032,0.901534884 31.0194,0.923302326 C31.0698,0.987697674 31.1166,1.05481395 31.1598,1.12465116 C31.1688,1.13916279 31.1778,1.15367442 31.1859,1.16818605 C31.1976,1.18723256 31.2084,1.20627907 31.2183,1.22532558 C31.2264,1.23893023 31.2336,1.25253488 31.2408,1.26704651 C31.2669,1.31511628 31.2903,1.36409302 31.3119,1.41488372 C31.3227,1.44027907 31.3335,1.46567442 31.3434,1.49197674 C31.3542,1.51737209 31.3632,1.54276744 31.3722,1.56906977 C31.3911,1.62167442 31.4082,1.67609302 31.4226,1.73051163 C31.4271,1.74865116 31.4316,1.7667907 31.4361,1.78583721 C31.4406,1.80216279 31.4451,1.81939535 31.4478,1.83662791 C31.4514,1.85295349 31.455,1.86927907 31.4577,1.88560465 C31.4658,1.92188372 31.4721,1.95906977 31.4766,1.99625581 C31.4811,2.02527907 31.4847,2.0552093 31.4874,2.08423256 C31.4883,2.08786047 31.4883,2.09148837 31.4892,2.09511628 C31.4919,2.12323256 31.4937,2.15134884 31.4955,2.17946512 C31.4964,2.19397674 31.4973,2.20939535 31.4982,2.22390698 C31.4991,2.25565116 31.5,2.28739535 31.5,2.31913953 Z" fill="url(#linearGradient-22)"></path>
                        </g>
                    </g>
                </g>
                <g id="Group" transform="translate(0.090000, 0.000000)">
                    <g fill-rule="nonzero" id="Path">
                        <g>
                            <path d="M26.5104,14.6993721 C26.3106,16.6838372 25.9641,18.6537907 25.4358,20.5747674 C25.173,21.5352558 24.8661,22.4821395 24.516,23.4108837 C24.1659,24.3405349 23.7735,25.2511395 23.3298,26.1354419 C22.887,27.0197442 22.4019,27.8786512 21.8763,28.7085349 C21.6693,29.0314186 21.4551,29.3497674 21.2355,29.6617674 C21.1275,29.8159535 21.141,30.0236512 21.2697,30.1615116 C21.321,30.2168372 21.3723,30.2721628 21.4227,30.3283953 C21.6126,30.5415349 21.7953,30.7583023 21.9708,30.9823256 C22.7664,32.0008605 23.4027,33.1436512 23.8509,34.3644419 C23.8716,34.4197674 23.8365,34.4805349 23.7789,34.4914186 C23.067,34.6292791 22.3641,34.8170233 21.6711,35.0528372 C19.7046,35.724 17.9073,36.7597674 16.3296,38.1320233 C14.7519,39.5042791 13.4712,41.144093 12.5244,43.0061163 C11.5443,44.9343488 10.9656,47.0158605 10.8072,49.1935116 C10.7892,49.4456512 10.7757,49.6977907 10.7694,49.9490233 C10.7676,50.0224884 10.7658,50.0950465 10.7649,50.1685116 C10.764,50.2066047 10.764,50.2456047 10.764,50.2836977 C10.764,50.2927674 10.7631,50.3000233 10.764,50.308186 C10.764,50.3807442 10.7631,50.4514884 10.764,50.5240465 C10.764,50.5403721 10.7649,50.5557907 10.7649,50.5721163 C10.7658,50.659186 10.7676,50.7471628 10.7694,50.8351395 C10.7703,50.8378605 10.7694,50.8405814 10.7694,50.8442093 L10.7694,50.8442093 C10.7721,50.9031628 10.7208,50.9512326 10.6623,50.9430698 C10.3203,50.896814 9.9774,50.8351395 9.6345,50.7580465 C7.7958,50.3453721 6.1434,49.5363488 4.7484,48.439814 C4.6944,48.398093 4.6413,48.3563721 4.5882,48.3119302 C4.554,48.283814 4.5198,48.2556977 4.4865,48.2275814 C4.4496,48.1976512 4.4145,48.1677209 4.3794,48.1368837 C4.2912,48.0634186 4.2048,47.9863256 4.1193,47.9101395 C4.0689,47.8647907 4.0203,47.8185349 3.969,47.7722791 C3.9222,47.7287442 3.8745,47.6833953 3.8286,47.6380465 C3.7314,47.5455349 3.6369,47.4512093 3.5424,47.3550698 C3.5154,47.3269535 3.4875,47.2979302 3.4605,47.269814 C3.429,47.2371628 3.3993,47.2045116 3.3678,47.1718605 C3.3309,47.1328605 3.2949,47.0938605 3.2598,47.0548605 C3.2553,47.0494186 3.2508,47.0439767 3.2463,47.0394419 C3.2121,47.0022558 3.177,46.9632558 3.1446,46.9260698 C3.1293,46.9079302 3.114,46.8916047 3.0987,46.8743721 C3.015,46.7791395 2.9331,46.683 2.8521,46.5850465 C2.8512,46.5832326 2.8485,46.5814186 2.8467,46.5786977 C2.8044,46.527907 2.763,46.4753023 2.7207,46.4236047 C2.6784,46.371 2.6361,46.3174884 2.5956,46.2630698 C2.5605,46.2186279 2.5272,46.1723721 2.4921,46.1279302 C2.4669,46.096186 2.4435,46.0626279 2.4192,46.0281628 C2.3931,45.9936977 2.367,45.9574186 2.3409,45.9202326 C2.304,45.8694419 2.2689,45.8204651 2.2338,45.7687674 C2.1645,45.669907 2.0961,45.5683256 2.0295,45.4667442 C1.9971,45.4150465 1.9629,45.3624419 1.9296,45.3107442 C1.9062,45.2717442 1.8819,45.2336512 1.8567,45.1937442 C1.8351,45.1574651 1.8126,45.121186 1.7901,45.084 C1.7559,45.0286744 1.7235,44.9724419 1.6911,44.9171163 C1.6641,44.8699535 1.6371,44.8236977 1.611,44.7774419 C1.584,44.7302791 1.5588,44.6840233 1.5336,44.6377674 C1.5327,44.6359535 1.5327,44.6350465 1.5327,44.6341395 C1.5066,44.5869767 1.4805,44.539814 1.4562,44.4926512 C1.4175,44.420093 1.3797,44.3475349 1.3428,44.2740698 C1.3059,44.2006047 1.269,44.1262326 1.2339,44.0527674 C1.2069,43.9965349 1.1808,43.9412093 1.1547,43.8840698 C1.1286,43.8278372 1.1025,43.7716047 1.0773,43.7153721 C1.053,43.6591395 1.0278,43.602907 1.0026,43.5448605 C0.9792,43.4886279 0.9549,43.4305814 0.9315,43.3734419 C0.9,43.2972558 0.8694,43.2201628 0.8397,43.1439767 C0.8109,43.0668837 0.7812,42.9888837 0.7533,42.9117907 C0.7245,42.8337907 0.6975,42.7566977 0.6696,42.6768837 C0.6435,42.5988837 0.6174,42.5199767 0.5922,42.4410698 C0.567,42.3630698 0.5436,42.2859767 0.5193,42.2061628 C0.5193,42.2043488 0.5175,42.2007209 0.5166,42.198 C0.4959,42.1263488 0.4743,42.0546977 0.4545,41.9821395 C0.4518,41.9721628 0.4491,41.9603721 0.4464,41.9503953 C0.4446,41.9449535 0.4428,41.9395116 0.4419,41.9331628 C0.423,41.8642326 0.4041,41.7934884 0.3852,41.7227442 C0.3465,41.5685581 0.3096,41.4116512 0.2763,41.2547442 C0.2718,41.2356977 0.2673,41.2157442 0.2637,41.1957907 C0.2628,41.1921628 0.2628,41.1885349 0.2619,41.184907 L0.2592,41.1722093 C0.2493,41.1277674 0.2403,41.0824186 0.2313,41.0379767 L0.2268,41.0162093 C0.2232,40.9962558 0.2196,40.9763023 0.2151,40.9572558 C0.2034,40.8946744 0.1917,40.8293721 0.1818,40.7658837 C0.1656,40.675186 0.1503,40.5853953 0.1368,40.4956047 C0.1323,40.4620465 0.1269,40.4293953 0.1233,40.3967442 C0.117,40.3495814 0.1089,40.3033256 0.1035,40.2561628 C0.099,40.2235116 0.0954,40.1899535 0.0918,40.1563953 C0.0909,40.1518605 0.09,40.1464186 0.0891,40.1418837 C0.0855,40.1119535 0.0819,40.0811163 0.0783,40.051186 C0.0729,39.9931395 0.0657,39.935093 0.0603,39.8770465 C0.0549,39.819 0.0495,39.7609535 0.0441,39.702 L0.0378,39.6149302 C0.0333,39.5723023 0.0315,39.5305814 0.0279,39.4888605 C0.0243,39.4498605 0.0225,39.4108605 0.0207,39.3709535 C0.0198,39.3691395 0.0198,39.3691395 0.0198,39.3673256 C0.0171,39.3237907 0.0144,39.2784419 0.0135,39.234 C0.0108,39.1922791 0.0099,39.1505581 0.009,39.1097442 C0.0063,39.0752791 0.0063,39.039907 0.0054,39.0054419 C0.0045,38.9537442 0.0027,38.9029535 0.0027,38.8512558 C0.0018,38.8494419 0.0018,38.8476279 0.0027,38.845814 C0.0018,38.805 0.0027,38.7632791 0.0018,38.7224651 C0.0009,38.6616977 0.0018,38.6000233 0.0027,38.5392558 C0.0036,38.4821163 0.0036,38.4249767 0.0063,38.3678372 C0.0072,38.3215814 0.009,38.2753256 0.0108,38.2290698 C0.0099,38.220907 0.0117,38.2118372 0.0108,38.2045814 C0.0126,38.1710233 0.0135,38.1392791 0.0144,38.1075349 C0.018,38.0522093 0.0207,37.9968837 0.0225,37.9415581 C0.0261,37.8771628 0.0315,37.8118605 0.036,37.7465581 C0.0396,37.6857907 0.045,37.6241163 0.0513,37.5624419 C0.0549,37.518907 0.0594,37.4753721 0.0639,37.4327442 C0.0765,37.3066744 0.0909,37.1787907 0.1071,37.051814 C0.1134,37.0028372 0.1197,36.9538605 0.1269,36.9039767 C0.1296,36.8822093 0.1323,36.8604419 0.1359,36.8377674 C0.1458,36.776093 0.1548,36.7144186 0.1656,36.6527442 C0.1953,36.4704419 0.2286,36.2890465 0.2664,36.1076512 C0.2808,36.0405349 0.2952,35.9743256 0.3096,35.9081163 C0.3249,35.841907 0.3411,35.7756977 0.3555,35.7103953 C0.3654,35.6704884 0.3753,35.6314884 0.3843,35.5915814 C0.3879,35.5797907 0.3915,35.566186 0.3942,35.5534884 C0.405,35.5126744 0.4149,35.4727674 0.4257,35.4319535 C0.4491,35.3466977 0.4716,35.2614419 0.4968,35.176186 C0.5058,35.1453488 0.5148,35.1136047 0.5238,35.0809535 C0.5301,35.059186 0.5382,35.0374186 0.5445,35.0147442 C0.5526,34.9875349 0.5607,34.9612326 0.5688,34.9340233 C0.5823,34.8904884 0.5958,34.8487674 0.6093,34.8070465 C0.6228,34.7644186 0.6363,34.7226977 0.6498,34.6809767 C0.6642,34.6392558 0.6777,34.5975349 0.693,34.555814 C0.7056,34.5186279 0.7182,34.4814419 0.7317,34.4442558 C0.7479,34.398907 0.765,34.3535581 0.7812,34.3073023 C0.7974,34.2655814 0.8118,34.2256744 0.8271,34.1839535 C0.8433,34.1422326 0.8595,34.1014186 0.8757,34.0615116 C0.8919,34.0206977 0.9072,33.9798837 0.9243,33.9399767 L0.9747,33.8184419 C0.9765,33.812093 0.9792,33.8066512 0.9819,33.8012093 C1.0035,33.7486047 1.026,33.695093 1.0494,33.6433953 C1.0611,33.6143721 1.0755,33.5853488 1.0872,33.5572326 C1.1016,33.5245814 1.116,33.4919302 1.1313,33.4583721 C1.1493,33.4184651 1.1682,33.3794651 1.1862,33.3404651 C1.2042,33.3005581 1.2231,33.2615581 1.2411,33.2225581 C1.26,33.1844651 1.2789,33.1445581 1.2987,33.1064651 C1.3185,33.0683721 1.3374,33.0293721 1.3572,32.9903721 C1.3959,32.9132791 1.4355,32.837093 1.4769,32.760907 C1.4967,32.722814 1.5174,32.6847209 1.5381,32.6475349 C1.5579,32.6103488 1.5786,32.5722558 1.6002,32.5350698 C1.7055,32.3473256 1.8162,32.1641163 1.9305,31.9827209 C1.953,31.9464419 1.9755,31.9110698 1.9989,31.8747907 C2.1168,31.6915814 2.2401,31.512 2.367,31.3369535 C2.4138,31.2725581 2.4615,31.2072558 2.511,31.1428605 C2.7666,30.8045581 3.0384,30.4807674 3.3255,30.1733023 C3.3543,30.1433721 3.3831,30.1116279 3.4128,30.0807907 C3.456,30.0354419 3.5001,29.990093 3.5451,29.9447442 C3.5892,29.8993953 3.6324,29.8558605 3.6783,29.8105116 C3.708,29.7805814 3.7377,29.7515581 3.7683,29.7234419 C3.7971,29.6935116 3.8268,29.6644884 3.8574,29.6372791 C3.888,29.6073488 3.9186,29.5792326 3.9501,29.5502093 C3.9807,29.521186 4.0122,29.4930698 4.0428,29.4649535 C4.167,29.3524884 4.2939,29.2418372 4.4208,29.133 C4.4442,29.1148605 4.4658,29.095814 4.4892,29.0767674 C4.5207,29.0513721 4.5504,29.0259767 4.5819,29.0005814 C4.6494,28.9461628 4.7178,28.8917442 4.7871,28.8382326 C4.7961,28.8318837 4.8042,28.8246279 4.8132,28.8182791 C4.8789,28.7665814 4.9455,28.7166977 5.013,28.666814 L5.0292,28.6550233 C5.1039,28.5987907 5.1795,28.5443721 5.2551,28.4917674 C5.3325,28.4373488 5.409,28.3847442 5.4873,28.3330465 C5.526,28.3058372 5.5656,28.2813488 5.6043,28.2550465 C5.6439,28.2287442 5.6844,28.2042558 5.7231,28.1788605 L5.7375,28.1697907 C5.8077,28.1253488 5.8779,28.080907 5.9499,28.0364651 C5.9598,28.0310233 5.9688,28.0246744 5.9787,28.0192326 C6.0408,27.9820465 6.102,27.9457674 6.165,27.9085814 C6.1875,27.8958837 6.21,27.883186 6.2325,27.8695814 C6.3009,27.8305814 6.3702,27.7915814 6.4395,27.7543953 C6.8121,27.5512326 7.1964,27.3653023 7.5888,27.2011395 C7.632,27.183 7.6743,27.1648605 7.7193,27.1476279 C7.7643,27.1285814 7.8093,27.1113488 7.8534,27.0932093 C7.9389,27.0587442 8.0253,27.027 8.1117,26.9952558 C8.1567,26.9789302 8.2017,26.9616977 8.2467,26.9462791 C8.2908,26.9317674 8.3349,26.9163488 8.3799,26.9009302 C8.424,26.8855116 8.4699,26.871 8.514,26.8564884 C8.5158,26.8555814 8.5167,26.8546744 8.5185,26.8546744 C8.5248,26.8528605 8.5293,26.8501395 8.5356,26.8483256 C9.6777,26.440186 10.7919,26.2261395 11.8233,26.2179767 C12.1032,26.2152558 12.3768,26.2288605 12.6432,26.2569767 C12.8583,26.2796512 13.0689,26.3123023 13.2723,26.3567442 C14.2695,26.5662558 15.1371,27.0170233 15.8013,27.7253721 C16.2342,28.1861163 16.5546,28.7275814 16.767,29.327093 C16.9191,29.755186 17.0163,30.2123023 17.0613,30.693907 C17.0703,30.7855116 17.1882,30.8145349 17.2368,30.7374419 C17.2494,30.7174884 17.262,30.6975349 17.2737,30.6766744 C17.3907,30.4898372 17.5104,30.3057209 17.6238,30.1179767 L17.955,29.5483953 C18.3852,28.782907 18.7767,28.002 19.1223,27.2038605 C19.4634,26.403 19.7622,25.5876279 20.0196,24.7622791 C21.0429,21.4554419 21.3624,17.9826279 21.1473,14.5596977 C21.0411,12.8473256 20.8026,11.1440233 20.4489,9.47427907 C20.2743,8.64076744 20.0664,7.81451163 19.8324,7.00639535 C19.7154,6.6027907 19.5912,6.20281395 19.4598,5.81372093 C19.3941,5.61872093 19.3266,5.42825581 19.2582,5.2414186 L19.1556,4.97113953 L19.1043,4.84506977 L19.08,4.78883721 C19.0764,4.77976744 19.0728,4.77523256 19.0701,4.76797674 L19.0647,4.758 C19.0647,4.75981395 19.0647,4.76344186 19.0647,4.76525581 C18.4572,2.87148837 19.4877,0.840767442 21.3669,0.227651163 C22.7853,-0.234 24.282,0.244883721 25.1901,1.32146512 C25.1919,1.32237209 25.1919,1.32237209 25.191,1.32327907 L25.1928,1.32418605 C25.488,1.67337209 25.7202,2.08513953 25.8687,2.54769767 L25.8822,2.59667442 L25.8903,2.6284186 L25.9056,2.68918605 L25.9308,2.79983721 L25.9758,3.00662791 C26.0046,3.14267442 26.0307,3.27418605 26.0568,3.4047907 C26.1054,3.666 26.1513,3.92267442 26.1936,4.17753488 C26.2773,4.68725581 26.3475,5.19153488 26.4078,5.69581395 C26.4681,6.19918605 26.5203,6.70165116 26.5608,7.20230233 C26.6031,7.70386047 26.6355,8.2054186 26.658,8.70606977 C26.7273,10.1935116 26.7192,11.6800465 26.6292,13.1611395 C26.6022,13.6790233 26.5608,14.1896512 26.5104,14.6993721 Z" fill="url(#linearGradient-1)"></path>
                            <path d="M41.0364,51.5380465 C40.4037,59.4550465 33.4467,65.3839535 25.5933,64.7055349 C23.4171,64.5168837 21.3948,63.843907 19.6245,62.8008837 C19.5561,62.7600698 19.4877,62.7201628 19.4202,62.6784419 C19.377,62.6521395 19.3329,62.6249302 19.2897,62.596814 C19.2438,62.5686977 19.1979,62.5396744 19.1529,62.5106512 C19.0404,62.439 18.9297,62.3646279 18.8199,62.2902558 C18.7551,62.245814 18.6912,62.2013721 18.6273,62.1551163 C18.5661,62.1124884 18.5049,62.0680465 18.4437,62.0226977 C18.3186,61.932 18.1944,61.8376744 18.0729,61.7424419 C18.0369,61.7143256 18.0009,61.6862093 17.9649,61.657186 C17.9244,61.6254419 17.8839,61.5927907 17.8434,61.5592326 C17.7957,61.5202326 17.748,61.4812326 17.7003,61.4413256 C17.694,61.4358837 17.6877,61.4313488 17.6823,61.425907 C17.6373,61.387814 17.5914,61.3497209 17.5473,61.3107209 C17.5275,61.2934884 17.5077,61.2762558 17.487,61.2590233 C17.3763,61.1628837 17.2674,61.0640233 17.1603,60.9651628 C17.1585,60.9624419 17.1558,60.9606279 17.1531,60.957907 C17.0964,60.9053023 17.0406,60.8526977 16.9857,60.799186 C16.929,60.7447674 16.8714,60.6894419 16.8165,60.6341163 C16.7706,60.5878605 16.7247,60.5416047 16.6779,60.4944419 C16.6446,60.4608837 16.6113,60.4264186 16.5789,60.3919535 C16.5438,60.3556744 16.5078,60.3175814 16.4727,60.2803953 C16.4232,60.2286977 16.3746,60.175186 16.3269,60.1225814 C16.2324,60.0182791 16.1388,59.9130698 16.047,59.8069535 C16.0011,59.7525349 15.9543,59.6981163 15.9075,59.6427907 C15.8742,59.6019767 15.84,59.5611628 15.8067,59.5203488 C15.7752,59.4822558 15.7446,59.4432558 15.7131,59.4042558 C15.6663,59.3462093 15.6195,59.2863488 15.5736,59.2273953 C15.5358,59.1784186 15.498,59.1285349 15.4602,59.0786512 C15.4233,59.0296744 15.3864,58.9797907 15.3495,58.930814 C15.3486,58.929 15.3477,58.928093 15.3477,58.927186 C15.3108,58.8763953 15.2739,58.8274186 15.2379,58.7766279 C15.183,58.6986279 15.1272,58.6206279 15.0732,58.5417209 C15.0192,58.4637209 14.9661,58.383907 14.9139,58.304093 C14.7564,58.0637442 14.6061,57.8206744 14.463,57.5712558 C14.4153,57.487814 14.3685,57.4043721 14.3217,57.3209302 C14.2758,57.2374884 14.2308,57.1522326 14.1858,57.0669767 C14.1417,56.9817209 14.0976,56.8973721 14.0553,56.8112093 C14.013,56.7259535 13.9707,56.6388837 13.9293,56.551814 C13.8888,56.4665581 13.8492,56.3803953 13.8096,56.2933256 C13.8087,56.2915116 13.8069,56.2878837 13.806,56.2851628 C13.7709,56.2062558 13.7358,56.1264419 13.7016,56.0466279 C13.6971,56.0357442 13.6917,56.0239535 13.6872,56.0121628 C13.6521,55.9287209 13.617,55.8443721 13.5828,55.7591163 C13.5135,55.5867907 13.4478,55.4135581 13.3857,55.2385116 C13.3794,55.2194651 13.3722,55.2013256 13.3659,55.183186 C13.3434,55.1178837 13.32,55.0534884 13.2993,54.988186 C13.2894,54.9600698 13.2804,54.9328605 13.2723,54.9056512 C13.248,54.834907 13.2255,54.7623488 13.203,54.6906977 C13.1706,54.5891163 13.14,54.4884419 13.1112,54.3859535 C13.1004,54.3487674 13.0905,54.3124884 13.0797,54.2753023 C13.0068,54.015907 12.942,53.7537907 12.8844,53.4898605 C12.8772,53.4572093 12.87,53.4236512 12.8628,53.391 C12.8529,53.3429302 12.843,53.2948605 12.8331,53.2467907 C12.8232,53.2014419 12.8151,53.156093 12.8061,53.1098372 C12.7962,53.0590465 12.7872,53.0082558 12.7782,52.9565581 C12.7692,52.9093953 12.7611,52.8622326 12.753,52.8141628 C12.7458,52.7742558 12.7395,52.7343488 12.7332,52.6944419 C12.7242,52.6354884 12.7143,52.5774419 12.7062,52.5184884 C12.7053,52.5166744 12.7053,52.5148605 12.7053,52.5130465 C12.699,52.4658837 12.6918,52.4187209 12.6855,52.3724651 C12.6756,52.3026279 12.6666,52.2318837 12.6576,52.1620465 C12.6495,52.0967442 12.6414,52.0305349 12.6351,51.9643256 C12.6279,51.9008372 12.6216,51.8373488 12.6162,51.7747674 C12.6126,51.7375814 12.609,51.6994884 12.6054,51.6623023 C12.6,51.597907 12.5946,51.5353256 12.5901,51.4709302 C12.5838,51.3956512 12.5793,51.3203721 12.5748,51.245093 C12.5712,51.1816047 12.5676,51.1163023 12.5649,51.051907 C12.564,51.0446512 12.564,51.0383023 12.564,51.0310465 C12.5622,50.9811628 12.5595,50.9303721 12.5586,50.8804884 C12.5502297,50.6492093 12.5487,50.4179302 12.5514,50.1848372 C12.5532,50.1122791 12.5541,50.0406279 12.5568,49.9680698 C12.5631,49.7549302 12.5739,49.5408837 12.5892,49.3259302 C12.6009,49.1681163 12.6153,49.0121163 12.6315,48.8561163 C12.636,48.8089535 12.6414,48.7617907 12.6468,48.7155349 C12.6486,48.7001163 12.6504,48.6856047 12.6522,48.6692791 C12.6576,48.6212093 12.6639,48.5731395 12.6702,48.5250698 C12.7017,48.2747442 12.7404,48.0262326 12.7854,47.7795349 C12.7944,47.7287442 12.8034,47.6788605 12.8133,47.6280698 C12.8223,47.578186 12.8331,47.5273953 12.843,47.4775116 C12.852,47.4330698 12.861,47.3877209 12.8709,47.3432791 C12.8826,47.2879535 12.8943,47.2326279 12.9078,47.1773023 C12.9195,47.1274186 12.9303,47.0784419 12.942,47.0285581 C13.0023,46.7718837 13.0698,46.5188372 13.1436,46.2685116 C13.1553,46.2286047 13.167,46.1886977 13.1796,46.1487907 C13.1949,46.1007209 13.2093,46.0526512 13.2246,46.0045814 C13.2399,45.9565116 13.2552,45.9084419 13.2714,45.8603721 C13.2867,45.8132093 13.3029,45.7651395 13.3191,45.7179767 C13.3344,45.669907 13.3515,45.6227442 13.3686,45.5755814 C13.401,45.4803488 13.4352,45.3869302 13.4712,45.2926047 C13.4892,45.2454419 13.5072,45.1982791 13.5243,45.1529302 C13.5423,45.1066744 13.5603,45.0604186 13.5792,45.0141628 C13.6719,44.7819767 13.77,44.5534186 13.8735,44.3284884 C13.8942,44.2840465 13.9149,44.2386977 13.9365,44.1933488 C14.0445,43.9647907 14.1579,43.7398605 14.2776,43.5185581 C14.3226,43.4360233 14.3667,43.3543953 14.4135,43.2736744 C14.6556,42.8446744 14.9193,42.431093 15.2019,42.0320233 C15.2298,41.9921163 15.2586,41.9522093 15.2874,41.9123023 C15.3738,41.7934884 15.4611,41.6764884 15.5502,41.5613023 C15.5799,41.5223023 15.6096,41.4842093 15.6402,41.4461163 C15.6699,41.4080233 15.6996,41.3699302 15.7302,41.3327442 C15.7608,41.2946512 15.7914,41.2565581 15.8229,41.2184651 C15.8535,41.1812791 15.885,41.143186 15.9165,41.106 C16.0929,40.8955814 16.2765,40.6887907 16.4646,40.4892558 C17.7957,39.1913721 19.2258,38.1537907 20.655,37.4127907 C20.6568,37.4118837 20.6586,37.4109767 20.6604,37.4100698 C20.7315,37.3756047 20.8026,37.3420465 20.8746,37.3084884 C20.9475,37.2749302 21.0204,37.2413721 21.0951,37.2087209 C21.1473,37.1860465 21.1986,37.1633721 21.2517,37.1406977 C21.2787,37.128907 21.3075,37.1162093 21.3354,37.1053256 C21.4038,37.0753953 21.474,37.0472791 21.5433,37.0191628 C21.6108,36.9919535 21.6774,36.9656512 21.7449,36.9402558 C21.7449,36.9402558 21.7458,36.9402558 21.7458,36.9402558 C21.7998,36.9166744 21.8556,36.8976279 21.9114,36.8776744 C22.0203,36.8377674 22.1301,36.7978605 22.2417,36.7606744 C22.3137,36.736186 22.3866,36.7126047 22.4595,36.6890233 C22.5171,36.6699767 22.5747,36.6518372 22.6332,36.6336977 C22.635,36.6327907 22.6359,36.6327907 22.6386,36.6318837 C22.6845,36.6182791 22.7295,36.6037674 22.7754,36.5910698 C22.842,36.5711163 22.9095,36.5511628 22.977,36.5321163 C23.0391,36.5139767 23.1012,36.4976512 23.1642,36.4813256 C23.3208,36.4396047 23.4774,36.4006047 23.6358,36.3634186 C23.6376,36.3625116 23.6394,36.3634186 23.6412,36.3625116 C23.7213,36.3434651 23.8014,36.3271395 23.8824,36.309907 C23.9454,36.2963023 24.0093,36.2836047 24.0732,36.270907 C24.0993,36.2654651 24.1254,36.2609302 24.1515,36.2554884 C24.2235,36.2418837 24.2955,36.2282791 24.3675,36.2155814 C24.3693,36.2146744 24.372,36.2155814 24.3738,36.2146744 C24.6834,36.1611628 24.9957,36.1167209 25.3107,36.0840698 C26.7822,36.0414419 28.1142,36.4232791 29.1654,37.2803721 C29.7342,37.7429302 30.1851,38.3152326 30.5199,38.9727907 C31.0068,39.9205814 31.2552,41.0479535 31.2759,42.2832558 C31.2786,42.4274651 31.4793,42.4573953 31.5216,42.3195349 L31.5351,42.276 L31.7907,41.3436279 L31.9176,40.8783488 L32.0283,40.4085349 C32.1003,40.0956279 32.1795,39.7845349 32.2452,39.4707209 C32.4018,38.7342558 32.5341,37.9950698 32.6448,37.2549767 C32.6916,36.9466047 32.7339,36.6391395 32.7735,36.3316744 C32.8005,36.1185349 32.8257,35.9053953 32.85,35.6931628 C32.8599,35.5943023 32.8698,35.4954419 32.8788,35.3965814 C32.9895,34.2320233 33.0372,33.0674651 33.0291,31.9083488 C33.021,31.5945349 33.021,31.279814 33.0075,30.966907 L32.9571,30.028186 C32.9337,29.716186 32.9031,29.405093 32.8761,29.094 C32.8689,29.016 32.8635,28.938 32.8545,28.860907 L32.8257,28.6287209 L32.769,28.1643488 C32.607,26.9290465 32.3721,25.7073488 32.067,24.5083256 C31.4559,22.1102791 30.5568,19.8020233 29.4192,17.627093 C28.6047,16.0707209 27.6723,14.5787442 26.6373,13.1665814 C26.2278,12.6069767 25.8021,12.0582558 25.3602,11.5240465 C24.5853,10.5835116 23.7627,9.68469767 22.9068,8.83667442 C22.4784,8.41402326 22.0401,8.00406977 21.5973,7.61406977 C21.3759,7.42088372 21.1527,7.22951163 20.9322,7.04993023 L20.7666,6.91660465 C20.7117,6.87216279 20.6577,6.82953488 20.6046,6.78781395 L20.4471,6.66809302 L20.376,6.61548837 C20.3634,6.60551163 20.3544,6.60097674 20.3454,6.59462791 L20.3319,6.58465116 C20.331,6.58465116 20.331,6.58465116 20.331,6.58465116 C20.331,6.58555814 20.3319,6.58646512 20.3319,6.58646512 C18.7983,5.33483721 18.5616,3.06830233 19.8018,1.52281395 C20.5677,0.567767442 21.7179,0.110651163 22.8483,0.195 L22.8492,0.195 C23.5503,0.246697674 24.2424,0.507 24.831,0.985883721 L24.8823,1.03123256 L24.9156,1.06116279 L24.9804,1.12011628 L25.0956,1.22895349 L25.1982,1.32872093 C25.2,1.32962791 25.2,1.32962791 25.1991,1.33053488 L25.2009,1.33144186 L25.3098,1.43665116 C25.3791,1.5055814 25.4484,1.57360465 25.5141,1.64072093 L25.713,1.84297674 C25.9767,2.11234884 26.226,2.38353488 26.4735,2.65562791 C26.964,3.19890698 27.4329,3.75125581 27.8865,4.3135814 C28.7901,5.43823256 29.6307,6.60006977 30.4092,7.79909302 C31.968,10.1962326 33.2811,12.7466512 34.3098,15.406814 C35.3376,18.0660698 36.0684,20.8405116 36.4554,23.6512326 C36.6489,25.0561395 36.7569,26.4701163 36.7821,27.8795581 L36.7875,28.4083256 L36.7902,28.6722558 C36.7893,28.7602326 36.7866,28.8482093 36.7848,28.936186 C36.7767,29.288093 36.7704,29.639093 36.7569,29.990093 L36.6948,31.0412791 C36.6705,31.3904651 36.6318,31.7387442 36.6003,32.0870233 C36.4536,33.4783256 36.234,34.8551163 35.937,36.2092326 C35.8812,36.4541163 35.8236,36.699 35.7642,36.9438837 C35.6877,37.2567907 35.6076,37.5687907 35.5248,37.8789767 C35.5104,37.9333953 35.496,37.986907 35.4807,38.0413256 C35.3592,38.4884651 35.5059,38.9673488 35.8614,39.2612093 C35.9154,39.3056512 35.9685,39.351 36.0216,39.3963488 C36.2727,39.6103953 36.5157,39.8326047 36.7515,40.0620698 C39.6945,42.9453488 41.3919,47.0829767 41.0364,51.5380465 Z" fill="url(#linearGradient-23)" filter="url(#filter-24)"></path>
                        </g>
                        <g transform="translate(0.000000, 4.353488)">
                            <path d="M12.6882,3.25060465 C13.5576,3.00027907 14.2812,2.77534884 16.362,2.6284186 C17.0253,2.58125581 17.4717,2.90686047 17.6823,3.44016279 C18.1053,4.51583721 18.0189,5.85272093 17.9703,7.098 C17.7309,13.1575116 12.8187,17.8801395 6.9984,17.6470465 C5.2776,17.5781163 3.6702,17.082907 2.2653,16.263907 C2.088,16.1605116 1.9935,15.9582558 2.0232,15.754186 C2.9052,9.69104651 7.1721,4.83872093 12.6882,3.25060465 Z" fill="url(#linearGradient-3)"></path>
                            <path d="M15.3369,1.17 C15.5142,1.26251163 15.6888,1.36046512 15.8598,1.46204651 C15.9039,1.48834884 15.948,1.51465116 15.9921,1.54186047 C16.0002,1.54639535 16.0074,1.55093023 16.0155,1.55637209 C16.0101,1.55637209 16.0038,1.55637209 15.9984,1.55546512 C15.8787,1.55274419 15.7599,1.55183721 15.6411,1.55274419 C15.1371,1.55455814 14.6385,1.5835814 14.1471,1.638 C13.464,1.71327907 12.7935,1.83662791 12.1401,2.00623256 C11.8071,2.09239535 11.4786,2.19034884 11.1546,2.30009302 C10.7703,2.4297907 10.3941,2.57672093 10.0242,2.73816279 C5.1678,4.85504651 2.0835,9.74909302 1.5327,15.483907 C1.5237,15.5782326 1.3959,15.6 1.3572,15.5129302 C0.6993,14.038186 -0.0441,12.2922558 0.0225,10.6034651 C0.1953,6.23274419 2.7918,2.55586047 6.408,0.922395349 C6.4179,0.917860465 6.4287,0.913325581 6.4386,0.908790698 C6.4449,0.906069767 6.4503,0.903348837 6.4566,0.900627907 C6.6303,0.823534884 6.8058,0.750976744 6.984,0.682953488 C8.2413,0.204069767 9.6066,-0.0335581395 11.0259,0.0235813953 C12.1347,0.0680232558 13.1958,0.289325581 14.1876,0.658465116 C14.5818,0.807209302 14.9661,0.97772093 15.3369,1.17 Z" fill="url(#linearGradient-4)"></path>
                        </g>
                    </g>
                    <path d="M160.29,9.13053488 L146.79,9.13053488 C145.7874,9.13053488 144.9333,9.79988372 144.6444,10.7168372 C144.5769,10.9317907 144.54,11.1603488 144.54,11.3979767 L144.54,36.3398372 C144.54,39.6085814 142.8885,41.7608372 141.9039,42.7530698 C140.9193,43.7453023 138.7836,45.4096047 135.54,45.4096047 C132.2964,45.4096047 130.1607,43.7453023 129.1761,42.7530698 C128.1915,41.7608372 126.54,39.6085814 126.54,36.3398372 L126.54,11.3979767 C126.54,11.1603488 126.5031,10.9317907 126.4356,10.7168372 C126.1467,9.79988372 125.2926,9.13053488 124.29,9.13053488 L110.79,9.13053488 C109.5525,9.13053488 108.54,10.1508837 108.54,11.3979767 L108.54,36.3398372 C108.54,48.1477674 116.0028,58.1988837 126.4356,61.9628372 C129.2796,62.9895349 132.345,63.5491395 135.54,63.5491395 C138.735,63.5491395 141.8004,62.9895349 144.6444,61.9628372 C144.9333,62.8797907 145.7874,63.5491395 146.79,63.5491395 L160.29,63.5491395 C161.5275,63.5491395 162.54,62.5287907 162.54,61.2816977 L162.54,11.3979767 C162.54,10.1508837 161.5275,9.13053488 160.29,9.13053488 Z" id="Path" fill="url(#linearGradient-5)" fill-rule="nonzero"></path>
                    <path d="M77.04,9.13053488 C73.8846,9.13053488 70.8552,9.67653488 68.04,10.6787442 C57.5532,14.4145814 50.04,24.492907 50.04,36.3398372 L50.04,61.2816977 C50.04,61.5193256 50.0769,61.7478837 50.1444,61.9628372 C50.4333,62.8797907 51.2874,63.5491395 52.29,63.5491395 L65.79,63.5491395 C66.7926,63.5491395 67.6467,62.8797907 67.9356,61.9628372 C67.9356,61.9628372 67.9356,61.9628372 67.9356,61.9628372 C67.9356,61.9619302 67.9356,61.9610233 67.9365,61.9610233 C67.9518,61.9120465 67.9653,61.8630698 67.977,61.813186 C67.9797,61.8032093 67.9815,61.7932326 67.9842,61.7832558 C67.995,61.7342791 68.0058,61.6843953 68.013,61.6336047 C68.013,61.6326977 68.013,61.6317907 68.0139,61.6308837 C68.022,61.580093 68.0274,61.5283953 68.0319,61.4766977 C68.0328,61.464907 68.0337,61.4522093 68.0346,61.4404186 C68.0382,61.3887209 68.0409,61.3361163 68.0409,61.2826047 L68.0409,36.3407442 C68.0409,33.072 69.6924,30.9197442 70.677,29.9275116 C71.6616,28.9352791 73.7973,27.2709767 77.0409,27.2709767 C80.2845,27.2709767 82.4202,28.9352791 83.4048,29.9275116 C84.3894,30.9197442 86.0409,33.072 86.0409,36.3407442 L86.0409,61.2826047 C86.0409,61.5202326 86.0778,61.7487907 86.1453,61.9637442 C86.4342,62.8806977 87.2883,63.5500465 88.2909,63.5500465 L101.7909,63.5500465 C103.0284,63.5500465 104.0409,62.5296977 104.0409,61.2826047 L104.0409,36.3407442 C104.04,21.3121395 91.9521,9.13053488 77.04,9.13053488 Z" id="Path" fill="url(#linearGradient-6)" fill-rule="nonzero"></path>
                    <path d="M77.04,9.13053488 C73.8846,9.13053488 70.8552,9.67653488 68.04,10.6787442 C57.5532,14.4145814 50.04,24.492907 50.04,36.3398372 L50.04,61.2816977 C50.04,61.5193256 50.0769,61.7478837 50.1444,61.9628372 C50.4333,62.8797907 51.2874,63.5491395 52.29,63.5491395 L65.79,63.5491395 C66.7926,63.5491395 67.6467,62.8797907 67.9356,61.9628372 C67.9356,61.9628372 67.9356,61.9628372 67.9356,61.9628372 C67.9356,61.9619302 67.9356,61.9610233 67.9365,61.9610233 C67.9518,61.9120465 67.9653,61.8630698 67.977,61.813186 C67.9797,61.8032093 67.9815,61.7932326 67.9842,61.7832558 C67.995,61.7342791 68.0058,61.6843953 68.013,61.6336047 C68.013,61.6326977 68.013,61.6317907 68.0139,61.6308837 C68.022,61.580093 68.0274,61.5283953 68.0319,61.4766977 C68.0328,61.464907 68.0337,61.4522093 68.0346,61.4404186 C68.0382,61.3887209 68.0409,61.3361163 68.0409,61.2826047 L68.0409,36.3407442 C68.0409,33.072 69.6924,30.9197442 70.677,29.9275116 C71.6616,28.9352791 73.7973,27.2709767 77.0409,27.2709767 C80.2845,27.2709767 82.4202,28.9352791 83.4048,29.9275116 C84.3894,30.9197442 86.0409,33.072 86.0409,36.3407442 L86.0409,61.2826047 C86.0409,61.5202326 86.0778,61.7487907 86.1453,61.9637442 C86.4342,62.8806977 87.2883,63.5500465 88.2909,63.5500465 L101.7909,63.5500465 C103.0284,63.5500465 104.0409,62.5296977 104.0409,61.2826047 L104.0409,36.3407442 C104.04,21.3121395 91.9521,9.13053488 77.04,9.13053488 Z" id="Path" fill="url(#linearGradient-7)" fill-rule="nonzero"></path>
                    <path d="M53.3025,56.5173488 C52.2324,56.9735581 51.1443,57.368093 50.04,57.6991395 L50.04,61.2816977 C50.04,62.5287907 51.0525,63.5491395 52.29,63.5491395 L65.79,63.5491395 C67.0275,63.5491395 68.04,62.5287907 68.04,61.2816977 L68.04,43.6328372 C66.7242,45.8367907 65.1429,47.8729535 63.3141,49.7168372 C60.4224,52.6300465 57.0546,54.9183488 53.3025,56.5173488 Z" id="Path" fill="url(#linearGradient-8)" fill-rule="nonzero"></path>
                    <path d="M89.3025,56.5082791 C88.2324,56.9644884 87.1443,57.3590233 86.04,57.6900698 L86.04,61.2726279 C86.04,62.5197209 87.0525,63.5400698 88.29,63.5400698 L101.79,63.5400698 C103.0275,63.5400698 104.04,62.5197209 104.04,61.2726279 L104.04,43.6237674 C102.7242,45.8277209 101.1429,47.8638837 99.3141,49.7077674 C96.4224,52.6209767 93.0546,54.9092791 89.3025,56.5082791 Z" id="Path" fill="url(#linearGradient-9)" fill-rule="nonzero"></path>
                    <path d="M289.44,36.3398372 L289.44,61.2816977 C289.44,62.5287907 288.4275,63.5491395 287.19,63.5491395 L273.69,63.5491395 C272.6874,63.5491395 271.8333,62.8797907 271.5444,61.9628372 C271.4769,61.7478837 271.44,61.5193256 271.44,61.2816977 L271.44,36.3398372 C271.44,33.071093 269.7885,30.9188372 268.8039,29.9266047 C267.8193,28.9343721 265.6836,27.2700698 262.44,27.2700698 C259.1964,27.2700698 257.0607,28.9343721 256.0761,29.9266047 C255.0915,30.9188372 253.44,33.071093 253.44,36.3398372 C253.44,39.6085814 255.0915,41.7608372 256.0761,42.7530698 C257.0193,43.7035814 259.0173,45.2699302 262.0332,45.4005349 C262.1664,45.4068837 262.3023,45.4096047 262.44,45.4096047 L264.69,45.4096047 C265.8888,45.4096047 266.8761,46.3673721 266.9373,47.5609535 C266.9391,47.5963256 266.94,47.6316977 266.94,47.6679767 L266.94,61.2726279 C266.94,61.3134419 266.9391,61.3542558 266.9373,61.3941628 C266.9337,61.4721628 266.9256,61.5492558 266.9139,61.6245349 C266.7942,62.4090698 266.2722,63.064814 265.5693,63.3677442 C265.2984,63.4847442 265.0014,63.5491395 264.69,63.5491395 L262.44,63.5491395 C262.2069,63.5491395 261.9747,63.5464186 261.7434,63.5400698 C260.3871,63.5056047 259.056,63.3704651 257.7564,63.141 C256.2354,62.8725349 254.7576,62.476186 253.3356,61.9628372 C252.4896,61.657186 251.6625,61.3107209 250.8579,60.9252558 C248.0544,59.5820233 245.5182,57.7662558 243.3483,55.5795349 C240.5556,52.765186 238.3722,49.3386279 237.0141,45.514814 C235.9953,42.6487674 235.44,39.5596047 235.44,36.3398372 C235.44,21.3121395 247.5279,9.13053488 262.44,9.13053488 C277.3521,9.13053488 289.44,21.3121395 289.44,36.3398372 Z" id="Path" fill="url(#linearGradient-10)" fill-rule="nonzero"></path>
                    <path d="M77.04,9.13053488 C73.8846,9.13053488 70.8552,9.67653488 68.04,10.6787442 C57.5532,14.4145814 50.04,24.492907 50.04,36.3398372 L50.04,61.2816977 C50.04,61.5193256 50.0769,61.7478837 50.1444,61.9628372 C50.4333,62.8797907 51.2874,63.5491395 52.29,63.5491395 L65.79,63.5491395 C66.7926,63.5491395 67.6467,62.8797907 67.9356,61.9628372 C67.9518,61.9120465 67.9653,61.8630698 67.977,61.813186 C67.9797,61.8032093 67.9815,61.7932326 67.9842,61.7832558 C67.995,61.7342791 68.0058,61.6843953 68.013,61.6336047 C68.013,61.6326977 68.013,61.6317907 68.0139,61.6308837 C68.022,61.580093 68.0274,61.5283953 68.0319,61.4766977 C68.0328,61.464907 68.0337,61.4522093 68.0346,61.4404186 C68.0382,61.3887209 68.0409,61.3361163 68.0409,61.2826047 L68.0409,36.3407442 C68.0409,33.072 69.6924,30.9197442 70.677,29.9275116 C71.6616,28.9352791 73.7973,27.2709767 77.0409,27.2709767 C80.2845,27.2709767 82.4202,28.9352791 83.4048,29.9275116 C84.3894,30.9197442 86.0409,33.072 86.0409,36.3407442 L86.0409,61.2826047 C86.0409,61.5202326 86.0778,61.7487907 86.1453,61.9637442 C86.4342,62.8806977 87.2883,63.5500465 88.2909,63.5500465 L101.7909,63.5500465 C103.0284,63.5500465 104.0409,62.5296977 104.0409,61.2826047 L104.0409,36.3407442 C104.04,21.3121395 91.9521,9.13053488 77.04,9.13053488 Z" id="Path" fill="url(#linearGradient-11)" fill-rule="nonzero"></path>
                    <path d="M64.7775,7.09255814 C65.8476,6.63634884 66.9357,6.24181395 68.04,5.91076744 L68.04,2.3282093 C68.04,1.08111628 67.0275,0.0607674419 65.79,0.0607674419 L52.29,0.0607674419 C51.0525,0.0607674419 50.04,1.08111628 50.04,2.3282093 L50.04,19.9770698 C51.3558,17.7731163 52.9371,15.7369535 54.7659,13.8930698 C57.6576,10.9798605 61.0254,8.69155814 64.7775,7.09255814 Z" id="Path" fill="url(#linearGradient-12)" fill-rule="nonzero"></path>
                    <path d="M135.54,63.5790698 C138.6954,63.5790698 141.7248,63.0330698 144.54,62.0308605 C155.0268,58.2950233 162.54,48.2166977 162.54,36.3697674 L162.54,11.427907 C162.54,11.1902791 162.5031,10.9617209 162.4356,10.7467674 C162.1467,9.82981395 161.2926,9.16046512 160.29,9.16046512 L146.79,9.16046512 C145.7874,9.16046512 144.9333,9.82981395 144.6444,10.7467674 C144.6444,10.7467674 144.6444,10.7467674 144.6444,10.7467674 C144.6444,10.7476744 144.6444,10.7485814 144.6435,10.7485814 C144.6282,10.7975581 144.6147,10.8465349 144.603,10.8964186 C144.6003,10.9063953 144.5985,10.9163721 144.5958,10.9263488 C144.585,10.9753256 144.5742,11.0252093 144.567,11.076 C144.567,11.076907 144.567,11.077814 144.5661,11.0787209 C144.558,11.1295116 144.5526,11.1812093 144.5481,11.232907 C144.5472,11.2446977 144.5463,11.2573953 144.5454,11.269186 C144.5418,11.3208837 144.5391,11.3734884 144.5391,11.427 L144.5391,36.3688605 C144.5391,39.6376047 142.8876,41.7898605 141.903,42.782093 C140.9184,43.7743256 138.7836,45.4395349 135.54,45.4395349 C132.2964,45.4395349 130.1607,43.7752326 129.1761,42.783 C128.1915,41.7907674 126.54,39.6385116 126.54,36.3697674 L126.54,11.427907 C126.54,11.1902791 126.5031,10.9617209 126.4356,10.7467674 C126.1467,9.82981395 125.2926,9.16046512 124.29,9.16046512 L110.79,9.16046512 C109.5525,9.16046512 108.54,10.180814 108.54,11.427907 L108.54,36.3697674 C108.54,51.3974651 120.6279,63.5790698 135.54,63.5790698 Z" id="Path" fill="url(#linearGradient-13)" fill-rule="nonzero"></path>
                    <path d="M53.3025,56.5173488 C52.2324,56.9735581 51.1443,57.368093 50.04,57.6991395 L50.04,61.2816977 C50.04,62.5287907 51.0525,63.5491395 52.29,63.5491395 L65.79,63.5491395 C67.0275,63.5491395 68.04,62.5287907 68.04,61.2816977 L68.04,43.6328372 C66.7242,45.8367907 65.1429,47.8729535 63.3141,49.7168372 C60.4224,52.6300465 57.0546,54.9183488 53.3025,56.5173488 Z" id="Path" fill="url(#linearGradient-8)" fill-rule="nonzero"></path>
                    <path d="M89.3025,56.5082791 C88.2324,56.9644884 87.1443,57.3590233 86.04,57.6900698 L86.04,61.2726279 C86.04,62.5197209 87.0525,63.5400698 88.29,63.5400698 L101.79,63.5400698 C103.0275,63.5400698 104.04,62.5197209 104.04,61.2726279 L104.04,43.6237674 C102.7242,45.8277209 101.1429,47.8638837 99.3141,49.7077674 C96.4224,52.6209767 93.0546,54.9092791 89.3025,56.5082791 Z" id="Path" fill="url(#linearGradient-9)" fill-rule="nonzero"></path>
                    <path d="M274.7025,56.5082791 C273.6324,56.9644884 272.5443,57.3590233 271.44,57.6900698 L271.44,61.2726279 C271.44,62.5197209 272.4525,63.5400698 273.69,63.5400698 L287.19,63.5400698 C288.4275,63.5400698 289.44,62.5197209 289.44,61.2726279 L289.44,43.6237674 C288.1242,45.8277209 286.5429,47.8638837 284.7141,49.7077674 C281.8224,52.6209767 278.4546,54.9092791 274.7025,56.5082791 Z" id="Path" fill="url(#linearGradient-9)" fill-rule="nonzero"></path>
                    <path d="M266.94,47.6679767 L266.94,61.2726279 C266.94,61.3134419 266.9391,61.3542558 266.9373,61.3941628 C266.8734,62.5850233 265.887,63.5400698 264.69,63.5400698 L261.7434,63.5400698 C260.3871,63.5056047 259.056,63.3704651 257.7564,63.141 C256.2354,62.8725349 254.7576,62.476186 253.3356,61.9628372 C252.4896,61.657186 251.6625,61.3107209 250.8579,60.9252558 C251.6742,60.253186 252.4599,59.5366744 253.2141,58.7775349 C256.1049,55.8634186 258.3756,52.4695116 259.9623,48.6883256 C260.415,47.6099302 260.8065,46.5133953 261.135,45.4005349 L264.69,45.4005349 C265.8915,45.4005349 266.8815,46.3628372 266.9373,47.5609535 C266.9391,47.5963256 266.94,47.6316977 266.94,47.6679767 Z" id="Path" fill="url(#linearGradient-14)" fill-rule="nonzero"></path>
                    <path d="M123.2775,16.1623256 C124.3476,15.7061163 125.4357,15.3115814 126.54,14.9805349 L126.54,11.3979767 C126.54,10.1508837 125.5275,9.13053488 124.29,9.13053488 L110.79,9.13053488 C109.5525,9.13053488 108.54,10.1508837 108.54,11.3979767 L108.54,29.0468372 C109.8558,26.8428837 111.4371,24.8067209 113.2659,22.9628372 C116.1576,20.0496279 119.5254,17.7613256 123.2775,16.1623256 Z" id="Path" fill="url(#linearGradient-15)" fill-rule="nonzero"></path>
                    <path d="M159.2775,16.1532558 C160.3476,15.6970465 161.4357,15.3025116 162.54,14.9714651 L162.54,11.388907 C162.54,10.141814 161.5275,9.12146512 160.29,9.12146512 L146.79,9.12146512 C145.5525,9.12146512 144.54,10.141814 144.54,11.388907 L144.54,29.0377674 C145.8558,26.833814 147.4371,24.7976512 149.2659,22.9537674 C152.1576,20.0405581 155.5254,17.7522558 159.2775,16.1532558 Z" id="Path" fill="url(#linearGradient-16)" fill-rule="nonzero"></path>
                    <g transform="translate(167.040000, 9.069767)" fill-rule="nonzero" id="Path">
                        <path d="M31.5,2.3282093 L31.5,15.9328605 C31.5,17.1799535 30.4875,18.2003023 29.25,18.2003023 L27,18.2003023 C23.7564,18.2003023 21.6207,19.8646047 20.6361,20.8568372 C19.6515,21.8490698 18,24.0013256 18,27.2700698 L18,52.2119302 C18,52.4495581 17.9631,52.6781163 17.8956,52.8930698 C17.6067,53.8100233 16.7526,54.4793721 15.75,54.4793721 L2.25,54.4793721 C1.0125,54.4793721 0,53.4590233 0,52.2119302 L0,27.2700698 C0,24.0503023 0.5553,20.9611395 1.5741,18.095093 C3.9888,11.2982093 9.0108,5.75295349 15.4251,2.68102326 C16.2279,2.29646512 17.0514,1.95181395 17.8956,1.64706977 C20.7396,0.620372093 23.805,0.0607674419 27,0.0607674419 L29.25,0.0607674419 C29.4822,0.0607674419 29.7063,0.0970465116 29.9169,0.163255814 C29.952,0.174139535 29.9871,0.185930233 30.0213,0.198627907 C30.0951,0.225837209 30.1671,0.257581395 30.2364,0.292046512 C30.2607,0.303837209 30.285,0.316534884 30.3084,0.329232558 C30.4965,0.430813953 30.6684,0.558697674 30.8196,0.70744186 C30.8322,0.720139535 30.8457,0.732837209 30.8583,0.74644186 C30.897,0.786348837 30.9339,0.827162791 30.969,0.869790698 C30.9861,0.889744186 31.0032,0.910604651 31.0194,0.932372093 C31.0698,0.996767442 31.1166,1.06388372 31.1598,1.13372093 C31.1688,1.14823256 31.1778,1.16274419 31.1859,1.17725581 C31.1976,1.19630233 31.2084,1.21534884 31.2183,1.23439535 C31.2264,1.248 31.2336,1.26160465 31.2408,1.27611628 C31.2669,1.32418605 31.2903,1.37406977 31.3119,1.42395349 C31.3227,1.44934884 31.3335,1.47474419 31.3434,1.50104651 C31.3542,1.52644186 31.3632,1.55183721 31.3722,1.57813953 C31.3911,1.63074419 31.4082,1.68516279 31.4226,1.7395814 C31.4271,1.75772093 31.4316,1.77586047 31.4361,1.79490698 C31.4406,1.81123256 31.4451,1.82846512 31.4478,1.84569767 C31.4514,1.86202326 31.455,1.87834884 31.4577,1.89467442 C31.4658,1.93095349 31.4721,1.96813953 31.4766,2.00532558 C31.4811,2.03434884 31.4847,2.06427907 31.4874,2.09330233 C31.4883,2.09693023 31.4883,2.10055814 31.4892,2.10418605 C31.4919,2.13230233 31.4937,2.1604186 31.4955,2.18853488 C31.4964,2.20304651 31.4973,2.21846512 31.4982,2.23297674 C31.4991,2.26472093 31.5,2.29646512 31.5,2.3282093 Z" fill="url(#linearGradient-17)"></path>
                        <path d="M3.2625,47.4475814 C2.1924,47.9037907 1.1043,48.2983256 0,48.6293721 L0,52.2119302 C0,53.4590233 1.0125,54.4793721 2.25,54.4793721 L15.75,54.4793721 C16.9875,54.4793721 18,53.4590233 18,52.2119302 L18,34.5630698 C16.6842,36.7670233 15.1029,38.803186 13.2741,40.6470698 C10.3824,43.5602791 7.0146,45.8485814 3.2625,47.4475814 Z" fill="url(#linearGradient-18)"></path>
                        <path d="M31.5,2.3282093 L31.5,15.9328605 C31.5,17.1799535 30.4875,18.2003023 29.25,18.2003023 L25.695,18.2003023 C25.3665,17.0874419 24.975,15.990907 24.5223,14.9125116 C22.9356,11.1313256 20.6649,7.7374186 17.7741,4.82330233 C17.0226,4.06688372 16.2387,3.35218605 15.4251,2.68102326 C16.2279,2.29646512 17.0514,1.95181395 17.8956,1.64706977 C20.7396,0.620372093 23.805,0.0607674419 27,0.0607674419 L29.25,0.0607674419 C29.4822,0.0607674419 29.7063,0.0970465116 29.9169,0.163255814 C29.952,0.174139535 29.9871,0.185930233 30.0213,0.198627907 C30.0951,0.225837209 30.1671,0.257581395 30.2364,0.292046512 C30.2607,0.303837209 30.285,0.316534884 30.3084,0.329232558 C30.4965,0.430813953 30.6684,0.558697674 30.8196,0.70744186 C30.8331,0.720139535 30.8457,0.732837209 30.8583,0.74644186 C30.897,0.786348837 30.9339,0.827162791 30.969,0.869790698 C30.9861,0.889744186 31.0032,0.910604651 31.0194,0.932372093 C31.0698,0.996767442 31.1166,1.06388372 31.1598,1.13372093 C31.1688,1.14823256 31.1778,1.16274419 31.1859,1.17725581 C31.1976,1.19630233 31.2084,1.21534884 31.2183,1.23439535 C31.2264,1.248 31.2336,1.26160465 31.2408,1.27611628 C31.2669,1.32418605 31.2903,1.37316279 31.3119,1.42395349 C31.3227,1.44934884 31.3335,1.47474419 31.3434,1.50104651 C31.3542,1.52644186 31.3632,1.55183721 31.3722,1.57813953 C31.3911,1.63074419 31.4082,1.68516279 31.4226,1.7395814 C31.4271,1.75772093 31.4316,1.77586047 31.4361,1.79490698 C31.4406,1.81123256 31.4451,1.82846512 31.4478,1.84569767 C31.4514,1.86202326 31.455,1.87834884 31.4577,1.89467442 C31.4658,1.93095349 31.4721,1.96813953 31.4766,2.00532558 C31.4811,2.03434884 31.4847,2.06427907 31.4874,2.09330233 C31.4883,2.09693023 31.4883,2.10055814 31.4892,2.10418605 C31.4919,2.13230233 31.4937,2.1604186 31.4955,2.18853488 C31.4964,2.20304651 31.4973,2.21846512 31.4982,2.23297674 C31.4991,2.26472093 31.5,2.29646512 31.5,2.3282093 Z" fill="url(#linearGradient-19)"></path>
                    </g>
                    <g transform="translate(201.240000, 9.069767)" fill-rule="nonzero" id="Path">
                        <path d="M31.5,2.31913953 L31.5,15.9237907 C31.5,17.1708837 30.4875,18.1912326 29.25,18.1912326 L27,18.1912326 C23.7564,18.1912326 21.6207,19.8555349 20.6361,20.8477674 C19.6515,21.84 18,23.9922558 18,27.261 L18,52.2028605 C18,52.4404884 17.9631,52.6690465 17.8956,52.884 C17.6067,53.8009535 16.7526,54.4703023 15.75,54.4703023 L2.25,54.4703023 C1.0125,54.4703023 0,53.4499535 0,52.2028605 L0,27.261 C0,24.0412326 0.5553,20.9520698 1.5741,18.0860233 C3.9888,11.2891395 9.0108,5.74388372 15.4251,2.67195349 C16.2279,2.28739535 17.0514,1.94274419 17.8956,1.638 C20.7396,0.611302326 23.805,0.0516976744 27,0.0516976744 L29.25,0.0516976744 C29.4822,0.0516976744 29.7063,0.0879767442 29.9169,0.154186047 C29.952,0.165069767 29.9871,0.176860465 30.0213,0.18955814 C30.0951,0.216767442 30.1671,0.248511628 30.2364,0.282976744 C30.2607,0.294767442 30.285,0.307465116 30.3084,0.320162791 C30.4965,0.421744186 30.6684,0.549627907 30.8196,0.698372093 C30.8322,0.711069767 30.8457,0.723767442 30.8583,0.737372093 C30.897,0.77727907 30.9339,0.818093023 30.969,0.86072093 C30.9861,0.880674419 31.0032,0.901534884 31.0194,0.923302326 C31.0698,0.987697674 31.1166,1.05481395 31.1598,1.12465116 C31.1688,1.13916279 31.1778,1.15367442 31.1859,1.16818605 C31.1976,1.18723256 31.2084,1.20627907 31.2183,1.22532558 C31.2264,1.23893023 31.2336,1.25253488 31.2408,1.26704651 C31.2669,1.31511628 31.2903,1.365 31.3119,1.41488372 C31.3227,1.44027907 31.3335,1.46567442 31.3434,1.49197674 C31.3542,1.51737209 31.3632,1.54276744 31.3722,1.56906977 C31.3911,1.62167442 31.4082,1.67609302 31.4226,1.73051163 C31.4271,1.74865116 31.4316,1.7667907 31.4361,1.78583721 C31.4406,1.80216279 31.4451,1.81939535 31.4478,1.83662791 C31.4514,1.85295349 31.455,1.86927907 31.4577,1.88560465 C31.4658,1.92188372 31.4721,1.95906977 31.4766,1.99625581 C31.4811,2.02527907 31.4847,2.0552093 31.4874,2.08423256 C31.4883,2.08786047 31.4883,2.09148837 31.4892,2.09511628 C31.4919,2.12323256 31.4937,2.15134884 31.4955,2.17946512 C31.4964,2.19397674 31.4973,2.20939535 31.4982,2.22390698 C31.4991,2.25565116 31.5,2.28739535 31.5,2.31913953 Z" fill="url(#linearGradient-20)"></path>
                        <path d="M3.2625,47.4385116 C2.1924,47.8947209 1.1043,48.2892558 0,48.6203023 L0,52.2028605 C0,53.4499535 1.0125,54.4703023 2.25,54.4703023 L15.75,54.4703023 C16.9875,54.4703023 18,53.4499535 18,52.2028605 L18,34.554 C16.6842,36.7579535 15.1029,38.7941163 13.2741,40.638 C10.3824,43.5512093 7.0146,45.8395116 3.2625,47.4385116 Z" fill="url(#linearGradient-21)"></path>
                        <path d="M31.5,2.31913953 L31.5,15.9237907 C31.5,17.1708837 30.4875,18.1912326 29.25,18.1912326 L25.695,18.1912326 C25.3665,17.0783721 24.975,15.9818372 24.5223,14.9034419 C22.9356,11.1222558 20.6649,7.72834884 17.7741,4.81423256 C17.0226,4.05781395 16.2387,3.34311628 15.4251,2.67195349 C16.2279,2.28739535 17.0514,1.94274419 17.8956,1.638 C20.7396,0.611302326 23.805,0.0516976744 27,0.0516976744 L29.25,0.0516976744 C29.4822,0.0516976744 29.7063,0.0879767442 29.9169,0.154186047 C29.952,0.165069767 29.9871,0.176860465 30.0213,0.18955814 C30.0951,0.216767442 30.1671,0.248511628 30.2364,0.282976744 C30.2607,0.294767442 30.285,0.307465116 30.3084,0.320162791 C30.4965,0.421744186 30.6684,0.549627907 30.8196,0.698372093 C30.8331,0.711069767 30.8457,0.723767442 30.8583,0.737372093 C30.897,0.77727907 30.9339,0.818093023 30.969,0.86072093 C30.9861,0.880674419 31.0032,0.901534884 31.0194,0.923302326 C31.0698,0.987697674 31.1166,1.05481395 31.1598,1.12465116 C31.1688,1.13916279 31.1778,1.15367442 31.1859,1.16818605 C31.1976,1.18723256 31.2084,1.20627907 31.2183,1.22532558 C31.2264,1.23893023 31.2336,1.25253488 31.2408,1.26704651 C31.2669,1.31511628 31.2903,1.36409302 31.3119,1.41488372 C31.3227,1.44027907 31.3335,1.46567442 31.3434,1.49197674 C31.3542,1.51737209 31.3632,1.54276744 31.3722,1.56906977 C31.3911,1.62167442 31.4082,1.67609302 31.4226,1.73051163 C31.4271,1.74865116 31.4316,1.7667907 31.4361,1.78583721 C31.4406,1.80216279 31.4451,1.81939535 31.4478,1.83662791 C31.4514,1.85295349 31.455,1.86927907 31.4577,1.88560465 C31.4658,1.92188372 31.4721,1.95906977 31.4766,1.99625581 C31.4811,2.02527907 31.4847,2.0552093 31.4874,2.08423256 C31.4883,2.08786047 31.4883,2.09148837 31.4892,2.09511628 C31.4919,2.12323256 31.4937,2.15134884 31.4955,2.17946512 C31.4964,2.19397674 31.4973,2.20939535 31.4982,2.22390698 C31.4991,2.25565116 31.5,2.28739535 31.5,2.31913953 Z" fill="url(#linearGradient-22)"></path>
                    </g>
                </g>
            </g>
        </g>
    </g>
</svg>