<?xml version="1.0" encoding="UTF-8"?>
<svg width="619px" height="469px" viewBox="0 0 619 469" version="1.1" xmlns="http://www.w3.org/2000/svg" xmlns:xlink="http://www.w3.org/1999/xlink">
    <!-- Generator: Sketch 63.1 (92452) - https://sketch.com -->
    <title>bedroom_scene</title>
    <desc>Created with Sketch.</desc>
    <defs>
        <path d="M0.678969516,53.3189398 L1.05994774,17.6313565 C1.05994774,17.0289487 0.852615882,16.3790464 0.514812023,15.8083015 L32.4984799,0.00849193548 C32.8400793,0.582078364 33.05263,1.23482216 33.05263,1.8408834 L33.2224809,37.5457252 C33.2224809,38.2082115 32.9700769,38.6774725 32.5710698,38.8922123 L32.5720187,38.8946479 L32.5150854,38.9226574 L32.4999032,38.9303702 L0.0716816803,54.6443182 C0.446017698,54.4194301 0.678969516,53.9578818 0.678969516,53.3189398 Z" id="path-1"></path>
        <linearGradient x1="33.4768353%" y1="48.7754779%" x2="69.663997%" y2="52.0278035%" id="linearGradient-3">
            <stop stop-color="#93193E" offset="0%"></stop>
            <stop stop-color="#3B151E" offset="100%"></stop>
        </linearGradient>
        <path d="M30.7964297,31.2709091 C30.4364483,30.6625717 29.92877,30.1435762 29.3660021,29.865804 L1.29457376,16.0072443 C1.01580186,15.8695765 0.750802332,15.8041945 0.510023192,15.8041945 C0.352353222,15.8041945 0.204656353,15.8326214 0.0716816803,15.8866327 L32.0397429,0.115749383 L32.0397429,0.116155483 C32.1883896,0.0454941287 32.3555577,0.0085390525 32.5364983,0.0085390525 C32.7763276,0.0085390525 33.0403773,0.0735150106 33.3186743,0.210370622 L61.3896278,14.0689303 C61.9490712,14.3454842 62.4534252,14.8608248 62.8129317,15.464289 L50.840462,21.3750707 L50.3142622,21.6349745 L36.5095915,28.4505464 L35.9833918,28.7100441 L30.7964297,31.2709091" id="path-4"></path>
        <linearGradient x1="2.76205038%" y1="45.2304727%" x2="88.2675306%" y2="67.4278706%" id="linearGradient-6">
            <stop stop-color="#B0647A" offset="0%"></stop>
            <stop stop-color="#801837" offset="100%"></stop>
        </linearGradient>
        <filter x="-25.2%" y="-15.6%" width="150.9%" height="137.2%" filterUnits="objectBoundingBox" id="filter-7">
            <feOffset dx="0" dy="0" in="SourceAlpha" result="shadowOffsetOuter1"></feOffset>
            <feGaussianBlur stdDeviation="0.5" in="shadowOffsetOuter1" result="shadowBlurOuter1"></feGaussianBlur>
            <feColorMatrix values="0 0 0 0 0   0 0 0 0 0   0 0 0 0 0  0 0 0 1 0" type="matrix" in="shadowBlurOuter1" result="shadowMatrixOuter1"></feColorMatrix>
            <feMerge>
                <feMergeNode in="shadowMatrixOuter1"></feMergeNode>
                <feMergeNode in="SourceGraphic"></feMergeNode>
            </feMerge>
        </filter>
        <path d="M6.35597705,3.53591775 C6.30807418,4.01327864 6.22499939,4.48714878 6.0983373,4.94923762 C6.03532992,5.18028203 5.96174939,5.40805387 5.87781148,5.63146226 C5.79387357,5.85508882 5.69979406,6.07413377 5.59341516,6.28685171 C5.48725205,6.49956966 5.37094734,6.70617879 5.24493258,6.9058064 C5.19530348,6.98347573 5.14394816,7.06005419 5.09129816,7.13510544 C5.06540471,7.17219473 5.06864139,7.22215617 5.09949775,7.25531836 C5.11179713,7.26862686 5.12409652,7.28193537 5.13618012,7.29546205 C5.18170943,7.34673253 5.2255125,7.3988757 5.26758934,7.45276425 C5.4583377,7.69777169 5.61089324,7.97266873 5.71835102,8.26632859 C5.72331393,8.2796371 5.71489857,8.29425464 5.70108873,8.2968727 C5.53040779,8.33003489 5.36188463,8.37519654 5.19573504,8.43192133 C4.72425861,8.5933688 4.29334857,8.84252152 3.91508852,9.17261614 C3.53682848,9.50271076 3.22977541,9.8971662 3.00277623,10.3450738 C2.76779324,10.8089081 2.62904754,11.3096134 2.59107049,11.833445 C2.58675492,11.8940969 2.58351824,11.9547487 2.58200779,12.0151825 C2.58157623,12.0328544 2.58114467,12.0503082 2.58092889,12.0679801 C2.58071311,12.0771434 2.58071311,12.0865248 2.58071311,12.095688 C2.58071311,12.0978697 2.58049734,12.0996151 2.58071311,12.1015787 C2.58071311,12.1190324 2.58049734,12.1360499 2.58071311,12.1535037 C2.58071311,12.1574308 2.58092889,12.1611397 2.58092889,12.1650668 C2.58114467,12.1860113 2.58157623,12.207174 2.58200779,12.2283367 C2.58222357,12.2289913 2.58200779,12.2296458 2.58200779,12.2305185 L2.58200779,12.2305185 C2.58265512,12.2446997 2.57035574,12.2562628 2.55633012,12.2542992 C2.47433422,12.2431725 2.39212254,12.2283367 2.30991086,12.2097921 C1.869075,12.1105237 1.47290533,11.9159141 1.13844836,11.6521438 C1.12550164,11.6421079 1.1127707,11.632072 1.10003975,11.6213815 C1.09184016,11.6146182 1.08364057,11.6078549 1.07565676,11.6010915 C1.06680984,11.5938918 1.05839447,11.5866921 1.0499791,11.5792743 C1.02883279,11.5616023 1.00811803,11.5430577 0.987619057,11.5247312 C0.975535451,11.5138226 0.963883402,11.5026958 0.951584016,11.491569 C0.940363525,11.4810968 0.928927254,11.4701882 0.917922541,11.4592795 C0.894618443,11.437026 0.87196168,11.4143361 0.849304918,11.3912098 C0.842831557,11.3844465 0.836142418,11.377465 0.829669057,11.3707016 C0.822116803,11.3628474 0.814996107,11.3549932 0.807443852,11.347139 C0.798596926,11.3377576 0.789965779,11.3283762 0.78155041,11.3189948 C0.780471516,11.3176858 0.779392623,11.3163767 0.77831373,11.3152859 C0.770114139,11.3063408 0.76169877,11.2969594 0.753930738,11.2880143 C0.7502625,11.2836509 0.746594262,11.2797238 0.742926025,11.2755785 C0.722858607,11.2526704 0.703222746,11.2295442 0.683802664,11.2059816 C0.683586885,11.2055452 0.682939549,11.2051089 0.682507992,11.2044544 C0.672366393,11.1922367 0.662440574,11.1795827 0.652298975,11.1671469 C0.642157377,11.1544929 0.632015779,11.1416207 0.622305738,11.1285304 C0.613890369,11.11784 0.605906557,11.1067132 0.597491189,11.0960227 C0.591449385,11.0883867 0.585839139,11.0803143 0.580013115,11.0720238 C0.573755533,11.0637332 0.567497951,11.0550064 0.561240369,11.0460613 C0.552393443,11.0338437 0.543978074,11.0220623 0.535562705,11.0096265 C0.518947746,10.9858458 0.502548566,10.9614105 0.486580943,10.9369752 C0.47881291,10.9245394 0.47061332,10.9118854 0.462629508,10.8994495 C0.457019262,10.8900681 0.451193238,10.8809049 0.445151434,10.8713053 C0.439972746,10.8625784 0.434578279,10.8538515 0.429183811,10.8449065 C0.420984221,10.831598 0.413216189,10.8180713 0.405448156,10.8047628 C0.398974795,10.7934178 0.392501434,10.782291 0.386243852,10.7711643 C0.379770492,10.7598193 0.373728689,10.7486925 0.367686885,10.7375657 C0.367471107,10.7371294 0.367471107,10.7369112 0.367471107,10.736693 C0.361213525,10.7253481 0.354955943,10.7140031 0.349129918,10.7026582 C0.339851434,10.6852044 0.33078873,10.6677506 0.321941803,10.6500787 C0.313094877,10.6324067 0.304247951,10.6145166 0.295832582,10.5968446 C0.289359221,10.5833179 0.283101639,10.5700094 0.276844057,10.5562646 C0.270586475,10.5427379 0.264328893,10.5292112 0.25828709,10.5156845 C0.252461066,10.5021579 0.246419262,10.4886312 0.240377459,10.4746682 C0.234767213,10.4611415 0.228941189,10.4471785 0.223330943,10.4334336 C0.215778689,10.4151071 0.208442213,10.3965625 0.201321516,10.378236 C0.194416598,10.3596914 0.187295902,10.3409286 0.180606762,10.3223839 C0.173701844,10.3036211 0.167228484,10.2850765 0.160539344,10.2658773 C0.154281762,10.2471145 0.14802418,10.2281335 0.141982377,10.2091525 C0.135940574,10.1903897 0.130330328,10.1718451 0.124504303,10.1526459 C0.124504303,10.1522096 0.124072746,10.1513369 0.123856967,10.1506824 C0.118894057,10.1334468 0.113715369,10.1162111 0.108968238,10.0987574 C0.108320902,10.0963575 0.107673566,10.0935212 0.10702623,10.0911213 C0.106594672,10.0898123 0.106163115,10.0885033 0.105947336,10.0869761 C0.101415984,10.070395 0.0968846311,10.0533775 0.0923532787,10.0363601 C0.0830747951,9.99927081 0.0742278689,9.96152701 0.0662440574,9.92378321 C0.0651651639,9.9192016 0.0640862705,9.91440181 0.0632231557,9.90960202 C0.063007377,9.90872933 0.063007377,9.90785664 0.0627915984,9.90698395 L0.0621442623,9.90392954 C0.0597706967,9.8932391 0.0576129098,9.88233049 0.055455123,9.87164005 L0.0543762295,9.86640391 C0.0535131148,9.86160412 0.05265,9.85680433 0.0515711066,9.85222271 C0.0487659836,9.83716883 0.0459608607,9.82146043 0.0435872951,9.80618837 C0.0397032787,9.78437114 0.036035041,9.76277209 0.0327983607,9.74117304 C0.0317194672,9.73310066 0.0304247951,9.72524646 0.0295616803,9.71739226 C0.0280512295,9.7060473 0.0261092213,9.69492052 0.0248145492,9.68357556 C0.0237356557,9.67572136 0.022872541,9.66764899 0.0220094262,9.65957661 C0.0217936475,9.65848575 0.0215778689,9.65717672 0.0213620902,9.65608586 C0.0204989754,9.64888617 0.0196358607,9.64146832 0.0187727459,9.63426863 C0.0174780738,9.62030561 0.0157518443,9.60634258 0.0144571721,9.59237956 C0.0131625,9.57841653 0.0118678279,9.56445351 0.0105731557,9.55027231 L0.00906270492,9.52932778 C0.00798381148,9.51907368 0.0075522541,9.50903776 0.00668913934,9.49900183 C0.00582602459,9.48962043 0.00539446721,9.48023902 0.00496290984,9.47063944 C0.00474713115,9.4702031 0.00474713115,9.4702031 0.00474713115,9.46976675 C0.00409979508,9.45929448 0.00345245902,9.44838587 0.00323668033,9.43769543 C0.00258934426,9.42765951 0.00237356557,9.41762358 0.00215778689,9.40780583 C0.00151045082,9.39951528 0.00151045082,9.39100657 0.00129467213,9.38271602 C0.00107889344,9.3702802 0.000647336066,9.35806256 0.000647336066,9.34562674 C0.000431557377,9.34519039 0.000431557377,9.34475405 0.000647336066,9.3443177 C0.000431557377,9.33449995 0.000647336066,9.32446403 0.000431557377,9.31464628 C0.000215778689,9.30002874 0.000431557377,9.28519302 0.000647336066,9.27057548 C0.000863114754,9.25683063 0.000863114754,9.24308578 0.00151045082,9.22934093 C0.00172622951,9.21821414 0.00215778689,9.20708735 0.00258934426,9.19596057 C0.00237356557,9.19399702 0.00280512295,9.1918153 0.00258934426,9.19006992 C0.00302090164,9.18199755 0.00323668033,9.17436152 0.00345245902,9.16672549 C0.00431557377,9.15341698 0.00496290984,9.14010847 0.00539446721,9.12679996 C0.00625758197,9.11130973 0.0075522541,9.09560133 0.00863114754,9.07989293 C0.0094942623,9.06527539 0.0107889344,9.05043968 0.0122993852,9.03560396 C0.0131625,9.02513169 0.0142413934,9.01465943 0.0153202869,9.00440533 C0.0183411885,8.97407939 0.0217936475,8.9433171 0.0256776639,8.91277298 C0.0271881148,8.90099168 0.0286985656,8.88921038 0.0304247951,8.8772109 C0.0310721311,8.87197477 0.0317194672,8.86673864 0.032582582,8.86128433 C0.0349561475,8.84644862 0.0371139344,8.8316129 0.0397032787,8.81677719 C0.0468239754,8.77292457 0.0548077869,8.72929012 0.0638704918,8.68565566 C0.0673229508,8.66951092 0.0707754098,8.65358434 0.0742278689,8.63765777 C0.0778961066,8.62173119 0.081780123,8.60580462 0.085232582,8.59009622 C0.0876061475,8.58049664 0.0899797131,8.57111523 0.0921375,8.56151565 C0.0930006148,8.55867941 0.0938637295,8.55540683 0.0945110656,8.55235242 C0.0971004098,8.54253466 0.0994739754,8.53293509 0.10206332,8.52311733 C0.107673566,8.50260914 0.113068033,8.48210095 0.119109836,8.46159276 C0.121267623,8.4541749 0.12342541,8.44653887 0.125583197,8.43868467 C0.127093648,8.43344854 0.129035656,8.4282124 0.130546107,8.4227581 C0.132488115,8.41621293 0.134430123,8.40988593 0.136372131,8.40334077 C0.139608811,8.3928685 0.142845492,8.38283257 0.146082172,8.37279665 C0.149318852,8.36254255 0.152555533,8.35250663 0.155792213,8.34247071 C0.159244672,8.33243478 0.162481352,8.32239886 0.16614959,8.31236294 C0.169170492,8.30341787 0.172191393,8.29447281 0.175428074,8.28552775 C0.17931209,8.27461913 0.183411885,8.26371052 0.187295902,8.25258374 C0.191179918,8.24254781 0.194632377,8.23294823 0.198300615,8.22291231 C0.202184631,8.21287639 0.206068648,8.20305864 0.209952664,8.19345906 C0.21383668,8.1836413 0.217504918,8.17382355 0.221604713,8.16422397 L0.23368832,8.13498889 C0.234119877,8.13346169 0.234767213,8.13215265 0.235414549,8.13084362 C0.240593238,8.11818963 0.245987705,8.10531746 0.251597951,8.09288165 C0.254403074,8.08590013 0.257855533,8.07891862 0.260660656,8.07215528 C0.264113115,8.06430108 0.267565574,8.05644688 0.271233811,8.04837451 C0.275549385,8.03877493 0.280080738,8.02939352 0.284396311,8.02001211 C0.288711885,8.01041253 0.293243238,8.00103113 0.297558811,7.99164972 C0.302090164,7.98248648 0.306621516,7.97288691 0.311368648,7.96372367 C0.316115779,7.95456044 0.320647131,7.94517903 0.325394262,7.93579762 C0.334672746,7.91725298 0.344167008,7.89892651 0.354092828,7.88060004 C0.358839959,7.87143681 0.363802869,7.86227357 0.368765779,7.85332851 C0.37351291,7.84438345 0.37847582,7.83522021 0.383654508,7.82627515 C0.408900615,7.78111349 0.435441393,7.7370427 0.462845287,7.69340825 C0.468239754,7.68468136 0.473634221,7.67617264 0.479244467,7.66744575 C0.507511475,7.62337495 0.537073156,7.58017685 0.567497951,7.5380696 C0.578718443,7.52257937 0.590154713,7.50687097 0.602022541,7.49138074 C0.663303689,7.41000249 0.728468852,7.33211499 0.797302254,7.2581546 C0.804207172,7.25095491 0.81111209,7.24331888 0.818232787,7.23590103 C0.828590164,7.22499241 0.83916332,7.2140838 0.849952254,7.20317519 C0.86052541,7.19226658 0.870882787,7.18179431 0.8818875,7.17088569 C0.889008197,7.16368601 0.896128893,7.1567045 0.903465369,7.14994116 C0.910370287,7.14274147 0.917490984,7.13575996 0.924827459,7.12921479 C0.932163934,7.12201511 0.93950041,7.11525177 0.947052664,7.10827026 C0.954389139,7.10128874 0.961941393,7.0945254 0.969277869,7.08776206 C0.999055328,7.06070871 1.02948012,7.03409169 1.05990492,7.00791102 C1.06551516,7.00354757 1.07069385,6.99896596 1.0763041,6.99438434 C1.08385635,6.98827552 1.09097705,6.98216669 1.0985293,6.97605787 C1.1147127,6.96296753 1.13111189,6.9498772 1.14772684,6.93700504 C1.14988463,6.93547783 1.15182664,6.93373245 1.15398443,6.93220525 C1.16973627,6.91976943 1.18570389,6.90776995 1.2018873,6.89577048 L1.20577131,6.89293424 C1.22368094,6.87940756 1.24180635,6.86631723 1.25993176,6.85366323 C1.27848873,6.8405729 1.29682992,6.82791891 1.31560266,6.81548309 C1.32488115,6.80893792 1.33437541,6.80304727 1.34365389,6.79672028 C1.35314816,6.79039328 1.3628582,6.78450263 1.37213668,6.77839381 L1.37558914,6.77621208 C1.39241988,6.76552164 1.40925061,6.7548312 1.42651291,6.74414076 C1.42888648,6.74283173 1.43104426,6.74130452 1.43341783,6.73999549 C1.44830656,6.73105043 1.46297951,6.72232354 1.47808402,6.71337847 C1.48347848,6.71032406 1.48887295,6.70726965 1.49426742,6.70399707 C1.5106666,6.69461566 1.52728156,6.68523425 1.54389652,6.67628919 C1.63322889,6.62741861 1.72536639,6.58269329 1.8194459,6.54320412 C1.82980328,6.53884067 1.83994488,6.53447722 1.85073381,6.53033195 C1.86152275,6.52575033 1.87231168,6.52160506 1.88288484,6.51724162 C1.90338381,6.50895107 1.92409857,6.50131504 1.94481332,6.49367901 C1.95560225,6.48975191 1.96639119,6.48560664 1.97718012,6.48189771 C1.98775328,6.47840696 1.99832643,6.47469803 2.00911537,6.4709891 C2.01968852,6.46728017 2.03069324,6.46378941 2.04126639,6.46029866 C2.04169795,6.46008049 2.04191373,6.45986231 2.04234529,6.45986231 C2.04385574,6.45942597 2.04493463,6.45877145 2.04644508,6.45833511 C2.32026824,6.36015759 2.58740225,6.30866894 2.83468463,6.30670539 C2.9017918,6.30605087 2.96738852,6.30932346 3.03125902,6.3160868 C3.08283012,6.3215411 3.13332234,6.3293953 3.18208832,6.34008575 C3.42117111,6.39048354 3.62918176,6.49891515 3.78842643,6.66930768 C3.89221598,6.78013918 3.9690332,6.91038802 4.01995697,7.05459988 C4.05642357,7.15757719 4.07972766,7.267536 4.0905166,7.38338547 C4.09267439,7.40542087 4.12094139,7.41240238 4.13259344,7.39385774 C4.13561434,7.38905795 4.13863525,7.38425816 4.14144037,7.3792402 C4.1694916,7.33429671 4.19819016,7.29000775 4.22537828,7.24484609 L4.30478484,7.10783391 C4.40792705,6.92369653 4.50179078,6.73585022 4.5846498,6.54385863 C4.66642992,6.35121253 4.73806844,6.15507567 4.79978115,5.95653892 C5.04512152,5.16108288 5.12172295,4.32570131 5.07015184,3.50231922 C5.04468996,3.09041 4.98750861,2.6806825 4.90270758,2.27902738 C4.86084652,2.07852708 4.81100164,1.87977215 4.75489918,1.68538067 C4.72684795,1.58829402 4.69707049,1.49208006 4.6655668,1.39848416 C4.64981496,1.35157712 4.63363156,1.30576095 4.61723238,1.26081746 L4.59263361,1.19580213 L4.58033422,1.16547619 L4.5745082,1.15194951 C4.57364508,1.14976779 4.57278197,1.14867693 4.57213463,1.14693155 L4.57083996,1.14453165 C4.57083996,1.144968 4.57083996,1.14584069 4.57083996,1.14627703 C4.42518934,0.690733361 4.67225594,0.202245681 5.12280184,0.0547612361 C5.46286906,-0.0562884419 5.82170902,0.058906509 6.03942971,0.317876976 C6.03986127,0.318095149 6.03986127,0.318095149 6.03964549,0.318313321 L6.04007705,0.318531493 C6.11085246,0.402527811 6.16652336,0.501578015 6.20212684,0.612845866 L6.20536352,0.624627168 L6.20730553,0.632263196 L6.21097377,0.646880738 L6.21701557,0.673497753 L6.22780451,0.723241027 C6.23470943,0.755966865 6.24096701,0.787601842 6.24722459,0.819018647 C6.25887664,0.881852257 6.26988135,0.943595005 6.28002295,1.00490141 C6.30009037,1.12751422 6.31692111,1.24881799 6.33137828,1.37012176 C6.34583545,1.49120737 6.35835061,1.6120748 6.36806066,1.73250588 C6.37820225,1.85315514 6.38597029,1.9738044 6.39136475,2.09423548 C6.40797971,2.45203798 6.4060377,2.80962231 6.38445984,3.1658976 C6.37798648,3.29047396 6.36806066,3.41330494 6.35597705,3.53591775 Z" id="path-8"></path>
        <filter x="0.0%" y="-0.0%" width="100.0%" height="100.0%" filterUnits="objectBoundingBox" id="filter-9">
            <feOffset dx="0" dy="0" in="SourceAlpha" result="shadowOffsetOuter1"></feOffset>
            <feColorMatrix values="0 0 0 0 1   0 0 0 0 1   0 0 0 0 1  0 0 0 1 0" type="matrix" in="shadowOffsetOuter1"></feColorMatrix>
        </filter>
        <path d="M9.83864508,12.3974202 C9.68695266,14.3018459 8.0189834,15.7280379 6.13609857,15.5648451 C5.6143457,15.5194652 5.12949098,15.3575814 4.7050543,15.1066833 C4.68865512,15.0968656 4.67225594,15.087266 4.65607254,15.0772301 C4.64571516,15.0709031 4.63514201,15.0643579 4.62478463,15.0575946 C4.61377992,15.0508312 4.6027752,15.0438497 4.59198627,15.0368682 C4.56501393,15.0196326 4.53847316,15.0017425 4.51214816,14.9838523 C4.49661209,14.9731619 4.4812918,14.9624715 4.46597152,14.9513447 C4.45129857,14.9410906 4.43662561,14.9304001 4.42195266,14.9194915 C4.39195943,14.8976743 4.36218197,14.8749844 4.33305184,14.8520763 C4.3244207,14.845313 4.31578955,14.8385496 4.3071584,14.8315681 C4.29744836,14.8239321 4.28773832,14.8160779 4.27802828,14.8080055 C4.26659201,14.7986241 4.25515574,14.7892427 4.24371947,14.7796431 C4.24220902,14.7783341 4.24069857,14.7772432 4.23940389,14.7759342 C4.22861496,14.7667709 4.21761025,14.7576077 4.20703709,14.7482263 C4.20228996,14.744081 4.19754283,14.7399358 4.19257992,14.7357905 C4.16603914,14.7126642 4.13992992,14.6888834 4.11425225,14.6651027 C4.1138207,14.6644482 4.11317336,14.6640118 4.11252602,14.6633573 C4.09893197,14.6507033 4.08555369,14.6380493 4.07239119,14.6251771 C4.05879713,14.6120868 4.0449873,14.5987783 4.0318248,14.5854698 C4.02082008,14.574343 4.00981537,14.5632162 3.99859488,14.5518713 C3.99061107,14.5437989 3.98262725,14.5355084 3.97485922,14.5272178 C3.96644385,14.5184909 3.9578127,14.5093277 3.94939734,14.5003826 C3.93752951,14.4879468 3.92587746,14.4750746 3.91444119,14.4624206 C3.89178443,14.4373308 3.86934344,14.4120229 3.84733402,14.3864967 C3.8363293,14.3734064 3.82510881,14.360316 3.81388832,14.3470075 C3.80590451,14.3371898 3.79770492,14.327372 3.78972111,14.3175543 C3.78216885,14.308391 3.77483238,14.2990096 3.76728012,14.2896282 C3.75605963,14.2756652 3.74483914,14.2612658 3.73383443,14.2470846 C3.72477172,14.2353033 3.71570902,14.2233039 3.70664631,14.2113044 C3.69779939,14.1995231 3.68895246,14.1875236 3.68010553,14.1757423 C3.67988975,14.175306 3.67967398,14.1750878 3.67967398,14.1748696 C3.67082705,14.162652 3.66198012,14.1508707 3.65334898,14.138653 C3.64018648,14.1198902 3.6268082,14.1011274 3.61386148,14.0821464 C3.60091475,14.0633836 3.58818381,14.0441844 3.57566865,14.0249853 C3.53790738,13.9671696 3.50187234,13.9086995 3.46756352,13.8487021 C3.45612725,13.8286302 3.44490676,13.8085584 3.43368627,13.7884865 C3.42268156,13.7684147 3.41189262,13.7479065 3.40110369,13.7273983 C3.39053053,13.7068901 3.37995738,13.6866001 3.36981578,13.6658737 C3.35967418,13.6453655 3.34953258,13.624421 3.33960676,13.6034765 C3.32989672,13.5829683 3.32040246,13.5622419 3.3109082,13.5412974 C3.31069242,13.540861 3.31026086,13.5399883 3.31004508,13.5393338 C3.30162971,13.5203528 3.29321434,13.5011537 3.28501475,13.4819545 C3.28393586,13.4793365 3.28264119,13.4765002 3.2815623,13.473664 C3.27314693,13.4535921 3.26473156,13.4333021 3.25653197,13.4127939 C3.23991701,13.3713412 3.22416516,13.3296703 3.20927643,13.287563 C3.20776598,13.2829814 3.20603975,13.278618 3.2045293,13.2742545 C3.19913484,13.2585461 3.19352459,13.2430559 3.18856168,13.2273475 C3.18618811,13.2205842 3.18403033,13.214039 3.18208832,13.2074938 C3.1762623,13.1904764 3.17086783,13.1730226 3.16547336,13.155787 C3.15770533,13.1313517 3.15036885,13.1071346 3.14346393,13.0824811 C3.14087459,13.0735361 3.13850102,13.0648092 3.13591168,13.0558641 C3.11843361,12.9934668 3.10289754,12.9304151 3.0890877,12.8669269 C3.08736148,12.8590727 3.08563525,12.8510004 3.08390902,12.8431462 C3.08153545,12.831583 3.07916189,12.8200199 3.07678832,12.8084568 C3.07441475,12.7975482 3.07247275,12.7866396 3.07031496,12.7755128 C3.06794139,12.7632951 3.06578361,12.7510775 3.06362582,12.7386417 C3.06146803,12.7272967 3.05952602,12.7159517 3.05758402,12.7043886 C3.05585779,12.694789 3.05434734,12.6851895 3.05283689,12.6755899 C3.0506791,12.6614087 3.04830553,12.6474457 3.04636352,12.6332645 C3.04614775,12.6328281 3.04614775,12.6323918 3.04614775,12.6319554 C3.0446373,12.6206105 3.04291107,12.6092655 3.04140061,12.5981387 C3.03902705,12.5813395 3.03686926,12.564322 3.03471148,12.5475228 C3.03276947,12.5318144 3.03082746,12.5158878 3.02931701,12.4999612 C3.02759078,12.4846891 3.02608033,12.4694171 3.02478566,12.4543632 C3.02392254,12.4454181 3.02305943,12.4362549 3.02219631,12.4273098 C3.02090164,12.4118196 3.01960697,12.3967657 3.01852807,12.3812755 C3.01701762,12.3631672 3.01593873,12.3450589 3.01485984,12.3269506 C3.01399672,12.3116786 3.01313361,12.2959701 3.01248627,12.2804799 C3.01227049,12.2787345 3.01227049,12.2772073 3.01227049,12.275462 C3.01183893,12.2634625 3.0111916,12.2512448 3.01097582,12.2392454 C3.008969,12.1836114 3.00860225,12.1279775 3.00924959,12.0719072 C3.00968115,12.0544535 3.00989693,12.0372179 3.01054426,12.0197641 C3.01205471,11.9684936 3.01464406,11.9170049 3.0183123,11.8652981 C3.02111742,11.8273361 3.02456988,11.7898105 3.02845389,11.7522849 C3.02953279,11.7409399 3.03082746,11.729595 3.03212213,11.7184682 C3.03255369,11.7147593 3.03298525,11.7112685 3.0334168,11.7073414 C3.03471148,11.6957783 3.03622193,11.6842151 3.03773238,11.672652 C3.04528463,11.6124365 3.05456311,11.5526573 3.06535205,11.4933144 C3.06750984,11.4810968 3.06966762,11.4690973 3.07204119,11.4568797 C3.07419898,11.4448802 3.07678832,11.4326625 3.07916189,11.4206631 C3.08131967,11.4099726 3.08347746,11.399064 3.08585102,11.3883736 C3.08865615,11.3750651 3.09146127,11.3617566 3.09469795,11.348448 C3.09750307,11.3364486 3.10009242,11.3246673 3.10289754,11.3126678 C3.11735471,11.250925 3.13353811,11.190055 3.15123197,11.1298394 C3.15403709,11.1202399 3.15684221,11.1106403 3.15986311,11.1010407 C3.16353135,11.0894776 3.16698381,11.0779144 3.17065205,11.0663513 C3.17432029,11.0547882 3.17798852,11.0432251 3.18187254,11.0316619 C3.18554078,11.020317 3.1894248,11.0087538 3.19330881,10.9974089 C3.19697705,10.9858458 3.20107684,10.9745008 3.20517664,10.9631558 C3.21294467,10.9402478 3.22114426,10.917776 3.22977541,10.8950861 C3.23409098,10.8837411 3.23840656,10.8723962 3.24250635,10.8614876 C3.24682193,10.8503608 3.2511375,10.839234 3.25566885,10.8281072 C3.27789406,10.7722551 3.30141393,10.7172757 3.32622848,10.663169 C3.33119139,10.6524785 3.3361543,10.6415699 3.34133299,10.6306613 C3.36722643,10.5756819 3.39441455,10.5215752 3.42311311,10.4683412 C3.43390205,10.4484875 3.4444752,10.428852 3.4556957,10.4094347 C3.51374016,10.3062392 3.57696332,10.2067526 3.64471783,10.1107568 C3.65140697,10.1011573 3.65831189,10.0915577 3.6652168,10.0819581 C3.68593156,10.0533775 3.70686209,10.0252333 3.72822418,9.99752544 C3.73534488,9.98814403 3.74246557,9.97898079 3.74980205,9.96981756 C3.75692275,9.96065433 3.76404344,9.95149109 3.77137992,9.94254603 C3.77871639,9.93338279 3.78605287,9.92421956 3.79360512,9.91505632 C3.8009416,9.90611126 3.80849385,9.89694803 3.81604611,9.88800296 C3.85833873,9.837387 3.90235758,9.78764373 3.94745533,9.73964583 C4.26659201,9.42744133 4.60946434,9.17785227 4.9521209,8.99960554 C4.95255246,8.99938737 4.95298402,8.9991692 4.95341557,8.99895102 C4.97046209,8.99066048 4.98750861,8.9825881 5.0047709,8.97451573 C5.02224898,8.96644336 5.03972705,8.95837098 5.05763668,8.95051678 C5.07015184,8.94506248 5.08245123,8.93960817 5.09518217,8.93415386 C5.10165553,8.93131762 5.10856045,8.92826321 5.11524959,8.92564515 C5.13164877,8.91844546 5.14847951,8.91168212 5.16509447,8.90491878 C5.18127787,8.89837361 5.19724549,8.89204662 5.21342889,8.88593779 C5.21342889,8.88593779 5.21364467,8.88593779 5.21364467,8.88593779 C5.22659139,8.88026532 5.23996967,8.8756837 5.25334795,8.87088391 C5.27945717,8.86128433 5.30578217,8.85168475 5.33253873,8.84273969 C5.34980102,8.83684904 5.3672791,8.83117656 5.38475717,8.82550408 C5.39856701,8.82092246 5.41237684,8.81655902 5.42640246,8.81219557 C5.42683402,8.8119774 5.4270498,8.8119774 5.42769713,8.81175923 C5.43870184,8.80848664 5.44949078,8.80499589 5.46049549,8.80194148 C5.47646311,8.79714169 5.49264652,8.7923419 5.50882992,8.78776028 C5.52371865,8.78339683 5.53860738,8.77946973 5.55371189,8.77554263 C5.59125738,8.76550671 5.62880287,8.7561253 5.66677992,8.74718024 C5.66721148,8.74696207 5.66764303,8.74718024 5.66807459,8.74696207 C5.68727889,8.74238045 5.7064832,8.73845335 5.72590328,8.73430808 C5.74100779,8.73103549 5.75632807,8.72798108 5.77164836,8.72492667 C5.77790594,8.72361764 5.78416352,8.72252678 5.79042111,8.72121774 C5.8076834,8.71794516 5.8249457,8.71467257 5.84220799,8.71161816 C5.84263955,8.71139999 5.84328689,8.71161816 5.84371844,8.71139999 C5.91794631,8.69852783 5.99282152,8.68783739 6.06834406,8.67998319 C6.42114221,8.66972909 6.74049467,8.76157961 6.99252418,8.96775239 C7.12889631,9.07902024 7.23700143,9.21668693 7.31727111,9.37486182 C7.43400738,9.60285183 7.4935623,9.87403994 7.4985252,10.1711906 C7.49917254,10.2058799 7.54729119,10.2130796 7.55743279,10.1799174 L7.56066947,10.1694452 L7.62195061,9.9451641 L7.65237541,9.83324173 L7.67891619,9.7202285 C7.69617848,9.64495907 7.71516701,9.57012599 7.73091885,9.49463839 C7.76846434,9.31748252 7.80018381,9.13967213 7.82672459,8.96164357 C7.83794508,8.887465 7.84808668,8.81350461 7.85758094,8.73954421 C7.8640543,8.68827373 7.87009611,8.63700325 7.87592213,8.58595094 C7.8782957,8.56217017 7.88066926,8.53838939 7.88282705,8.51460862 C7.90936783,8.23447544 7.9208041,7.95434226 7.91886209,7.67551812 C7.91692008,7.60003052 7.91692008,7.52432475 7.9136834,7.44905532 L7.9015998,7.22324704 C7.89598955,7.14819578 7.88865307,7.0733627 7.88217971,6.99852961 C7.88045348,6.9797668 7.87915881,6.96100398 7.87700102,6.94245934 L7.87009611,6.88660725 L7.85650205,6.77490305 C7.81766189,6.47775244 7.76134365,6.18387441 7.68819467,5.89545069 C7.54168094,5.31860324 7.32611803,4.76335485 7.05337377,4.24017779 C6.85809406,3.8657942 6.63454734,3.50690084 6.38640184,3.16720663 C6.28822254,3.03259435 6.18615922,2.90060014 6.08021189,2.77209668 C5.89442643,2.54585205 5.69720471,2.32964334 5.49199918,2.12565229 C5.38928852,2.02398401 5.2842043,1.92537015 5.17804119,1.83155609 C5.12495963,1.78508539 5.07144652,1.73905105 5.01858074,1.69585294 L4.97887746,1.66378162 C4.96571496,1.65309118 4.95276824,1.64283708 4.9400373,1.63280116 L4.90227602,1.60400242 L4.88522951,1.59134843 C4.88220861,1.58894854 4.88005082,1.58785768 4.87789303,1.58633047 L4.87465635,1.58393058 C4.87444057,1.58393058 4.87444057,1.58393058 4.87444057,1.58393058 C4.87444057,1.58414875 4.87465635,1.58436692 4.87465635,1.58436692 C4.50696947,1.28328921 4.45021967,0.73807674 4.7475627,0.366311217 C4.93119037,0.136575832 5.20695553,0.0266170152 5.47797357,0.0469070349 L5.47818934,0.0469070349 C5.64628094,0.0593428535 5.81221475,0.121958291 5.95333402,0.237153242 L5.9656334,0.248061855 L5.97361721,0.255261539 L5.98915328,0.269442736 L6.01677295,0.295623406 L6.04137172,0.319622354 C6.04180328,0.319840527 6.04180328,0.319840527 6.0415875,0.320058699 L6.04201906,0.320276871 L6.06812828,0.345584853 C6.08474324,0.362165944 6.1013582,0.378528863 6.11711004,0.39467361 L6.16479713,0.443326023 C6.22802029,0.508123183 6.28779098,0.573356687 6.34713012,0.638808364 C6.46472951,0.769493545 6.5771502,0.902360449 6.68590266,1.03762725 C6.90254447,1.30816084 7.10408176,1.5876395 7.29073033,1.87606323 C7.66445902,2.4526925 7.97928012,3.06619288 8.22591516,3.7060921 C8.47233443,4.34577316 8.64754672,5.01316209 8.74033156,5.68927791 C8.78672398,6.02722673 8.81261742,6.36735728 8.81865922,6.70639696 L8.81995389,6.83359139 L8.82060123,6.89707951 C8.82038545,6.91824222 8.81973811,6.93940493 8.81930656,6.96056764 C8.81736455,7.04521848 8.8158541,7.12965114 8.81261742,7.2140838 L8.79772869,7.46694544 C8.79190266,7.55094176 8.78262418,7.63471991 8.77507193,7.71849806 C8.7399,8.0531743 8.68725,8.38435978 8.61604303,8.71009096 C8.60266475,8.76899747 8.58885492,8.82790397 8.57461352,8.88681048 C8.55627234,8.96207991 8.53706803,9.03713117 8.51721639,9.11174608 C8.51376393,9.12483641 8.51031148,9.13770858 8.50664324,9.15079891 C8.47751311,9.25835784 8.51268504,9.37355279 8.59791762,9.4442406 C8.61086434,9.45493104 8.62359529,9.46583965 8.63632623,9.47674826 C8.69652848,9.52823692 8.75478873,9.58168912 8.81132275,9.6368867 C9.51691906,10.3304563 9.92387766,11.3257581 9.83864508,12.3974202 Z" id="path-10"></path>
        <filter x="-0.0%" y="0.0%" width="100.0%" height="100.0%" filterUnits="objectBoundingBox" id="filter-11">
            <feOffset dx="0" dy="0" in="SourceAlpha" result="shadowOffsetOuter1"></feOffset>
            <feColorMatrix values="0 0 0 0 1   0 0 0 0 1   0 0 0 0 1  0 0 0 1 0" type="matrix" in="shadowOffsetOuter1"></feColorMatrix>
        </filter>
        <path d="M3.04204795,0.781929364 C3.25049016,0.721713821 3.42397623,0.667607102 3.92285656,0.632263196 C4.08188545,0.620918239 4.18891168,0.699242079 4.23940389,0.827527365 C4.34081988,1.08627966 4.32010512,1.40786556 4.30845307,1.70741607 C4.25105594,3.16502491 3.07333586,4.30104785 1.67789508,4.24497758 C1.26532623,4.22839648 0.879945492,4.10927443 0.543114959,3.91226489 C0.500606557,3.88739325 0.477949795,3.83874084 0.485070492,3.78965208 C0.696533607,2.33117055 1.71954037,1.16394898 3.04204795,0.781929364 Z" id="path-12"></path>
        <filter x="-0.0%" y="-0.0%" width="100.0%" height="100.0%" filterUnits="objectBoundingBox" id="filter-13">
            <feOffset dx="0" dy="0" in="SourceAlpha" result="shadowOffsetOuter1"></feOffset>
            <feColorMatrix values="0 0 0 0 1   0 0 0 0 1   0 0 0 0 1  0 0 0 1 0" type="matrix" in="shadowOffsetOuter1"></feColorMatrix>
        </filter>
        <path d="M3.67708463,0.28144221 C3.71959303,0.30369578 3.7614541,0.327258383 3.80245205,0.351693676 C3.8130252,0.358020671 3.82359836,0.364347667 3.83417152,0.370892834 C3.83611352,0.371983696 3.83783975,0.373074557 3.83978176,0.37438359 C3.83848709,0.37438359 3.83697664,0.37438359 3.83568197,0.374165418 C3.8069834,0.373510901 3.77850061,0.373292729 3.75001783,0.373510901 C3.62918176,0.373947246 3.50964037,0.380928758 3.3918252,0.394019093 C3.22804918,0.412127391 3.06729406,0.441798817 2.91063873,0.482597029 C2.83080061,0.503323393 2.75204139,0.526885997 2.67436107,0.55328484 C2.58222357,0.584483473 2.49202807,0.619827378 2.40334303,0.658662039 C1.23900123,1.16787608 0.499527664,2.34513357 0.367471107,3.72463675 C0.36531332,3.74732666 0.334672746,3.75256279 0.325394262,3.73161826 C0.167660041,3.37687017 -0.0105731557,2.95688858 0.00539446721,2.55065184 C0.0468239754,1.49927974 0.669345492,0.614809416 1.53634426,0.221881184 C1.53871783,0.220790323 1.54130717,0.219699461 1.54368074,0.2186086 C1.54519119,0.217954083 1.54648586,0.217299566 1.54799631,0.21664505 C1.5896416,0.198100408 1.63171844,0.180646628 1.67444262,0.164283708 C1.97588545,0.0490887575 2.30322172,-0.00807237345 2.64350471,0.00567247864 C2.90934406,0.0163629192 3.16374713,0.0695969495 3.40153525,0.158393058 C3.49604631,0.194173307 3.58818381,0.235189691 3.67708463,0.28144221 Z" id="path-14"></path>
        <filter x="-0.0%" y="-0.0%" width="100.0%" height="100.0%" filterUnits="objectBoundingBox" id="filter-15">
            <feOffset dx="0" dy="0" in="SourceAlpha" result="shadowOffsetOuter1"></feOffset>
            <feColorMatrix values="0 0 0 0 1   0 0 0 0 1   0 0 0 0 1  0 0 0 1 0" type="matrix" in="shadowOffsetOuter1"></feColorMatrix>
        </filter>
        <path d="M28.9112191,14.0039604 C15.018355,22.7405232 6.7594738,28.5232562 4.13457553,31.3521594 C0.197228125,35.5955141 -3.38764979,44.0113073 5.67272321,48.6019802 C14.7330962,53.1926531 50.3537769,61.7821782 59.4338161,68.3722772 C65.4871755,72.7656766 72.1193698,77.7082508 79.3303988,83.2 C80.1720371,76.6539417 83.5153119,70.3592855 89.3602232,64.3160314 C95.2051345,58.2727773 102.187684,55.0875676 110.307871,54.7604022 L85.4835003,29.9093012 C89.0076493,21.5690326 91.3495848,15.033806 92.5093066,10.3036214 C94.2488894,3.20834443 91.7676079,0 82.8602232,0 C76.9219668,0 66.6077945,0 51.9177063,0 L52.0294137,8.02996866 L71.6757806,11.5326733 C67.4862423,15.9748888 60.3810565,20.6186368 50.3602232,25.463917 C40.3393899,30.3091972 31.1310565,33.5639541 22.7352232,35.2281876 L36.5227734,18.9465347 L28.9112191,14.0039604 Z" id="path-16"></path>
        <path d="M0.368666143,54.0087768 C1.64896492,41.9248132 4.22383475,34.1348681 8.09327561,30.6389415 C11.9627165,27.1430148 20.0197744,25.6335837 32.2644495,26.1106479 C46.3775058,13.0558135 54.4088985,5.7062584 56.3586278,4.06198269 C59.2832216,1.59556912 65.3103874,1.86724909 69.5101902,1.73140911 C72.3100587,1.64084912 84.6936175,1.06371275 106.660867,0 C109.159736,2.51788562 110.409171,6.05829171 110.409171,10.6212183 C110.409171,15.1841449 109.159736,18.2889415 106.660867,19.9356082 L72.5840591,19.9356082 C76.4068185,24.1146631 79.2048609,28.5899824 80.9781863,33.3615661 C82.7515117,38.1331497 87.7298583,49.3011637 95.9132262,66.8656082 C93.9037446,69.6695518 92.0149576,71.4614066 90.2468651,72.2411726 C88.4787727,73.0209385 85.389213,73.4246393 80.9781863,73.4522748 L60.3204849,42.3460961 C56.713241,44.2454085 48.9254756,49.1252459 36.9571887,56.9856082 C24.9889019,64.8459704 12.7927277,63.8536933 0.368666143,54.0087768 Z" id="path-18"></path>
    </defs>
    <g id="Hurra-Landing-Page" stroke="none" stroke-width="1" fill="none" fill-rule="evenodd">
        <g id="Landing-Page-V1" transform="translate(-32.000000, -1111.000000)">
            <g id="bedroom_scene" transform="translate(31.000000, 1111.000000)">
                <g id="Bed-Scene2">
                    <g id="Group-18" transform="translate(256.344704, 228.500000) scale(-1, 1) translate(-256.344704, -228.500000) translate(0.344704, 0.000000)">
                        <g id="Headboard" transform="translate(0.000000, 0.000000)">
                            <polygon id="Path-20" fill="#EFEFEF" points="1.46646905 282.882056 9.776773 311.861799 259.085891 456.115055 293.712158 456.115055"></polygon>
                            <polygon id="Rectangle-Copy-54" fill="#F7F7F7" points="0.0814183964 140.657393 252.181031 0 257.700841 4.96970289 8.33929964 145.627096"></polygon>
                            <polygon id="Rectangle-Copy-55" fill="#DDDDDD" points="8.39172234 146.096445 257.700841 4.12152158 257.700841 177.16326 8.53994474 318.731002"></polygon>
                            <polygon id="Rectangle-Copy-56" fill="#C8C8C8" points="0.0814183964 141.505574 8.23697363 146.427793 8.39172234 318.731002 0.0814183964 313.808784"></polygon>
                        </g>
                        <g id="Bed" transform="translate(26.397381, 127.767169)">
                            <polygon id="Rectangle" fill="#E5E5E5" points="267.314777 286.248315 484.314777 169.47187 484.76773 203.285969 267.314777 328.347886"></polygon>
                            <polygon id="Rectangle" fill="#C8C8C8" points="6.92525329 134.636372 267.314777 286.333114 267.314777 328.347886 6.92525329 176.651143"></polygon>
                            <polygon id="Rectangle" fill="#F7F7F7" points="0 121.964482 220.836786 0.937422844 484.76773 155.114887 266.679386 276.141946"></polygon>
                            <polygon id="Rectangle" fill="#E5E5E5" points="267.314777 276.841478 484.76773 155.114887 484.76773 197.004411 267.314777 318.731002"></polygon>
                            <polygon id="Rectangle" fill="#F0F0F0" points="0 122.271807 267.314777 276.574581 267.314777 318.731002 1.89938573e-12 164.428228"></polygon>
                            <polygon id="Path-15" fill="#89A562" points="127.42466 241.145982 255.978295 315.983321 255.978295 270.138557 477.019637 150.53338 350.243563 76.5885591 127.42466 193.909539"></polygon>
                            <polygon id="Path-15" fill="#5E7243" points="127.42466 241.024583 256.234372 315.983321 256.234372 270.064189 127.42466 193.711514"></polygon>
                        </g>
                        <g id="Pillow-Copy" transform="translate(144.126687, 100.290358)">
                            <path d="M8.31030394,80.5074708 C20.6746368,91.2833154 28.9087748,96.6712376 33.0127178,96.6712376 C39.1686323,96.6712376 105.800295,57.5437537 107.823651,54.1236962 C109.172555,51.8436579 103.05901,45.6564145 89.4830146,35.561966 L8.31030394,80.5074708 Z" id="Path-9" fill-opacity="0.413871285" fill="#C9D0D3"></path>
                            <path d="M2.61220405,42.5890563 C0.870734684,49.4874058 0,55.7277779 0,61.3101726 C0,66.8925673 0.870734684,70.6330922 2.61220405,72.5317474 C6.88630411,75.5768126 10.7023638,77.7271337 14.0603831,78.9827108 C17.4184024,80.2382879 22.4269626,81.3875282 29.0860638,82.4304316 L2.61220405,42.5890563 Z" id="Path-25" fill-opacity="0.2" fill="#DBDBDB"></path>
                            <path d="M3.3504959,41.9523604 C6.33551881,34.838243 60.7295669,1.09875345 67.6863444,0.0443943958 C74.6431219,-1.00996465 98.7434054,16.9141392 101.03062,32.7295249 C103.317835,48.5449107 54.7727318,79.4570765 31.7637861,83.506636 C8.75484041,87.5561955 0.36547298,49.0664778 3.3504959,41.9523604 Z" id="Path-16" fill="#F7F7F7"></path>
                            <path d="M5.67195196,43.3767032 C4.92464115,52.5771019 7.35651226,61.471174 12.9675653,70.0589194 C21.3841448,82.9405374 30.4711145,81.5965878 30.4711145,80.1852431 C30.4711145,79.4967241 29.7539015,70.4313893 25.3690385,61.8228237 C20.7656927,52.7853225 12.4483572,44.1834959 10.8685108,43.3767032 C8.8120371,42.3265074 7.07985082,42.3265074 5.67195196,43.3767032 Z" id="Path-17" fill="#ECEFF1"></path>
                        </g>
                        <g id="Pillow" transform="translate(51.328293, 160.739342)">
                            <path d="M18.0056585,78.6238777 C24.8297888,89.7395573 30.2938254,95.2973971 34.3977684,95.2973971 C40.553683,95.2973971 107.185345,56.1699132 109.208702,52.7498557 C110.557606,50.4698174 105.417426,46.1669905 93.7881615,39.8413753 L18.0056585,78.6238777 Z" id="Path-9" fill-opacity="0.413871285" fill="#C9D0D3"></path>
                            <path d="M2.61220405,42.5890563 C0.870734684,49.4874058 0,55.7277779 0,61.3101726 C0,66.8925673 0.870734684,70.6330922 2.61220405,72.5317474 C6.88630411,75.5768126 10.7023638,77.7271337 14.0603831,78.9827108 C17.4184024,80.2382879 22.4269626,81.3875282 29.0860638,82.4304316 L2.61220405,42.5890563 Z" id="Path-25" fill-opacity="0.2" fill="#DBDBDB"></path>
                            <path d="M3.3504959,41.9523604 C6.33551881,34.838243 60.7295669,1.09875345 67.6863444,0.0443943958 C74.6431219,-1.00996465 98.7434054,16.9141392 101.03062,32.7295249 C103.317835,48.5449107 54.7727318,79.4570765 31.7637861,83.506636 C8.75484041,87.5561955 0.36547298,49.0664778 3.3504959,41.9523604 Z" id="Path-16" fill="#F7F7F7"></path>
                            <path d="M5.67195196,43.3767032 C4.92464115,52.5771019 7.35651226,61.471174 12.9675653,70.0589194 C21.3841448,82.9405374 30.4711145,81.5965878 30.4711145,80.1852431 C30.4711145,79.4967241 29.7539015,70.4313893 25.3690385,61.8228237 C20.7656927,52.7853225 12.4483572,44.1834959 10.8685108,43.3767032 C8.8120371,42.3265074 7.07985082,42.3265074 5.67195196,43.3767032 Z" id="Path-17" fill="#ECEFF1"></path>
                        </g>
                    </g>
                    <g id="Side-Table-Copy" transform="translate(448.000000, 300.000000)">
                        <polygon id="Path-19" fill="#EFEFEF" points="5.40664768 97.7007925 113.326054 168.150236 171.21051 130.212114 67.6062239 71.5532918 57.1807156 77.3938519 113.326054 110.62614 76.1858712 131.022624 19.0314024 97.7007925"></polygon>
                        <polygon id="Path-13" fill="#E5E5E5" points="5.40664768 55.4538012 5.40664768 100.15609 11.006675 103.752273 17.9022094 100.15609 21.6265907 64.2737279"></polygon>
                        <path d="M47.439425,126.636747 L45.0553973,78.708621 L66.681988,78.708621 L64.4016992,126.636747 L56.1091908,130.584758 L47.439425,126.636747 Z" id="Combined-Shape" fill="#E1E1E1"></path>
                        <polygon id="Path-13-Copy" fill="#E1E1E1" transform="translate(98.220766, 79.603037) scale(-1, 1) translate(-98.220766, -79.603037) " points="90.1107947 55.4538012 90.1107947 100.15609 95.7108219 103.752273 102.606356 100.15609 106.330738 64.2737279"></polygon>
                        <polygon id="Rectangle" fill="#F7F7F7" points="0 31.3045652 55.8411449 0 108.132954 31.3045652 55.8411449 62.6091304"></polygon>
                        <polygon id="Rectangle" fill="#C8C8C8" points="55.8686927 62.4632898 108.132954 31.3550599 108.132954 56.5445526 55.8686927 87.6527825"></polygon>
                        <polygon id="Rectangle" fill="#ECEFF1" points="3.07409209e-12 31.3045652 55.8686927 62.4127951 55.8686927 87.6527825 6.24985959e-12 56.5445526"></polygon>
                    </g>
                </g>
                <g id="Hurra-Device" transform="translate(469.000000, 282.000000)">
                    <g id="Group-2">
                        <g id="Group">
                            <polyline id="Fill-7" fill="#D1E9F2" points="50.9292444 21.5466136 50.9287149 21.5466136 51.5154678 21.2913409 51.5154678 21.2917398 50.9292444 21.5466136"></polyline>
                            <polyline id="Fill-12" fill="#D1E9F2" points="36.6325285 28.5808132 36.6320287 28.5808132 37.1858607 28.3769141 36.6325285 28.5808132"></polyline>
                            <g id="Group-223" transform="translate(30.935471, 15.396136)">
                                <mask id="mask-2" fill="white">
                                    <use xlink:href="#path-1"></use>
                                </mask>
                                <g id="Clip-222"></g>
                                <path d="M1.06029573,53.3369865 L1.06029573,17.6313565 C1.06029573,17.0289487 0.852890861,16.3790464 0.514968056,15.8083015 L32.5098979,0.00849193548 C32.8516176,0.582078364 33.0642432,1.23482216 33.0642432,1.8408834 L33.0642432,37.6920649 C33.0642432,38.3545511 32.8117503,38.8238122 32.4126027,39.0385519 L32.4135519,39.0409875 L32.3565986,39.068997 L32.3414111,39.0767098 L0.0716816803,54.6443182 C0.446149507,54.4194301 1.06029573,53.9759285 1.06029573,53.3369865 Z" id="Fill-221" fill="url(#linearGradient-3)" mask="url(#mask-2)"></path>
                            </g>
                            <g id="Group-226" transform="translate(0.632951, 0.000000)">
                                <mask id="mask-5" fill="white">
                                    <use xlink:href="#path-4"></use>
                                </mask>
                                <g id="Clip-225"></g>
                                <path d="M30.7964297,31.2709091 C30.4364483,30.6625717 29.92877,30.1435762 29.3660021,29.865804 L1.29457376,16.0072443 C1.01580186,15.8695765 0.750802332,15.8041945 0.510023192,15.8041945 C0.352353222,15.8041945 0.204656353,15.8326214 0.0716816803,15.8866327 L32.0397429,0.115749383 L32.0397429,0.116155483 C32.1883896,0.0454941287 32.3555577,0.0085390525 32.5364983,0.0085390525 C32.7763276,0.0085390525 33.0403773,0.0735150106 33.3186743,0.210370622 L61.3896278,14.0689303 C61.9490712,14.3454842 62.4534252,14.8608248 62.8129317,15.464289 L50.840462,21.3750707 L50.3142622,21.6349745 L36.5095915,28.4505464 L35.9833918,28.7100441 L30.7964297,31.2709091" id="Fill-224" fill="url(#linearGradient-6)" mask="url(#mask-5)"></path>
                            </g>
                            <path d="M1.97774838,55.9773433 C0.885757565,55.4383834 0,53.9924924 0,52.7476453 L0,17.1957853 C0,15.9513443 0.885757565,15.3790801 1.97774838,15.91804 L30.0658621,29.7782861 C31.1573777,30.317246 32.0431352,31.763137 32.0431352,33.0079841 L32.0431352,68.559438 C32.0431352,69.8046913 31.1573777,70.3765493 30.0658621,69.8375894 L1.97774838,55.9773433 Z" id="Fill-227" fill="#CD8097"></path>
                            <path d="M3.70694687,55.9358907 C2.75194801,55.4656688 1.97797131,54.2037715 1.97797131,53.1178021 L1.97797131,20.0385005 C1.97797131,18.9525311 2.75194801,18.453123 3.70694687,18.9237503 L28.2570695,31.016561 C29.2120684,31.4867829 29.9860451,32.7482748 29.9860451,33.8342442 L29.9860451,66.9135458 C29.9860451,67.9999206 29.2120684,68.4989234 28.2570695,68.0287014 L3.70694687,55.9358907 Z" id="Fill-236" fill="#521727"></path>
                            <path d="M4.50997095,55.533802 C3.55506438,55.0635721 2.78077728,53.801248 2.78077728,52.7156655 L2.78077728,19.6353965 C2.78077728,19.2652931 2.87251295,18.9653189 3.02889138,18.7465909 C2.4109827,18.742365 1.97797131,19.2263775 1.97797131,20.0383349 L1.97797131,53.1181985 C1.97797131,54.2041864 2.75225842,55.4661051 3.70764029,55.936335 L28.267609,68.0293512 C28.8969252,68.3394598 29.4459133,68.225956 29.7486885,67.8031544 C29.5405008,67.8019383 29.310924,67.7451864 29.0699396,67.6268182 L4.50997095,55.533802 Z" id="Fill-237" fill="#821938"></path>
                            <path d="M28.2577564,52.841561 L19.1366289,48.3422727 L4.58889344,55.5180857 L29.9860451,68.0461364 L29.9860451,55.6625433 C29.9860451,54.575053 29.2123759,53.3122658 28.2577564,52.841561" id="Fill-239" fill="#521727"></path>
                            <path d="M28.2577564,41.91279 L19.1366289,37.4134091 L4.58889344,44.5893698 L29.9860451,57.1172727 L29.9860451,44.7338305 C29.9860451,43.6463177 29.2123759,42.3835045 28.2577564,41.91279" id="Fill-240" fill="#521727"></path>
                            <path d="M28.2577564,31.0024569 L19.1366289,26.4845455 L4.58889344,33.6898177 L29.9860451,46.2681818 L29.9860451,33.8348602 C29.9860451,32.7429671 29.2123759,31.4750673 28.2577564,31.0024569" id="Fill-241" fill="#521727"></path>
                            <path d="M28.2577564,30.9673691 L8.06446812,20.9802273 L4.58889344,22.699132 L29.9860451,35.2595455 L29.9860451,33.7957302 C29.9860451,32.7053954 29.2123759,31.439305 28.2577564,30.9673691" id="Fill-242" fill="#521727"></path>
                            <polyline id="Fill-243" fill="#874257" points="29.9860451 35.2330967 4.58889344 22.7352273 4.58889344 29.6225354 29.9860451 42.12 29.9860451 35.2330967"></polyline>
                            <polyline id="Fill-244" fill="#874257" points="29.9860451 46.2414721 4.58889344 33.7438636 4.58889344 40.6310279 29.9860451 53.1286364 29.9860451 46.2414721"></polyline>
                            <polyline id="Fill-245" fill="#874257" points="29.9860451 57.1419935 4.58889344 44.5929545 4.58889344 51.5088675 29.9860451 64.0575 29.9860451 57.1419935"></polyline>
                            <path d="M27.7445409,39.7069317 L8.65013124,30.3207867 C8.11160622,30.055598 7.67452869,29.3447955 7.67452869,28.7324801 L7.67452869,26.8935158 C7.67452869,26.2816041 8.11160622,26.00027 8.65013124,26.265055 L27.7445409,35.6516036 C28.2830659,35.9163886 28.7201434,36.6275948 28.7201434,37.2391029 L28.7201434,39.0784708 C28.7201434,39.6907862 28.2830659,39.9717167 27.7445409,39.7069317" id="Fill-248" fill="#6B172F"></path>
                            <path d="M27.8330881,39.8065909 C27.7975916,39.7935943 27.7620951,39.7781609 27.725652,39.7602906 L8.66214052,30.3158401 C8.12448693,30.0490041 7.68811667,29.3337862 7.68811667,28.7176672 C7.68811667,29.3337862 8.12448693,30.0490041 8.66214052,30.3158401 L27.725652,39.7602906 C27.7620951,39.7781609 27.7975916,39.7935943 27.8330881,39.8065909 M7.68811667,26.8695132 C7.68811667,26.4304522 7.91550564,26.1674059 8.24111588,26.1654545 C7.91550564,26.1674059 7.68811667,26.4304522 7.68811667,26.8695132" id="Fill-249" fill="#3F5F90"></path>
                            <path d="M28.1631374,39.8065909 C28.0767137,39.8065909 27.9836419,39.7896374 27.8862964,39.753712 C27.8506822,39.7407951 27.815068,39.7254561 27.7785041,39.7076953 L8.65178219,30.3210886 C8.11234585,30.0558869 7.67452869,29.3450495 7.67452869,28.732704 L7.67452869,26.8936492 C7.67452869,26.4395367 7.91528064,26.1674728 8.26002605,26.1654545 C8.26145062,26.1654545 8.26287518,26.1654545 8.26429975,26.1654545 C8.26477461,26.1654545 8.26524946,26.1654545 8.26572432,26.1654545 C8.38396345,26.1658582 8.51454883,26.197747 8.65178219,26.2651575 L8.6764747,26.2772671 C8.65558104,26.3571909 8.6408605,26.4435732 8.6408605,26.5412579 L8.6408605,28.3807163 C8.6408605,28.9926582 9.07867767,29.7034956 9.61858886,29.9686973 L28.7201434,39.3431943 C28.6427419,39.6370556 28.4357047,39.8065909 28.1631374,39.8065909" id="Fill-250" fill="#6B172F"></path>
                            <path d="M21.7302653,34.665564 L10.2337511,28.9799525 C10.0435419,28.886093 9.88985656,28.634582 9.88985656,28.4172017 C9.88985656,28.2006341 10.0435419,28.1010861 10.2337511,28.195352 L21.7302653,33.8809634 C21.9200002,33.9748229 22.0741598,34.2263339 22.0741598,34.4433079 C22.0741598,34.6602818 21.9200002,34.7598298 21.7302653,34.665564" id="Fill-251" fill="#FFFFFE"></path>
                            <path d="M27.7445409,50.5560226 L8.65013124,41.1698823 C8.11160622,40.9042901 7.67452869,40.1938916 7.67452869,39.5815765 L7.67452869,37.7422094 C7.67452869,37.1307016 8.11160622,36.8493677 8.65013124,37.1141526 L27.7445409,46.5006966 C28.2830659,46.7654815 28.7201434,47.4766872 28.7201434,48.0881951 L28.7201434,49.9275621 C28.7201434,50.5398772 28.2830659,50.8208075 27.7445409,50.5560226" id="Fill-252" fill="#6B172F"></path>
                            <path d="M27.8643946,50.6556818 C27.8392325,50.6451044 27.8135955,50.6337134 27.7879586,50.621102 L8.66518932,41.1608649 C8.12586446,40.8931761 7.68813777,40.1771695 7.68813777,39.5600207 C7.68813777,40.1771695 8.12586446,40.8931761 8.66518932,41.1608649 L27.7879586,50.621102 C27.8135955,50.6337134 27.8392325,50.6451044 27.8643946,50.6556818 M7.64644017,37.7107438 C7.65118753,37.4295895 7.741862,37.2177724 7.88808052,37.0943182 C7.741862,37.2177724 7.65118753,37.4295895 7.64644017,37.7107438" id="Fill-253" fill="#3F5F90"></path>
                            <path d="M28.1631374,50.6556818 C28.0695908,50.6556818 27.9679717,50.635499 27.8611291,50.5935189 C27.8597045,50.5927115 27.8587548,50.5923079 27.8573302,50.5919042 C27.8563805,50.5915006 27.8559057,50.5910969 27.8549559,50.5910969 C27.8297886,50.5806019 27.8041464,50.5692995 27.7785041,50.5567862 L8.65178219,41.1701796 C8.11234585,40.9045742 7.67452869,40.1941404 7.67452869,39.5817949 L7.67452869,37.7423364 C7.67452869,37.7350706 7.67452869,37.7274012 7.67452869,37.7201354 C7.67927725,37.4517044 7.76997473,37.249473 7.91623036,37.1316056 C7.91670521,37.1312019 7.91670521,37.1312019 7.91718007,37.1312019 C7.91765492,37.1303946 7.91860464,37.1299909 7.91907949,37.1295873 C8.01357582,37.0545074 8.13086524,37.0145455 8.2638249,37.0145455 C8.38301373,37.0145455 8.51407397,37.0468379 8.65178219,37.114652 L8.6764747,37.126358 C8.65558104,37.2062819 8.6408605,37.2926641 8.6408605,37.3903488 L8.6408605,39.2298072 C8.6408605,39.8421527 9.07867767,40.5525865 9.61858886,40.8177882 L28.7201434,50.1922852 C28.6427419,50.4861465 28.4357047,50.6556818 28.1631374,50.6556818" id="Fill-254" fill="#6B172F"></path>
                            <path d="M21.7302653,45.5146616 L10.2337511,39.8290383 C10.0435419,39.7351786 9.88985656,39.4836671 9.88985656,39.2666927 C9.88985656,39.0497183 10.0435419,38.9501701 10.2337511,39.0444361 L21.7302653,44.7300594 C21.9200002,44.8239191 22.0741598,45.0754307 22.0741598,45.2919988 C22.0741598,45.5093795 21.9200002,45.6089277 21.7302653,45.5146616" id="Fill-255" fill="#FFFFFE"></path>
                            <path d="M27.7445409,61.5639637 L8.65013124,52.1230103 C8.11160622,51.8562731 7.67452869,51.14132 7.67452869,50.5254292 L7.67452869,48.6757266 C7.67452869,48.0602417 8.11160622,47.7768589 8.65013124,48.044002 L27.7445409,57.4849554 C28.2830659,57.7512866 28.7201434,58.4666457 28.7201434,59.0821305 L28.7201434,60.9318331 C28.7201434,61.547318 28.2830659,61.8307009 27.7445409,61.5639637" id="Fill-256" fill="#6B172F"></path>
                            <path d="M7.68735302,48.5815909 C7.68735302,48.1330683 7.90326238,47.8644323 8.21249211,47.8636364 C7.90326238,47.8644323 7.68735302,48.1330683 7.68735302,48.5815909" id="Fill-257" fill="#3F5F90"></path>
                            <path d="M28.1631374,61.6643182 C28.0453732,61.6643182 27.9152626,61.6322429 27.7785041,61.5648442 L8.65178219,52.1233451 C8.11234585,51.8565926 7.67452869,51.1415981 7.67452869,50.5256717 L7.67452869,48.6758622 C7.67452869,48.218282 7.91623036,47.9442211 8.26240033,47.9434091 C8.26287518,47.9434091 8.26335004,47.9434091 8.2638249,47.9434091 C8.26429975,47.9434091 8.26477461,47.9434091 8.26524946,47.9434091 C8.37874003,47.9438151 8.50362714,47.9734543 8.63421252,48.0355748 C8.64038565,48.0384169 8.64608392,48.041259 8.65178219,48.0441011 L8.6764747,48.0562816 C8.65558104,48.1370788 8.6408605,48.2231542 8.6408605,48.3214101 L8.6408605,50.1716256 C8.6408605,50.7875521 9.07867767,51.5021405 9.61858886,51.7692991 L28.7201434,61.1982117 C28.6427419,61.4937914 28.4357047,61.6643182 28.1631374,61.6643182" id="Fill-258" fill="#6B172F"></path>
                            <path d="M21.7302653,56.4437579 L10.2337511,50.7578239 C10.0435419,50.6643721 9.88985656,50.4124585 9.88985656,50.1954878 C9.88985656,49.9789233 10.0435419,49.8793768 10.2337511,49.9728286 L21.7302653,55.6591689 C21.9200002,55.7526207 22.0741598,56.0045343 22.0741598,56.2210987 C22.0741598,56.4380695 21.9200002,56.537616 21.7302653,56.4437579" id="Fill-259" fill="#D4EAF2"></path>
                            <path d="M6.52286808,30.6327273 L4.56572082,29.6664913 L6.52286808,30.63233 L6.52286808,30.6327273 M6.52286808,23.781236 L4.56572082,22.815 L6.52286808,23.781236 L6.52286808,23.7808387" id="Fill-268" fill="#521727"></path>
                            <polyline id="Fill-269" fill="#263764" points="6.56686475 23.6925 4.58889344 22.7352273 6.56686475 23.6921064"></polyline>
                            <polyline id="Fill-270" fill="#621D32" points="6.56686475 30.6323253 4.58889344 29.6550088 4.58889344 22.815 6.56686475 23.7927184 6.56686475 30.6327273"></polyline>
                            <polyline id="Fill-271" fill="#263764" points="6.56686475 41.5615909 4.58889344 40.6043182 6.56686475 41.5611973 6.56686475 41.5615909"></polyline>
                            <polyline id="Fill-272" fill="#621D32" points="6.56686475 41.5611889 4.58889344 40.5838725 4.58889344 33.7438636 6.56686475 34.7215821 6.56686475 41.5615909"></polyline>
                            <polyline id="Fill-273" fill="#621D32" points="6.56686475 52.4904545 4.58889344 51.4931929 4.58889344 44.5131818 6.56686475 45.5108537 6.56686475 52.4904545"></polyline>
                            <polyline id="Fill-274" fill="#263764" points="6.56686475 56.4790909 4.58889344 55.5218182 6.56686475 56.4790909"></polyline>
                            <path d="M24.0521311,35.3359121 C24.0521311,35.5527136 23.8753318,35.6407892 23.6567689,35.5319899 C23.4377419,35.4239877 23.2609426,35.160558 23.2609426,34.9437566 C23.2609426,34.7273536 23.4377419,34.639278 23.6567689,34.7472802 C23.8753318,34.8560795 24.0521311,35.1195092 24.0521311,35.3359121" id="Fill-279" fill="#D4EAF2"></path>
                            <path d="M25.713627,36.2134121 C25.713627,36.4302136 25.5363637,36.5182892 25.3178008,36.4094899 C25.0992378,36.3014877 24.9224385,36.038058 24.9224385,35.8212566 C24.9224385,35.6048536 25.0992378,35.516778 25.3178008,35.6247802 C25.5363637,35.7335795 25.713627,35.9970092 25.713627,36.2134121" id="Fill-280" fill="#DA3685"></path>
                            <path d="M27.4542418,37.0111421 C27.4542418,37.2279412 27.2769785,37.3160158 27.0584155,37.2072177 C26.8403166,37.0992167 26.6630533,36.8353914 26.6630533,36.6185923 C26.6630533,36.4025903 26.8403166,36.3145157 27.0584155,36.4225167 C27.2769785,36.5313148 27.4542418,36.7947416 27.4542418,37.0111421" id="Fill-281" fill="#D4EAF2"></path>
                            <path d="M24.0521311,46.2648798 C24.0521311,46.4812827 23.8753318,46.5693583 23.6567689,46.4613561 C23.4377419,46.3525569 23.2609426,46.0891272 23.2609426,45.8727242 C23.2609426,45.6559227 23.4377419,45.5678472 23.6567689,45.6766464 C23.8753318,45.7846486 24.0521311,46.0480783 24.0521311,46.2648798" id="Fill-282" fill="#DA3685"></path>
                            <path d="M25.713627,47.1204359 C25.713627,47.3565502 25.5363637,47.4526483 25.3178008,47.3343737 C25.0992378,47.2160992 24.9224385,46.9286746 24.9224385,46.6925603 C24.9224385,46.4560112 25.0992378,46.3599132 25.3178008,46.4786225 C25.5363637,46.5964623 25.713627,46.8838868 25.713627,47.1204359" id="Fill-283" fill="#D4EAF2"></path>
                            <path d="M27.4542418,47.9402522 C27.4542418,48.1566528 27.2769785,48.2447275 27.0584155,48.1363279 C26.8403166,48.0279283 26.6630533,47.7645015 26.6630533,47.5477023 C26.6630533,47.3313017 26.8403166,47.2432271 27.0584155,47.3516266 C27.2769785,47.4600262 27.4542418,47.7234531 27.4542418,47.9402522" id="Fill-284" fill="#FFFFFE"></path>
                            <path d="M24.0521311,57.2737075 C24.0521311,57.4905576 23.8753318,57.5778558 23.6567689,57.4698293 C23.4377419,57.3614042 23.2609426,57.0979154 23.2609426,56.8810652 C23.2609426,56.6642151 23.4377419,56.576917 23.6567689,56.6849434 C23.8753318,56.7933685 24.0521311,57.0568574 24.0521311,57.2737075" id="Fill-285" fill="#FFFFFE"></path>
                            <path d="M25.713627,58.0714348 C25.713627,58.2882849 25.5363637,58.375583 25.3178008,58.2675566 C25.0992378,58.1591315 24.9224385,57.8956426 24.9224385,57.6787925 C24.9224385,57.4619424 25.0992378,57.3746442 25.3178008,57.4826707 C25.5363637,57.5910958 25.713627,57.8545846 25.713627,58.0714348" id="Fill-286" fill="#DA3685"></path>
                            <path d="M27.4542418,58.9489348 C27.4542418,59.1657849 27.2769785,59.253083 27.0584155,59.1450566 C26.8403166,59.0366315 26.6630533,58.7731426 26.6630533,58.5562925 C26.6630533,58.3394424 26.8403166,58.2521442 27.0584155,58.3601707 C27.2769785,58.4681971 27.4542418,58.7320846 27.4542418,58.9489348" id="Fill-287" fill="#FFFFFE"></path>
                        </g>
                        <g id="Logo/Icon/White-2" transform="translate(41.832594, 32.216908)">
                            <g id="Logo/Icon/White" transform="translate(6.329508, 8.775000) rotate(5.000000) translate(-6.329508, -8.775000) translate(1.054918, 0.531818)"></g>
                        </g>
                        <g id="Group" filter="url(#filter-7)" transform="translate(43.921868, 32.833249)" fill-rule="nonzero">
                            <g id="Path">
                                <g>
                                    <use fill="black" fill-opacity="1" filter="url(#filter-9)" xlink:href="#path-8"></use>
                                    <use fill="#FFFFFF" xlink:href="#path-8"></use>
                                </g>
                                <g>
                                    <use fill="black" fill-opacity="1" filter="url(#filter-11)" xlink:href="#path-10"></use>
                                    <use fill="#FFFFFF" xlink:href="#path-10"></use>
                                </g>
                            </g>
                            <g transform="translate(0.000000, 1.047227)" id="Path">
                                <g>
                                    <use fill="black" fill-opacity="1" filter="url(#filter-13)" xlink:href="#path-12"></use>
                                    <use fill="#FFFFFF" xlink:href="#path-12"></use>
                                </g>
                                <g>
                                    <use fill="black" fill-opacity="1" filter="url(#filter-15)" xlink:href="#path-14"></use>
                                    <use fill="#FFFFFF" xlink:href="#path-14"></use>
                                </g>
                            </g>
                        </g>
                    </g>
                </g>
                <g id="Lying-Woman" transform="translate(258.100000, 244.500000) scale(-1, 1) translate(-258.100000, -244.500000) translate(157.100000, 175.500000)">
                    <g id="Torso" transform="translate(0.000000, 15.600000)">
                        <mask id="mask-17" fill="white">
                            <use xlink:href="#path-16"></use>
                        </mask>
                        <use id="Mask" fill="#5D162A" xlink:href="#path-16"></use>
                        <path d="M6.99686407,25.5366337 C10.4324738,32.950495 8.44460483,35.4217822 10.4324738,40.3643564 C12.4203428,45.3069307 28.4375,43.6594059 36.5625,45.3069307 C44.6875,46.9544554 73.9375,62.0210078 84.5,72.1986227 C91.5416667,78.9836993 89.6458333,83.7491749 78.8125,86.4950495 L-8.72119725,42.0118812 C-0.532896184,26.0858086 4.70645759,20.5940594 6.99686407,25.5366337 Z M84.5,2.21156427e-13 C81.7260101,-4.39339934 84.9760101,-4.39339934 94.25,2.21156427e-13 C95.3026351,25.4757727 92.9944994,35.9696399 87.3255928,31.4816014 C78.8222329,24.7495438 71.5,18.9465347 79.625,18.9465347 C87.75,18.9465347 88.6609848,6.59009901 84.5,2.21156427e-13 Z" id="Combined-Shape" fill="#5D162A" mask="url(#mask-17)"></path>
                    </g>
                    <g id="Shoe-1" transform="translate(180.700000, 27.300000)">
                        <path d="M4.59382065,19.3368728 L10.495987,19.1771638 L10.495987,29.2084364 L0.0771188915,29.2084364 C0.282562372,27.231641 0.478557013,25.8588683 0.665102815,25.0901181 C1.04781302,23.5129797 1.69657537,22.3385636 2.03098697,21.6101982 C2.60990373,20.3492882 3.46418162,19.5915131 4.59382065,19.3368728 Z" id="Path-34" fill="#8F7167"></path>
                        <path d="M18.0712184,4.06430445e-13 C21.4337215,4.06430445e-13 20.9542681,25.1966877 18.0712184,29.0244187 C15.1881687,32.8521496 9.65102416,31.1654588 8.36304106,26.4535041 C7.7498484,24.2102013 7.89821927,15.2492505 9.90574229,9.46989656 C12.1149295,3.10998216 16.309561,4.06430445e-13 18.0712184,4.06430445e-13 Z" id="Path-35" fill="#5E7243"></path>
                        <path d="M17.7826924,0.928955893 C14.9465859,2.30953565 10.6678996,24.1040382 14.6585974,29.2156018 C18.6492951,34.3271655 20.1044799,15.2876405 20.1044799,11.7071655 C20.1044799,8.12669044 20.6187989,-0.451623864 17.7826924,0.928955893 Z" id="Path-36" fill="#5E7243"></path>
                    </g>
                    <g id="Legs" transform="translate(80.600000, 45.500000)">
                        <mask id="mask-19" fill="white">
                            <use xlink:href="#path-18"></use>
                        </mask>
                        <use id="Mask" fill="#D8D8D8" xlink:href="#path-18"></use>
                        <path d="M71.7425373,18.9366667 C58.4352709,35.6172498 49.3643753,46.5112844 44.5298507,51.6187707 C39.6953262,56.7262569 30.9878791,61.75 18.4075095,66.69 L-0.354679685,55.4446105 L2.09378518,40.3433333 C9.85393973,55.1633333 16.9425266,62.0244444 23.3595458,60.9266667 C28.3084317,60.0800466 35.415968,56.5336677 50.9351068,40.3433333 C54.0043719,37.1413239 60.1155552,30.0057684 69.2686567,18.9366667 L71.7425373,18.9366667 Z M109.812385,9.65546464 C110.036515,14.2662975 108.318688,18.018906 106.646321,18.9366667 C104.973954,19.8544273 101.50554,13.956847 101.50554,9.84288082 C101.50554,5.72891467 104.134068,0.741550253 105.789068,0.652450387 C107.444069,0.563350522 109.588255,5.04463175 109.812385,9.65546464 Z" id="Combined-Shape" fill="#C2C2C2" mask="url(#mask-19)"></path>
                    </g>
                    <g id="Head" transform="translate(24.700000, 0.000000)">
                        <path d="M4.1122449,29.3548387 C7.6013675,38.1091899 5.90445618,52 21.0158058,44.4516129 C36.1271554,36.9032258 35.7200521,33.0437766 29.6081633,25.3283399 C23.4962745,17.6129032 0.623122298,20.6004875 4.1122449,29.3548387 Z" id="Path-33" fill="#212121"></path>
                        <path d="M30.4496707,21.1814057 C31.1849307,26.2391144 30.2411457,30.6052549 27.6183156,34.2798269 L30.4496707,36.2148835 C33.8643314,35.112988 36.4462435,35.466933 38.1954071,37.2767187 C40.8191526,39.9913973 40.0521897,47.978386 31.5508749,50.6817592 C23.0495602,53.3851323 15.733987,51.9238726 17.6341827,44.6002957 C18.9009798,39.717911 15.8074474,35.9398957 8.3535856,33.2662497 C1.37390947,25.8894239 -0.754319793,18.2800103 1.96889781,10.438009 C6.05372421,-1.32499287 19.8553529,2.41443824 23.0495602,6.42622364 C26.2437674,10.438009 29.3467807,13.5948426 30.4496707,21.1814057 Z" id="Path-27" fill="#F2BD8A"></path>
                        <path d="M27.9157086,33.715086 C21.223844,35.8688013 15.0157965,35.25881 9.29156584,31.8851121 C3.56733521,28.5114142 2.58795675,28.5114142 6.35343047,31.8851121 C9.91077923,35.0409064 13.4945795,36.9063217 17.1048311,37.4813579 C20.7150828,38.0563941 24.6186352,37.5094998 28.8154882,35.8406749 L27.9157086,33.715086 Z" id="Path-31" fill="#E9AE75"></path>
                        <path d="M25.0586114,8.86987677 C23.1244032,12.0357571 18.0613287,15.3403612 9.86938776,18.7836891 C10.7621946,28.9531592 12.4771009,35.0710821 15.0141068,37.1374578 C18.8196156,40.2370213 4.83701854,35.8499655 1.81347454,25.0006811 C-1.21006946,14.1513966 -0.773152107,10.3561515 6.57959184,3.50065641 C13.9323358,-3.35483871 27.9599236,4.12105634 25.0586114,8.86987677 Z" id="Path-32" fill="#212121"></path>
                    </g>
                    <g id="Shoe-2" transform="translate(163.800000, 110.500000)">
                        <path d="M1.61244859,8.72210999 C0.717450431,15.3402918 -0.70475182,16.8706487 5.81896558,20.1646955 C12.342683,23.4587423 20.1470707,27.9039088 25.3964446,26.1526048 C30.6458186,24.4013008 15.7562374,6.24029181 13.1118587,6.24029181 C10.46748,6.24029181 2.50744675,2.10392817 1.61244859,8.72210999 Z" id="Path-37" fill="#485833"></path>
                        <path d="M-7.17026438e-13,6.61818182 C1.66767677,10.2134664 3.19747475,12.0111087 4.58939394,12.0111087 C6.67727273,12.0111087 13.0468389,12.4090909 10.7860571,6.61818182 C9.27886915,2.75757576 7.88690962,0.551515152 6.61017845,4.69935202e-13 L-7.17026438e-13,6.61818182 Z" id="Path-38" fill="#F2BD8A"></path>
                    </g>
                </g>
            </g>
        </g>
    </g>
</svg>